<svg width="522" height="400" viewBox="0 0 522 400" fill="none" xmlns="http://www.w3.org/2000/svg">
<path fill-rule="evenodd" clip-rule="evenodd" d="M258.945 216.901L148.303 369.187L147.827 368.841L258.469 216.555L258.945 216.901Z" fill="#6B7280"/>
<path fill-rule="evenodd" clip-rule="evenodd" d="M258.891 216.901L369.533 369.187L369.057 369.532L258.415 217.247L258.891 216.901Z" fill="#6B7280"/>
<path fill-rule="evenodd" clip-rule="evenodd" d="M258.009 216.726L437.032 158.558L437.213 159.117L258.191 217.285L258.009 216.726Z" fill="#6B7280"/>
<path fill-rule="evenodd" clip-rule="evenodd" d="M258.277 216.937V28.7017H258.865V216.937H258.277Z" fill="#6B7280"/>
<path fill-rule="evenodd" clip-rule="evenodd" d="M258.796 217.314L79.7737 159.146L79.9554 158.587L258.978 216.754L258.796 217.314Z" fill="#6B7280"/>
<path d="M308.669 3.79136C309.473 3.79136 310.163 3.96944 310.737 4.3256C311.311 4.68176 311.751 5.18153 312.055 5.82491C312.36 6.46255 312.512 7.20933 312.512 8.06526V8.95278H305.989C306.006 10.0615 306.282 10.9059 306.816 11.4861C307.351 12.0663 308.103 12.3564 309.074 12.3564C309.671 12.3564 310.2 12.3018 310.659 12.1927C311.119 12.0835 311.596 11.9227 312.09 11.7101V12.9682C311.613 13.1807 311.139 13.3358 310.668 13.4335C310.203 13.5311 309.651 13.58 309.014 13.58C308.106 13.58 307.313 13.3961 306.635 13.0285C305.963 12.6551 305.441 12.1094 305.067 11.3913C304.694 10.6733 304.507 9.79435 304.507 8.75459C304.507 7.73782 304.677 6.85892 305.016 6.11788C305.36 5.37109 305.843 4.79665 306.463 4.39453C307.089 3.99242 307.825 3.79136 308.669 3.79136ZM308.652 4.96323C307.888 4.96323 307.279 5.21312 306.825 5.71289C306.371 6.21266 306.101 6.91062 306.015 7.80676H311.013C311.007 7.2438 310.918 6.74977 310.746 6.32468C310.579 5.89384 310.323 5.56066 309.979 5.32514C309.634 5.08387 309.192 4.96323 308.652 4.96323Z" fill="#333333"/>
<path d="M302.103 3.79136C302.293 3.79136 302.491 3.80285 302.698 3.82583C302.904 3.84306 303.088 3.86891 303.249 3.90338L303.068 5.23035C302.913 5.19014 302.741 5.15855 302.551 5.13557C302.362 5.11259 302.183 5.1011 302.017 5.1011C301.638 5.1011 301.279 5.17865 300.94 5.33375C300.607 5.48311 300.314 5.7014 300.061 5.98863C299.808 6.27011 299.61 6.6119 299.466 7.01402C299.323 7.41039 299.251 7.85271 299.251 8.34099V13.4076H297.812V3.96369H299.001L299.156 5.70427H299.216C299.412 5.35386 299.647 5.03504 299.923 4.74782C300.199 4.45485 300.518 4.2222 300.879 4.04986C301.247 3.87753 301.655 3.79136 302.103 3.79136Z" fill="#333333"/>
<path d="M294.787 3.96369V13.4076H293.616L293.409 12.0807H293.331C293.136 12.4081 292.883 12.6838 292.573 12.9079C292.263 13.1319 291.912 13.2985 291.522 13.4076C291.137 13.5225 290.726 13.58 290.289 13.58C289.543 13.58 288.917 13.4593 288.411 13.2181C287.906 12.9768 287.524 12.6034 287.265 12.0979C287.012 11.5924 286.886 10.9432 286.886 10.1505V3.96369H288.333V10.0471C288.333 10.8341 288.512 11.4229 288.868 11.8135C289.224 12.1984 289.767 12.3909 290.496 12.3909C291.197 12.3909 291.754 12.2587 292.168 11.9945C292.587 11.7302 292.889 11.3425 293.073 10.8312C293.257 10.3142 293.348 9.68233 293.348 8.93555V3.96369H294.787Z" fill="#333333"/>
<path d="M283.749 12.4081C283.985 12.4081 284.226 12.388 284.473 12.3478C284.72 12.3076 284.921 12.2587 285.076 12.2013V13.3128C284.91 13.3875 284.677 13.4507 284.378 13.5024C284.085 13.5541 283.798 13.58 283.517 13.58C283.017 13.58 282.563 13.4938 282.155 13.3215C281.747 13.1434 281.42 12.8447 281.173 12.4253C280.932 12.006 280.811 11.4258 280.811 10.6847V5.08387H279.467V4.38591L280.82 3.82583L281.388 1.77505H282.25V3.96369H285.016V5.08387H282.25V10.6417C282.25 11.2333 282.385 11.6757 282.655 11.9686C282.931 12.2616 283.296 12.4081 283.749 12.4081Z" fill="#333333"/>
<path d="M276.02 13.58C275.17 13.58 274.42 13.4048 273.771 13.0543C273.122 12.7039 272.617 12.1697 272.255 11.4516C271.893 10.7336 271.712 9.82881 271.712 8.73736C271.712 7.59421 271.901 6.66073 272.281 5.93693C272.665 5.20738 273.194 4.66739 273.866 4.31698C274.538 3.96657 275.302 3.79136 276.158 3.79136C276.629 3.79136 277.083 3.84019 277.52 3.93784C277.962 4.02976 278.324 4.14752 278.605 4.29113L278.174 5.48886C277.887 5.37397 277.554 5.27057 277.175 5.17865C276.801 5.08674 276.451 5.04079 276.124 5.04079C275.469 5.04079 274.923 5.18153 274.486 5.46301C274.056 5.74448 273.731 6.15809 273.513 6.70381C273.3 7.24954 273.194 7.92165 273.194 8.72013C273.194 9.48415 273.297 10.1361 273.504 10.6761C273.717 11.2161 274.03 11.6297 274.443 11.9169C274.863 12.1984 275.385 12.3392 276.012 12.3392C276.511 12.3392 276.962 12.2875 277.364 12.1841C277.767 12.0749 278.131 11.9485 278.459 11.8049V13.0802C278.143 13.241 277.79 13.3645 277.399 13.4507C277.014 13.5369 276.554 13.58 276.02 13.58Z" fill="#333333"/>
<path d="M265.964 3.79136C266.769 3.79136 267.458 3.96944 268.033 4.3256C268.607 4.68176 269.046 5.18153 269.351 5.82491C269.655 6.46255 269.808 7.20933 269.808 8.06526V8.95278H263.285C263.302 10.0615 263.578 10.9059 264.112 11.4861C264.646 12.0663 265.399 12.3564 266.369 12.3564C266.967 12.3564 267.495 12.3018 267.955 12.1927C268.415 12.0835 268.891 11.9227 269.385 11.7101V12.9682C268.909 13.1807 268.435 13.3358 267.964 13.4335C267.498 13.5311 266.947 13.58 266.309 13.58C265.402 13.58 264.609 13.3961 263.931 13.0285C263.259 12.6551 262.736 12.1094 262.363 11.3913C261.989 10.6733 261.803 9.79435 261.803 8.75459C261.803 7.73782 261.972 6.85892 262.311 6.11788C262.656 5.37109 263.138 4.79665 263.759 4.39453C264.385 3.99242 265.12 3.79136 265.964 3.79136ZM265.947 4.96323C265.183 4.96323 264.574 5.21312 264.121 5.71289C263.667 6.21266 263.397 6.91062 263.311 7.80676H268.308C268.302 7.2438 268.213 6.74977 268.041 6.32468C267.875 5.89384 267.619 5.56066 267.274 5.32514C266.93 5.08387 266.487 4.96323 265.947 4.96323Z" fill="#333333"/>
<path d="M259.088 12.4081C259.324 12.4081 259.565 12.388 259.812 12.3478C260.059 12.3076 260.26 12.2587 260.415 12.2013V13.3128C260.249 13.3875 260.016 13.4507 259.717 13.5024C259.424 13.5541 259.137 13.58 258.856 13.58C258.356 13.58 257.902 13.4938 257.494 13.3215C257.086 13.1434 256.759 12.8447 256.512 12.4253C256.271 12.006 256.15 11.4258 256.15 10.6847V5.08387H254.806V4.38591L256.159 3.82583L256.727 1.77505H257.589V3.96369H260.355V5.08387H257.589V10.6417C257.589 11.2333 257.724 11.6757 257.994 11.9686C258.27 12.2616 258.635 12.4081 259.088 12.4081Z" fill="#333333"/>
<path d="M253.005 3.96369V13.4076H251.575V3.96369H253.005ZM252.307 0.430836C252.542 0.430836 252.744 0.508387 252.91 0.663488C253.082 0.812845 253.169 1.04837 253.169 1.37006C253.169 1.68601 253.082 1.92153 252.91 2.07663C252.744 2.23173 252.542 2.30928 252.307 2.30928C252.06 2.30928 251.853 2.23173 251.687 2.07663C251.526 1.92153 251.445 1.68601 251.445 1.37006C251.445 1.04837 251.526 0.812845 251.687 0.663488C251.853 0.508387 252.06 0.430836 252.307 0.430836Z" fill="#333333"/>
<path d="M242.182 0V4.00678C242.182 4.23656 242.177 4.46921 242.165 4.70473C242.154 4.93451 242.133 5.14706 242.105 5.34237H242.2C242.395 5.00919 242.642 4.73058 242.941 4.50655C243.245 4.27677 243.59 4.10443 243.975 3.98954C244.359 3.86891 244.767 3.80859 245.198 3.80859C245.956 3.80859 246.588 3.92923 247.094 4.1705C247.605 4.41176 247.987 4.78516 248.24 5.29067C248.498 5.79619 248.628 6.45106 248.628 7.25528V13.4076H247.214V7.35007C247.214 6.56307 247.034 5.97426 246.672 5.58364C246.315 5.19301 245.767 4.9977 245.026 4.9977C244.325 4.9977 243.765 5.1327 243.346 5.40269C242.932 5.66693 242.633 6.05756 242.449 6.57456C242.271 7.09157 242.182 7.72346 242.182 8.47024V13.4076H240.752V0H242.182Z" fill="#333333"/>
<path d="M236.073 13.58C235.223 13.58 234.473 13.4048 233.824 13.0543C233.175 12.7039 232.669 12.1697 232.308 11.4516C231.946 10.7336 231.765 9.82881 231.765 8.73736C231.765 7.59421 231.954 6.66073 232.333 5.93693C232.718 5.20738 233.247 4.66739 233.919 4.31698C234.591 3.96657 235.355 3.79136 236.211 3.79136C236.682 3.79136 237.136 3.84019 237.572 3.93784C238.015 4.02976 238.377 4.14752 238.658 4.29113L238.227 5.48886C237.94 5.37397 237.607 5.27057 237.228 5.17865C236.854 5.08674 236.504 5.04079 236.176 5.04079C235.522 5.04079 234.976 5.18153 234.539 5.46301C234.108 5.74448 233.784 6.15809 233.566 6.70381C233.353 7.24954 233.247 7.92165 233.247 8.72013C233.247 9.48415 233.35 10.1361 233.557 10.6761C233.77 11.2161 234.083 11.6297 234.496 11.9169C234.916 12.1984 235.438 12.3392 236.064 12.3392C236.564 12.3392 237.015 12.2875 237.417 12.1841C237.819 12.0749 238.184 11.9485 238.512 11.8049V13.0802C238.196 13.241 237.842 13.3645 237.452 13.4507C237.067 13.5369 236.607 13.58 236.073 13.58Z" fill="#333333"/>
<path d="M229.361 3.79136C229.55 3.79136 229.748 3.80285 229.955 3.82583C230.162 3.84306 230.346 3.86891 230.507 3.90338L230.326 5.23035C230.171 5.19014 229.998 5.15855 229.809 5.13557C229.619 5.11259 229.441 5.1011 229.274 5.1011C228.895 5.1011 228.536 5.17865 228.197 5.33375C227.864 5.48311 227.571 5.7014 227.318 5.98863C227.066 6.27011 226.868 6.6119 226.724 7.01402C226.58 7.41039 226.508 7.85271 226.508 8.34099V13.4076H225.069V3.96369H226.259L226.414 5.70427H226.474C226.669 5.35386 226.905 5.03504 227.181 4.74782C227.456 4.45485 227.775 4.2222 228.137 4.04986C228.505 3.87753 228.913 3.79136 229.361 3.79136Z" fill="#333333"/>
<path d="M222.019 13.4076L220.468 9.40947H215.419L213.876 13.4076H212.394L217.323 0.758272H218.641L223.536 13.4076H222.019ZM220.029 8.10834L218.555 4.13603C218.521 4.03263 218.463 3.86317 218.383 3.62764C218.308 3.39212 218.231 3.14798 218.15 2.89522C218.07 2.64246 218.004 2.43853 217.952 2.28343C217.895 2.51896 217.831 2.75448 217.763 2.99C217.699 3.21978 217.636 3.4352 217.573 3.63626C217.51 3.83157 217.455 3.99816 217.409 4.13603L215.91 8.10834H220.029Z" fill="#333333"/>
<path d="M62.8246 162.992C61.6297 162.992 60.6819 162.584 59.981 161.768C59.286 160.952 58.9384 159.74 58.9384 158.132C58.9384 156.506 59.2946 155.28 60.0069 154.453C60.7192 153.62 61.667 153.203 62.8504 153.203C63.3502 153.203 63.7868 153.269 64.1601 153.401C64.5335 153.533 64.8552 153.712 65.1252 153.936C65.3952 154.154 65.6221 154.404 65.8059 154.685H65.9093C65.8864 154.507 65.8634 154.263 65.8404 153.953C65.8174 153.643 65.8059 153.39 65.8059 153.195V149.412H67.2363V162.819H66.0817L65.8663 161.475H65.8059C65.6279 161.757 65.401 162.012 65.1252 162.242C64.8552 162.472 64.5307 162.656 64.1515 162.794C63.7781 162.926 63.3358 162.992 62.8246 162.992ZM63.0486 161.803C64.0596 161.803 64.7748 161.515 65.1942 160.941C65.6135 160.366 65.8232 159.513 65.8232 158.382V158.123C65.8232 156.923 65.6221 156.001 65.22 155.357C64.8236 154.714 64.0998 154.392 63.0486 154.392C62.1697 154.392 61.5119 154.731 61.0754 155.409C60.6388 156.081 60.4205 157 60.4205 158.166C60.4205 159.327 60.6359 160.223 61.0667 160.855C61.5033 161.487 62.1639 161.803 63.0486 161.803Z" fill="#333333"/>
<path d="M53.1135 153.203C54.2337 153.203 55.081 153.479 55.6554 154.03C56.2299 154.576 56.5171 155.455 56.5171 156.667V162.819H55.104V156.762C55.104 155.975 54.923 155.386 54.5611 154.995C54.205 154.605 53.6564 154.409 52.9153 154.409C51.8698 154.409 51.1345 154.705 50.7094 155.297C50.2844 155.889 50.0718 156.747 50.0718 157.873V162.819H48.6414V153.375H49.7961L50.0115 154.737H50.089C50.2901 154.404 50.5457 154.125 50.8559 153.901C51.1661 153.671 51.5137 153.499 51.8985 153.384C52.2834 153.263 52.6884 153.203 53.1135 153.203Z" fill="#333333"/>
<path d="M42.3685 153.203C43.1727 153.203 43.862 153.381 44.4365 153.737C45.0109 154.094 45.4504 154.593 45.7548 155.237C46.0593 155.874 46.2115 156.621 46.2115 157.477V158.365H39.6886C39.7059 159.473 39.9816 160.318 40.5159 160.898C41.0501 161.478 41.8026 161.768 42.7734 161.768C43.3709 161.768 43.8994 161.714 44.3589 161.604C44.8185 161.495 45.2953 161.334 45.7893 161.122V162.38C45.3125 162.592 44.8386 162.748 44.3675 162.845C43.9022 162.943 43.3508 162.992 42.7131 162.992C41.8055 162.992 41.0127 162.808 40.3349 162.44C39.6628 162.067 39.14 161.521 38.7667 160.803C38.3933 160.085 38.2066 159.206 38.2066 158.166C38.2066 157.15 38.376 156.271 38.715 155.53C39.0596 154.783 39.5422 154.208 40.1626 153.806C40.7887 153.404 41.524 153.203 42.3685 153.203ZM42.3512 154.375C41.5872 154.375 40.9783 154.625 40.5245 155.125C40.0707 155.624 39.8007 156.322 39.7145 157.219H44.7122C44.7065 156.656 44.6174 156.162 44.4451 155.736C44.2785 155.306 44.0229 154.972 43.6782 154.737C43.3335 154.496 42.8912 154.375 42.3512 154.375Z" fill="#333333"/>
<path d="M30.8824 149.412V156.374C30.8824 156.604 30.8737 156.885 30.8565 157.219C30.8393 157.546 30.8249 157.836 30.8134 158.089H30.8737C30.9944 157.939 31.1696 157.718 31.3994 157.425C31.6349 157.132 31.8331 156.897 31.9939 156.719L35.1304 153.375H36.8107L33.0107 157.408L37.0864 162.819H35.363L32.0284 158.347L30.8824 159.399V162.819H29.4606V149.412H30.8824Z" fill="#333333"/>
<path d="M24.7817 162.992C23.9315 162.992 23.1819 162.817 22.5327 162.466C21.8836 162.116 21.3781 161.581 21.0162 160.863C20.6543 160.145 20.4733 159.241 20.4733 158.149C20.4733 157.006 20.6629 156.072 21.042 155.349C21.4269 154.619 21.9554 154.079 22.6275 153.729C23.2996 153.378 24.0636 153.203 24.9196 153.203C25.3906 153.203 25.8444 153.252 26.281 153.35C26.7233 153.442 27.0852 153.559 27.3667 153.703L26.9359 154.901C26.6487 154.786 26.3155 154.682 25.9363 154.59C25.563 154.499 25.2125 154.453 24.8851 154.453C24.2302 154.453 23.6845 154.593 23.2479 154.875C22.8171 155.156 22.4925 155.57 22.2742 156.116C22.0617 156.661 21.9554 157.333 21.9554 158.132C21.9554 158.896 22.0588 159.548 22.2656 160.088C22.4782 160.628 22.7912 161.041 23.2048 161.329C23.6242 161.61 24.1469 161.751 24.7731 161.751C25.2729 161.751 25.7238 161.699 26.1259 161.596C26.528 161.487 26.8928 161.36 27.2202 161.217V162.492C26.9043 162.653 26.551 162.776 26.1604 162.862C25.7755 162.949 25.3159 162.992 24.7817 162.992Z" fill="#333333"/>
<path d="M14.726 153.22C15.8519 153.22 16.6877 153.473 17.2335 153.979C17.7792 154.484 18.052 155.291 18.052 156.4V162.819H17.0094L16.7337 161.423H16.6648C16.4005 161.768 16.1248 162.058 15.8375 162.294C15.5503 162.524 15.2171 162.699 14.838 162.819C14.4646 162.934 14.0051 162.992 13.4593 162.992C12.8849 162.992 12.3736 162.891 11.9256 162.69C11.4832 162.489 11.1328 162.185 10.8743 161.777C10.6216 161.369 10.4952 160.852 10.4952 160.226C10.4952 159.284 10.8686 158.56 11.6153 158.054C12.3621 157.549 13.4995 157.273 15.0276 157.227L16.6561 157.158V156.581C16.6561 155.765 16.4809 155.194 16.1305 154.866C15.7801 154.539 15.2861 154.375 14.6484 154.375C14.1544 154.375 13.6834 154.447 13.2353 154.59C12.7872 154.734 12.3621 154.903 11.96 155.099L11.5206 154.013C11.9457 153.795 12.4339 153.608 12.9854 153.453C13.5369 153.298 14.1171 153.22 14.726 153.22ZM16.6389 158.166L15.1999 158.227C14.0223 158.273 13.1922 158.465 12.7097 158.804C12.2271 159.143 11.9859 159.623 11.9859 160.243C11.9859 160.783 12.1496 161.182 12.477 161.441C12.8045 161.699 13.2382 161.828 13.7781 161.828C14.6168 161.828 15.3033 161.596 15.8375 161.131C16.3718 160.665 16.6389 159.967 16.6389 159.037V158.166Z" fill="#333333"/>
<path d="M0 150.222H3.56733C5.14131 150.222 6.32468 150.457 7.11742 150.928C7.91016 151.399 8.30653 152.201 8.30653 153.332C8.30653 153.821 8.21174 154.26 8.02217 154.651C7.83835 155.036 7.56836 155.354 7.2122 155.607C6.85604 155.86 6.41659 156.035 5.89384 156.133V156.219C6.44531 156.305 6.93359 156.463 7.35869 156.693C7.78378 156.923 8.11696 157.244 8.35823 157.658C8.59949 158.072 8.72013 158.597 8.72013 159.235C8.72013 160.01 8.53918 160.665 8.17727 161.199C7.82112 161.734 7.3156 162.139 6.66073 162.414C6.00586 162.684 5.23035 162.819 4.33421 162.819H0V150.222ZM1.46484 155.624H3.87753C4.97472 155.624 5.733 155.443 6.15234 155.082C6.57744 154.72 6.78998 154.191 6.78998 153.496C6.78998 152.778 6.53722 152.261 6.03171 151.945C5.53194 151.629 4.73346 151.471 3.63626 151.471H1.46484V155.624ZM1.46484 156.857V161.57H4.08433C5.2045 161.57 5.99724 161.352 6.46255 160.915C6.92785 160.473 7.1605 159.878 7.1605 159.131C7.1605 158.655 7.05423 158.247 6.84168 157.908C6.63488 157.569 6.29596 157.31 5.82491 157.132C5.3596 156.949 4.73633 156.857 3.95508 156.857H1.46484Z" fill="#333333"/>
<path d="M517.355 162.403C516.16 162.403 515.212 161.996 514.511 161.18C513.816 160.364 513.469 159.152 513.469 157.544C513.469 155.918 513.825 154.692 514.537 153.864C515.249 153.031 516.197 152.615 517.38 152.615C517.88 152.615 518.317 152.681 518.69 152.813C519.064 152.945 519.385 153.123 519.655 153.347C519.925 153.566 520.152 153.815 520.336 154.097H520.439C520.416 153.919 520.393 153.675 520.37 153.365C520.348 153.054 520.336 152.802 520.336 152.606V148.824H521.766V162.231H520.612L520.396 160.887H520.336C520.158 161.168 519.931 161.424 519.655 161.654C519.385 161.884 519.061 162.067 518.682 162.205C518.308 162.337 517.866 162.403 517.355 162.403ZM517.579 161.214C518.59 161.214 519.305 160.927 519.724 160.353C520.144 159.778 520.353 158.925 520.353 157.794V157.535C520.353 156.334 520.152 155.412 519.75 154.769C519.354 154.126 518.63 153.804 517.579 153.804C516.7 153.804 516.042 154.143 515.605 154.821C515.169 155.493 514.951 156.412 514.951 157.578C514.951 158.738 515.166 159.635 515.597 160.267C516.033 160.898 516.694 161.214 517.579 161.214Z" fill="#333333"/>
<path d="M507.644 152.615C508.764 152.615 509.611 152.891 510.186 153.442C510.76 153.988 511.047 154.867 511.047 156.079V162.231H509.634V156.174C509.634 155.387 509.453 154.798 509.091 154.407C508.735 154.017 508.186 153.821 507.445 153.821C506.4 153.821 505.665 154.117 505.24 154.709C504.814 155.3 504.602 156.159 504.602 157.285V162.231H503.172V152.787H504.326L504.542 154.149H504.619C504.82 153.815 505.076 153.537 505.386 153.313C505.696 153.083 506.044 152.911 506.429 152.796C506.814 152.675 507.219 152.615 507.644 152.615Z" fill="#333333"/>
<path d="M496.899 152.615C497.703 152.615 498.392 152.793 498.967 153.149C499.541 153.505 499.98 154.005 500.285 154.648C500.589 155.286 500.742 156.033 500.742 156.889V157.776H494.219C494.236 158.885 494.512 159.729 495.046 160.31C495.58 160.89 496.333 161.18 497.303 161.18C497.901 161.18 498.429 161.125 498.889 161.016C499.349 160.907 499.825 160.746 500.319 160.534V161.792C499.843 162.004 499.369 162.159 498.898 162.257C498.432 162.355 497.881 162.403 497.243 162.403C496.336 162.403 495.543 162.22 494.865 161.852C494.193 161.479 493.67 160.933 493.297 160.215C492.923 159.497 492.737 158.618 492.737 157.578C492.737 156.561 492.906 155.682 493.245 154.941C493.59 154.195 494.072 153.62 494.693 153.218C495.319 152.816 496.054 152.615 496.899 152.615ZM496.881 153.787C496.117 153.787 495.508 154.037 495.055 154.536C494.601 155.036 494.331 155.734 494.245 156.63H499.242C499.237 156.067 499.147 155.573 498.975 155.148C498.809 154.717 498.553 154.384 498.208 154.149C497.864 153.907 497.421 153.787 496.881 153.787Z" fill="#333333"/>
<path d="M490.022 161.232C490.258 161.232 490.499 161.212 490.746 161.171C490.993 161.131 491.194 161.082 491.349 161.025V162.136C491.183 162.211 490.95 162.274 490.651 162.326C490.358 162.378 490.071 162.403 489.79 162.403C489.29 162.403 488.836 162.317 488.428 162.145C488.02 161.967 487.693 161.668 487.446 161.249C487.205 160.829 487.084 160.249 487.084 159.508V153.907H485.74V153.209L487.093 152.649L487.661 150.599H488.523V152.787H491.289V153.907H488.523V159.465C488.523 160.057 488.658 160.499 488.928 160.792C489.204 161.085 489.569 161.232 490.022 161.232Z" fill="#333333"/>
<path d="M480.622 152.615C481.742 152.615 482.589 152.891 483.163 153.442C483.738 153.988 484.025 154.867 484.025 156.079V162.231H482.612V156.174C482.612 155.387 482.431 154.798 482.069 154.407C481.713 154.017 481.164 153.821 480.423 153.821C479.378 153.821 478.643 154.117 478.217 154.709C477.792 155.3 477.58 156.159 477.58 157.285V162.231H476.149V152.787H477.304L477.52 154.149H477.597C477.798 153.815 478.054 153.537 478.364 153.313C478.674 153.083 479.022 152.911 479.407 152.796C479.791 152.675 480.196 152.615 480.622 152.615Z" fill="#333333"/>
<path d="M473.676 157.492C473.676 158.267 473.576 158.96 473.375 159.569C473.174 160.177 472.884 160.692 472.505 161.111C472.125 161.53 471.666 161.852 471.126 162.076C470.592 162.294 469.986 162.403 469.308 162.403C468.676 162.403 468.096 162.294 467.567 162.076C467.044 161.852 466.591 161.53 466.206 161.111C465.827 160.692 465.531 160.177 465.318 159.569C465.111 158.96 465.008 158.267 465.008 157.492C465.008 156.458 465.183 155.579 465.534 154.855C465.884 154.126 466.384 153.571 467.033 153.192C467.688 152.807 468.466 152.615 469.368 152.615C470.23 152.615 470.982 152.807 471.626 153.192C472.275 153.577 472.777 154.134 473.134 154.864C473.495 155.588 473.676 156.464 473.676 157.492ZM466.49 157.492C466.49 158.25 466.591 158.908 466.792 159.465C466.993 160.022 467.303 160.453 467.722 160.758C468.142 161.062 468.682 161.214 469.342 161.214C469.997 161.214 470.534 161.062 470.954 160.758C471.379 160.453 471.692 160.022 471.893 159.465C472.094 158.908 472.194 158.25 472.194 157.492C472.194 156.739 472.094 156.09 471.893 155.545C471.692 154.993 471.382 154.568 470.962 154.269C470.543 153.971 470 153.821 469.334 153.821C468.351 153.821 467.63 154.146 467.171 154.795C466.717 155.444 466.49 156.343 466.49 157.492Z" fill="#333333"/>
<path d="M462.604 152.615C462.794 152.615 462.992 152.626 463.199 152.649C463.405 152.667 463.589 152.692 463.75 152.727L463.569 154.054C463.414 154.014 463.242 153.982 463.052 153.959C462.862 153.936 462.684 153.925 462.518 153.925C462.139 153.925 461.78 154.002 461.441 154.157C461.108 154.307 460.815 154.525 460.562 154.812C460.309 155.094 460.111 155.435 459.967 155.838C459.824 156.234 459.752 156.676 459.752 157.165V162.231H458.313V152.787H459.502L459.657 154.528H459.717C459.913 154.177 460.148 153.859 460.424 153.571C460.7 153.278 461.018 153.046 461.38 152.873C461.748 152.701 462.156 152.615 462.604 152.615Z" fill="#333333"/>
<path d="M450.877 162.231H449.412V149.633H456.426V150.926H450.877V155.545H456.09V156.828H450.877V162.231Z" fill="#333333"/>
<path d="M441.971 393.176C441.971 393.779 441.819 394.287 441.515 394.701C441.216 395.109 440.785 395.416 440.222 395.623C439.665 395.829 438.999 395.933 438.223 395.933C437.563 395.933 436.991 395.881 436.508 395.778C436.026 395.674 435.604 395.528 435.242 395.338V394.02C435.627 394.21 436.086 394.382 436.62 394.537C437.155 394.692 437.7 394.77 438.258 394.77C439.073 394.77 439.665 394.638 440.033 394.373C440.4 394.109 440.584 393.75 440.584 393.296C440.584 393.038 440.509 392.811 440.36 392.615C440.217 392.414 439.972 392.222 439.628 392.038C439.283 391.849 438.806 391.642 438.197 391.418C437.594 391.188 437.071 390.961 436.629 390.737C436.193 390.507 435.854 390.229 435.612 389.901C435.377 389.574 435.259 389.149 435.259 388.626C435.259 387.827 435.581 387.216 436.224 386.791C436.873 386.36 437.723 386.144 438.775 386.144C439.343 386.144 439.875 386.202 440.369 386.317C440.869 386.426 441.334 386.575 441.765 386.765L441.282 387.911C440.892 387.744 440.475 387.603 440.033 387.488C439.59 387.374 439.139 387.316 438.68 387.316C438.019 387.316 437.511 387.425 437.155 387.644C436.804 387.862 436.629 388.161 436.629 388.54C436.629 388.833 436.71 389.074 436.87 389.264C437.037 389.453 437.301 389.631 437.663 389.798C438.025 389.964 438.502 390.16 439.094 390.384C439.685 390.602 440.196 390.829 440.627 391.064C441.058 391.294 441.388 391.576 441.618 391.909C441.854 392.236 441.971 392.659 441.971 393.176Z" fill="#333333"/>
<path d="M429.494 386.144C430.672 386.144 431.611 386.549 432.312 387.359C433.013 388.169 433.363 389.387 433.363 391.013C433.363 392.087 433.203 392.989 432.881 393.718C432.559 394.448 432.105 394.999 431.519 395.373C430.939 395.746 430.253 395.933 429.46 395.933C428.96 395.933 428.521 395.867 428.142 395.735C427.762 395.603 427.438 395.424 427.168 395.2C426.898 394.976 426.674 394.732 426.496 394.468H426.392C426.41 394.692 426.43 394.962 426.453 395.278C426.481 395.594 426.496 395.87 426.496 396.105V399.983H425.057V386.317H426.237L426.427 387.713H426.496C426.68 387.425 426.904 387.164 427.168 386.928C427.432 386.687 427.754 386.498 428.133 386.36C428.518 386.216 428.972 386.144 429.494 386.144ZM429.245 387.351C428.59 387.351 428.061 387.477 427.659 387.73C427.263 387.983 426.973 388.362 426.789 388.867C426.605 389.367 426.507 389.996 426.496 390.754V391.03C426.496 391.828 426.582 392.503 426.754 393.055C426.932 393.606 427.223 394.026 427.625 394.313C428.033 394.6 428.578 394.744 429.262 394.744C429.848 394.744 430.336 394.586 430.727 394.27C431.117 393.954 431.407 393.514 431.597 392.952C431.792 392.383 431.89 391.731 431.89 390.996C431.89 389.881 431.672 388.996 431.235 388.342C430.804 387.681 430.141 387.351 429.245 387.351Z" fill="#333333"/>
<path d="M422.463 389.444C422.463 390.415 422.34 391.3 422.093 392.098C421.846 392.891 421.478 393.575 420.99 394.149C420.507 394.718 419.907 395.157 419.189 395.468C418.471 395.778 417.638 395.933 416.69 395.933C415.713 395.933 414.86 395.778 414.131 395.468C413.407 395.157 412.804 394.715 412.321 394.141C411.845 393.566 411.486 392.88 411.244 392.081C411.009 391.283 410.891 390.398 410.891 389.427C410.891 388.141 411.104 387.012 411.529 386.041C411.954 385.07 412.597 384.315 413.459 383.775C414.326 383.235 415.412 382.965 416.716 382.965C417.962 382.965 419.011 383.232 419.861 383.766C420.717 384.3 421.363 385.053 421.8 386.024C422.242 386.989 422.463 388.129 422.463 389.444ZM412.433 389.444C412.433 390.513 412.586 391.438 412.89 392.219C413.194 393 413.66 393.604 414.286 394.029C414.918 394.454 415.719 394.666 416.69 394.666C417.667 394.666 418.465 394.454 419.085 394.029C419.712 393.604 420.174 393 420.473 392.219C420.771 391.438 420.921 390.513 420.921 389.444C420.921 387.819 420.579 386.549 419.895 385.636C419.218 384.717 418.158 384.257 416.716 384.257C415.739 384.257 414.935 384.467 414.303 384.886C413.671 385.306 413.2 385.903 412.89 386.679C412.586 387.448 412.433 388.37 412.433 389.444Z" fill="#333333"/>
<path d="M404.575 395.761L400.99 386.317H402.524L404.601 392.03C404.744 392.42 404.891 392.851 405.04 393.322C405.19 393.793 405.293 394.172 405.35 394.459H405.411C405.48 394.172 405.595 393.793 405.755 393.322C405.916 392.845 406.063 392.414 406.195 392.03L408.271 386.317H409.805L406.212 395.761H404.575Z" fill="#333333"/>
<path d="M396.225 386.144C397.03 386.144 397.719 386.322 398.293 386.679C398.868 387.035 399.307 387.534 399.612 388.178C399.916 388.815 400.068 389.562 400.068 390.418V391.306H393.545C393.563 392.414 393.838 393.259 394.373 393.839C394.907 394.419 395.659 394.709 396.63 394.709C397.228 394.709 397.756 394.655 398.216 394.546C398.675 394.436 399.152 394.276 399.646 394.063V395.321C399.169 395.534 398.695 395.689 398.224 395.786C397.759 395.884 397.208 395.933 396.57 395.933C395.662 395.933 394.87 395.749 394.192 395.381C393.52 395.008 392.997 394.462 392.623 393.744C392.25 393.026 392.063 392.147 392.063 391.108C392.063 390.091 392.233 389.212 392.572 388.471C392.916 387.724 393.399 387.15 394.019 386.747C394.646 386.345 395.381 386.144 396.225 386.144ZM396.208 387.316C395.444 387.316 394.835 387.566 394.381 388.066C393.927 388.566 393.658 389.264 393.571 390.16H398.569C398.563 389.597 398.474 389.103 398.302 388.678C398.135 388.247 397.88 387.914 397.535 387.678C397.19 387.437 396.748 387.316 396.208 387.316Z" fill="#333333"/>
<path d="M390.004 389.341C390.004 390.76 389.745 391.946 389.228 392.9C388.711 393.848 387.962 394.563 386.98 395.045C386.003 395.522 384.817 395.761 383.421 395.761H380V383.163H383.8C385.081 383.163 386.184 383.398 387.109 383.869C388.034 384.335 388.746 385.027 389.246 385.946C389.751 386.859 390.004 387.991 390.004 389.341ZM388.462 389.393C388.462 388.261 388.272 387.328 387.893 386.592C387.52 385.857 386.968 385.311 386.238 384.955C385.515 384.593 384.627 384.412 383.576 384.412H381.465V394.503H383.248C384.983 394.503 386.284 394.075 387.152 393.219C388.025 392.363 388.462 391.087 388.462 389.393Z" fill="#333333"/>
<path d="M139.683 400C138.443 400 137.486 399.767 136.814 399.302C136.142 398.842 135.806 398.196 135.806 397.363C135.806 396.772 135.993 396.266 136.366 395.847C136.745 395.427 137.268 395.149 137.934 395.011C137.687 394.896 137.475 394.724 137.297 394.494C137.124 394.264 137.038 394 137.038 393.701C137.038 393.357 137.133 393.055 137.322 392.796C137.518 392.532 137.814 392.279 138.21 392.038C137.716 391.837 137.314 391.498 137.004 391.021C136.699 390.539 136.547 389.979 136.547 389.341C136.547 388.663 136.688 388.086 136.969 387.609C137.251 387.127 137.659 386.759 138.193 386.506C138.727 386.253 139.373 386.127 140.132 386.127C140.298 386.127 140.465 386.136 140.631 386.153C140.804 386.164 140.967 386.185 141.122 386.213C141.278 386.236 141.413 386.265 141.527 386.299H144.767V387.221L143.027 387.437C143.199 387.661 143.343 387.931 143.458 388.247C143.572 388.563 143.63 388.913 143.63 389.298C143.63 390.24 143.311 390.99 142.673 391.547C142.036 392.098 141.16 392.374 140.045 392.374C139.781 392.374 139.511 392.351 139.235 392.305C138.954 392.46 138.738 392.633 138.589 392.822C138.446 393.012 138.374 393.23 138.374 393.477C138.374 393.661 138.428 393.807 138.537 393.917C138.652 394.026 138.816 394.106 139.029 394.158C139.241 394.204 139.497 394.227 139.795 394.227H141.459C142.487 394.227 143.274 394.442 143.82 394.873C144.371 395.304 144.647 395.933 144.647 396.76C144.647 397.806 144.222 398.607 143.371 399.164C142.521 399.721 141.292 400 139.683 400ZM139.727 398.88C140.508 398.88 141.154 398.799 141.665 398.639C142.182 398.483 142.567 398.257 142.82 397.958C143.078 397.665 143.208 397.314 143.208 396.907C143.208 396.527 143.122 396.24 142.949 396.045C142.777 395.855 142.524 395.729 142.191 395.666C141.858 395.597 141.45 395.562 140.967 395.562H139.33C138.905 395.562 138.535 395.628 138.219 395.761C137.903 395.893 137.659 396.088 137.486 396.346C137.32 396.605 137.236 396.927 137.236 397.312C137.236 397.823 137.452 398.211 137.883 398.475C138.313 398.745 138.928 398.88 139.727 398.88ZM140.097 391.332C140.781 391.332 141.295 391.159 141.639 390.815C141.984 390.47 142.156 389.967 142.156 389.307C142.156 388.6 141.981 388.072 141.631 387.721C141.28 387.365 140.763 387.187 140.08 387.187C139.425 387.187 138.919 387.371 138.563 387.738C138.213 388.1 138.038 388.632 138.038 389.332C138.038 389.976 138.216 390.47 138.572 390.815C138.928 391.159 139.436 391.332 140.097 391.332Z" fill="#333333"/>
<path d="M130.696 386.144C131.816 386.144 132.664 386.42 133.238 386.971C133.813 387.517 134.1 388.396 134.1 389.608V395.761H132.687V389.703C132.687 388.916 132.506 388.327 132.144 387.937C131.788 387.546 131.239 387.351 130.498 387.351C129.453 387.351 128.717 387.646 128.292 388.238C127.867 388.83 127.655 389.689 127.655 390.815V395.761H126.224V386.317H127.379L127.594 387.678H127.672C127.873 387.345 128.128 387.066 128.439 386.842C128.749 386.612 129.096 386.44 129.481 386.325C129.866 386.205 130.271 386.144 130.696 386.144Z" fill="#333333"/>
<path d="M123.191 386.317V395.761H121.761V386.317H123.191ZM122.493 382.784C122.729 382.784 122.93 382.861 123.096 383.016C123.269 383.166 123.355 383.401 123.355 383.723C123.355 384.039 123.269 384.274 123.096 384.43C122.93 384.585 122.729 384.662 122.493 384.662C122.246 384.662 122.039 384.585 121.873 384.43C121.712 384.274 121.631 384.039 121.631 383.723C121.631 383.401 121.712 383.166 121.873 383.016C122.039 382.861 122.246 382.784 122.493 382.784Z" fill="#333333"/>
<path d="M118.521 394.761C118.756 394.761 118.998 394.741 119.245 394.701C119.492 394.66 119.693 394.612 119.848 394.554V395.666C119.681 395.74 119.449 395.804 119.15 395.855C118.857 395.907 118.57 395.933 118.288 395.933C117.788 395.933 117.335 395.847 116.927 395.674C116.519 395.496 116.191 395.198 115.944 394.778C115.703 394.359 115.582 393.779 115.582 393.038V387.437H114.238V386.739L115.591 386.179L116.16 384.128H117.021V386.317H119.787V387.437H117.021V392.995C117.021 393.586 117.156 394.029 117.426 394.322C117.702 394.615 118.067 394.761 118.521 394.761Z" fill="#333333"/>
<path d="M113.17 393.176C113.17 393.779 113.018 394.287 112.713 394.701C112.414 395.109 111.984 395.416 111.421 395.623C110.863 395.829 110.197 395.933 109.422 395.933C108.761 395.933 108.189 395.881 107.707 395.778C107.224 395.674 106.802 395.528 106.44 395.338V394.02C106.825 394.21 107.285 394.382 107.819 394.537C108.353 394.692 108.899 394.77 109.456 394.77C110.272 394.77 110.863 394.638 111.231 394.373C111.599 394.109 111.783 393.75 111.783 393.296C111.783 393.038 111.708 392.811 111.558 392.615C111.415 392.414 111.171 392.222 110.826 392.038C110.481 391.849 110.005 391.642 109.396 391.418C108.793 391.188 108.27 390.961 107.827 390.737C107.391 390.507 107.052 390.229 106.811 389.901C106.575 389.574 106.457 389.149 106.457 388.626C106.457 387.827 106.779 387.216 107.422 386.791C108.072 386.36 108.922 386.144 109.973 386.144C110.542 386.144 111.073 386.202 111.567 386.317C112.067 386.426 112.532 386.575 112.963 386.765L112.48 387.911C112.09 387.744 111.673 387.603 111.231 387.488C110.789 387.374 110.338 387.316 109.878 387.316C109.218 387.316 108.709 387.425 108.353 387.644C108.003 387.862 107.827 388.161 107.827 388.54C107.827 388.833 107.908 389.074 108.069 389.264C108.235 389.453 108.5 389.631 108.861 389.798C109.223 389.964 109.7 390.16 110.292 390.384C110.883 390.602 111.395 390.829 111.826 391.064C112.256 391.294 112.587 391.576 112.817 391.909C113.052 392.236 113.17 392.659 113.17 393.176Z" fill="#333333"/>
<path d="M100.788 386.144C101.592 386.144 102.281 386.322 102.856 386.679C103.43 387.035 103.869 387.534 104.174 388.178C104.478 388.815 104.631 389.562 104.631 390.418V391.306H98.1078C98.125 392.414 98.4007 393.259 98.935 393.839C99.4692 394.419 100.222 394.709 101.193 394.709C101.79 394.709 102.318 394.655 102.778 394.546C103.238 394.436 103.714 394.276 104.208 394.063V395.321C103.732 395.534 103.258 395.689 102.787 395.786C102.321 395.884 101.77 395.933 101.132 395.933C100.225 395.933 99.4319 395.749 98.754 395.381C98.0819 395.008 97.5592 394.462 97.1858 393.744C96.8124 393.026 96.6257 392.147 96.6257 391.108C96.6257 390.091 96.7951 389.212 97.1341 388.471C97.4787 387.724 97.9613 387.15 98.5817 386.747C99.2078 386.345 99.9431 386.144 100.788 386.144ZM100.77 387.316C100.006 387.316 99.3974 387.566 98.9436 388.066C98.4898 388.566 98.2198 389.264 98.1336 390.16H103.131C103.126 389.597 103.037 389.103 102.864 388.678C102.698 388.247 102.442 387.914 102.097 387.678C101.753 387.437 101.31 387.316 100.77 387.316Z" fill="#333333"/>
<path d="M91.516 395.761H90.0425V384.455H86.0788V383.163H95.4624V384.455H91.516V395.761Z" fill="#333333"/>
<path d="M96.2178 164.29L258.571 57.5253L359.159 183.996L321.218 303.113L163.865 347.525L96.2178 164.29Z" fill="#1E3A8A" fill-opacity="0.5"/>
<path fill-rule="evenodd" clip-rule="evenodd" d="M258.634 57.1319L359.487 183.936L321.45 303.354L163.683 347.882L95.861 164.173L258.634 57.1319ZM96.5747 164.407L164.047 347.168L320.986 302.873L358.831 184.056L258.508 57.9187L96.5747 164.407Z" fill="#1E3A8A"/>
<path fill-rule="evenodd" clip-rule="evenodd" d="M258.571 39.8084L426.563 162.413L362.608 360.173L154.533 359.878L90.5783 162.119L258.571 39.8084ZM91.2692 162.343L154.961 359.29L362.18 359.584L425.872 162.637L258.571 40.5363L91.2692 162.343ZM258.571 75.1022L393.033 173.295L342.02 331.938L175.416 331.348L124.108 173.296L258.571 75.1022ZM124.799 173.519L175.844 330.761L341.592 331.348L392.343 173.52L258.571 75.8306L124.799 173.519ZM258.571 110.396L359.504 184.178L321.138 303.114L196.004 302.819L157.637 184.178L258.571 110.396ZM158.328 184.402L196.432 302.232L320.71 302.525L358.814 184.402L258.571 111.125L158.328 184.402ZM258.571 145.69L325.974 195.06L300.55 274.585L216.886 274.289L191.167 195.061L258.571 145.69ZM191.857 195.284L217.314 273.702L300.121 273.995L325.285 195.284L258.571 146.419L191.857 195.284ZM258.572 180.983L292.149 205.943L279.669 246.056L237.473 245.759L224.697 205.943L258.572 180.983ZM225.386 206.166L237.903 245.174L279.237 245.465L291.463 206.166L258.57 181.715L225.386 206.166Z" fill="#6B7280"/>
</svg>
