<svg width="442" height="300" viewBox="0 0 442 300" fill="none" xmlns="http://www.w3.org/2000/svg">
<path d="M270.415 4.3697C271.342 4.3697 272.136 4.57495 272.798 4.98543C273.46 5.39592 273.967 5.97193 274.318 6.71345C274.669 7.44836 274.844 8.30906 274.844 9.29555V10.3185H267.326C267.346 11.5963 267.664 12.5695 268.28 13.2382C268.895 13.9069 269.763 14.2413 270.881 14.2413C271.57 14.2413 272.179 14.1784 272.709 14.0526C273.238 13.9268 273.788 13.7414 274.357 13.4964V14.9464C273.808 15.1913 273.262 15.3701 272.719 15.4827C272.182 15.5952 271.547 15.6515 270.812 15.6515C269.766 15.6515 268.852 15.4396 268.071 15.0159C267.296 14.5855 266.694 13.9566 266.264 13.129C265.833 12.3014 265.618 11.2884 265.618 10.09C265.618 8.91817 265.813 7.90519 266.204 7.05111C266.601 6.19041 267.157 5.52834 267.872 5.06488C268.594 4.60143 269.441 4.3697 270.415 4.3697ZM270.395 5.72034C269.514 5.72034 268.813 6.00834 268.289 6.58435C267.766 7.16036 267.455 7.96478 267.356 8.99762H273.116C273.109 8.34878 273.007 7.7794 272.808 7.28946C272.616 6.7929 272.321 6.4089 271.924 6.13745C271.527 5.85938 271.017 5.72034 270.395 5.72034Z" fill="black"/>
<path d="M262.847 4.3697C263.066 4.3697 263.294 4.38295 263.532 4.40943C263.771 4.42929 263.983 4.45908 264.168 4.49881L263.959 6.0282C263.781 5.98186 263.582 5.94545 263.364 5.91896C263.145 5.89248 262.94 5.87924 262.748 5.87924C262.311 5.87924 261.897 5.96862 261.506 6.14738C261.122 6.31952 260.785 6.57111 260.494 6.90215C260.202 7.22656 259.974 7.6205 259.808 8.08395C259.643 8.54078 259.56 9.05058 259.56 9.61335V15.4529H257.901V4.56833H259.272L259.451 6.57442H259.52C259.745 6.17055 260.017 5.8031 260.335 5.47206C260.652 5.1344 261.02 4.86626 261.437 4.66764C261.861 4.46901 262.331 4.3697 262.847 4.3697Z" fill="black"/>
<path d="M254.416 4.56833V15.4529H253.065L252.827 13.9235H252.737C252.512 14.3008 252.221 14.6186 251.863 14.8769C251.506 15.1351 251.102 15.3271 250.652 15.4529C250.208 15.5853 249.735 15.6515 249.232 15.6515C248.371 15.6515 247.649 15.5124 247.067 15.2344C246.484 14.9563 246.044 14.526 245.746 13.9433C245.454 13.3607 245.309 12.6126 245.309 11.6989V4.56833H246.977V11.5797C246.977 12.4868 247.183 13.1654 247.593 13.6156C248.003 14.0592 248.629 14.281 249.47 14.281C250.278 14.281 250.92 14.1287 251.397 13.8242C251.88 13.5196 252.228 13.0727 252.439 12.4834C252.651 11.8876 252.757 11.1593 252.757 10.2986V4.56833H254.416Z" fill="black"/>
<path d="M241.694 14.3008C241.965 14.3008 242.243 14.2777 242.528 14.2313C242.813 14.185 243.045 14.1287 243.223 14.0625V15.3436C243.031 15.4297 242.763 15.5025 242.419 15.5621C242.081 15.6217 241.75 15.6515 241.426 15.6515C240.85 15.6515 240.327 15.5522 239.857 15.3535C239.387 15.1483 239.009 14.804 238.724 14.3207C238.446 13.8374 238.307 13.1687 238.307 12.3146V5.85938H236.758V5.05495L238.317 4.40943L238.973 2.04582H239.966V4.56833H243.154V5.85938H239.966V12.265C239.966 12.9469 240.121 13.4567 240.433 13.7944C240.75 14.132 241.171 14.3008 241.694 14.3008Z" fill="black"/>
<path d="M232.786 15.6515C231.806 15.6515 230.942 15.4496 230.194 15.0457C229.446 14.6418 228.863 14.0261 228.446 13.1985C228.029 12.3709 227.82 11.3281 227.82 10.0702C227.82 8.75265 228.039 7.67677 228.476 6.84256C228.919 6.00172 229.528 5.37937 230.303 4.9755C231.078 4.57164 231.958 4.3697 232.945 4.3697C233.487 4.3697 234.011 4.42598 234.514 4.53853C235.023 4.64447 235.441 4.78019 235.765 4.94571L235.268 6.32614C234.937 6.19372 234.553 6.07455 234.116 5.96862C233.686 5.86269 233.282 5.80972 232.905 5.80972C232.15 5.80972 231.521 5.97193 231.018 6.29635C230.521 6.62076 230.147 7.09746 229.896 7.72643C229.651 8.3554 229.528 9.13003 229.528 10.0503C229.528 10.9309 229.647 11.6823 229.886 12.3047C230.131 12.927 230.492 13.4037 230.968 13.7348C231.452 14.0592 232.054 14.2214 232.776 14.2214C233.352 14.2214 233.871 14.1618 234.335 14.0426C234.798 13.9168 235.219 13.7712 235.596 13.6057V15.0755C235.232 15.2609 234.825 15.4032 234.375 15.5025C233.931 15.6018 233.401 15.6515 232.786 15.6515Z" fill="black"/>
<path d="M221.196 4.3697C222.123 4.3697 222.917 4.57495 223.58 4.98543C224.242 5.39592 224.748 5.97193 225.099 6.71345C225.45 7.44836 225.625 8.30906 225.625 9.29555V10.3185H218.107C218.127 11.5963 218.445 12.5695 219.061 13.2382C219.677 13.9069 220.544 14.2413 221.663 14.2413C222.351 14.2413 222.96 14.1784 223.49 14.0526C224.02 13.9268 224.569 13.7414 225.139 13.4964V14.9464C224.589 15.1913 224.043 15.3701 223.5 15.4827C222.964 15.5952 222.328 15.6515 221.593 15.6515C220.547 15.6515 219.634 15.4396 218.852 15.0159C218.078 14.5855 217.475 13.9566 217.045 13.129C216.614 12.3014 216.399 11.2884 216.399 10.09C216.399 8.91817 216.595 7.90519 216.985 7.05111C217.382 6.19041 217.939 5.52834 218.654 5.06488C219.375 4.60143 220.223 4.3697 221.196 4.3697ZM221.176 5.72034C220.296 5.72034 219.594 6.00834 219.071 6.58435C218.548 7.16036 218.237 7.96478 218.137 8.99762H223.897C223.891 8.34878 223.788 7.7794 223.589 7.28946C223.397 6.7929 223.103 6.4089 222.706 6.13745C222.308 5.85938 221.799 5.72034 221.176 5.72034Z" fill="black"/>
<path d="M213.271 14.3008C213.542 14.3008 213.821 14.2777 214.105 14.2313C214.39 14.185 214.622 14.1287 214.8 14.0625V15.3436C214.608 15.4297 214.34 15.5025 213.996 15.5621C213.658 15.6217 213.327 15.6515 213.003 15.6515C212.427 15.6515 211.904 15.5522 211.434 15.3535C210.964 15.1483 210.586 14.804 210.302 14.3207C210.024 13.8374 209.884 13.1687 209.884 12.3146V5.85938H208.335V5.05495L209.894 4.40943L210.55 2.04582H211.543V4.56833H214.731V5.85938H211.543V12.265C211.543 12.9469 211.699 13.4567 212.01 13.7944C212.328 14.132 212.748 14.3008 213.271 14.3008Z" fill="black"/>
<path d="M206.26 4.56833V15.4529H204.611V4.56833H206.26ZM205.455 0.496557C205.727 0.496557 205.958 0.585938 206.15 0.764698C206.349 0.936838 206.448 1.20829 206.448 1.57905C206.448 1.94319 206.349 2.21465 206.15 2.39341C205.958 2.57217 205.727 2.66155 205.455 2.66155C205.171 2.66155 204.932 2.57217 204.74 2.39341C204.555 2.21465 204.462 1.94319 204.462 1.57905C204.462 1.20829 204.555 0.936838 204.74 0.764698C204.932 0.585938 205.171 0.496557 205.455 0.496557Z" fill="black"/>
<path d="M193.786 0V4.61798C193.786 4.88281 193.78 5.15095 193.766 5.4224C193.753 5.68724 193.73 5.9322 193.697 6.15731H193.806C194.031 5.77331 194.316 5.4522 194.66 5.19399C195.011 4.92916 195.408 4.73054 195.852 4.59812C196.295 4.45908 196.765 4.38957 197.262 4.38957C198.136 4.38957 198.864 4.5286 199.447 4.80667C200.036 5.08475 200.476 5.5151 200.768 6.09772C201.066 6.68035 201.215 7.43512 201.215 8.36202V15.4529H199.586V8.47127C199.586 7.56422 199.377 6.88559 198.96 6.43538C198.55 5.98517 197.917 5.76006 197.063 5.76006C196.256 5.76006 195.61 5.91565 195.127 6.22683C194.65 6.53138 194.306 6.98159 194.094 7.57746C193.889 8.17333 193.786 8.90162 193.786 9.76231V15.4529H192.138V0H193.786Z" fill="black"/>
<path d="M186.745 15.6515C185.765 15.6515 184.901 15.4496 184.153 15.0457C183.405 14.6418 182.822 14.0261 182.405 13.1985C181.988 12.3709 181.779 11.3281 181.779 10.0702C181.779 8.75265 181.998 7.67677 182.435 6.84256C182.878 6.00172 183.488 5.37937 184.262 4.9755C185.037 4.57164 185.917 4.3697 186.904 4.3697C187.447 4.3697 187.97 4.42598 188.473 4.53853C188.983 4.64447 189.4 4.78019 189.724 4.94571L189.228 6.32614C188.897 6.19372 188.513 6.07455 188.076 5.96862C187.645 5.86269 187.242 5.80972 186.864 5.80972C186.109 5.80972 185.48 5.97193 184.977 6.29635C184.481 6.62076 184.107 7.09746 183.855 7.72643C183.61 8.3554 183.488 9.13003 183.488 10.0503C183.488 10.9309 183.607 11.6823 183.845 12.3047C184.09 12.927 184.451 13.4037 184.928 13.7348C185.411 14.0592 186.013 14.2214 186.735 14.2214C187.311 14.2214 187.831 14.1618 188.294 14.0426C188.758 13.9168 189.178 13.7712 189.555 13.6057V15.0755C189.191 15.2609 188.784 15.4032 188.334 15.5025C187.89 15.6018 187.361 15.6515 186.745 15.6515Z" fill="black"/>
<path d="M179.009 4.3697C179.227 4.3697 179.456 4.38295 179.694 4.40943C179.932 4.42929 180.144 4.45908 180.329 4.49881L180.121 6.0282C179.942 5.98186 179.744 5.94545 179.525 5.91896C179.307 5.89248 179.101 5.87924 178.909 5.87924C178.472 5.87924 178.059 5.96862 177.668 6.14738C177.284 6.31952 176.946 6.57111 176.655 6.90215C176.364 7.22656 176.135 7.6205 175.97 8.08395C175.804 8.54078 175.721 9.05058 175.721 9.61335V15.4529H174.063V4.56833H175.433L175.612 6.57442H175.682C175.907 6.17055 176.178 5.8031 176.496 5.47206C176.814 5.1344 177.181 4.86626 177.598 4.66764C178.022 4.46901 178.492 4.3697 179.009 4.3697Z" fill="black"/>
<path d="M170.547 15.4529L168.76 10.8448H162.94L161.162 15.4529H159.454L165.135 0.873941H166.654L172.295 15.4529H170.547ZM168.253 9.34521L166.555 4.76695C166.515 4.64778 166.449 4.45246 166.356 4.18101C166.27 3.90956 166.181 3.62818 166.088 3.33686C165.996 3.04555 165.919 2.81051 165.86 2.63175C165.794 2.9032 165.721 3.17466 165.641 3.44611C165.568 3.71094 165.496 3.95922 165.423 4.19094C165.35 4.41605 165.287 4.60805 165.234 4.76695L163.506 9.34521H168.253Z" fill="black"/>
<path d="M72.4079 123.702C71.0307 123.702 69.9383 123.232 69.1306 122.292C68.3295 121.352 67.9289 119.955 67.9289 118.101C67.9289 116.227 68.3394 114.814 69.1604 113.861C69.9814 112.901 71.0738 112.421 72.4377 112.421C73.0137 112.421 73.5168 112.497 73.9472 112.649C74.3775 112.801 74.7483 113.006 75.0595 113.265C75.3707 113.516 75.6322 113.804 75.844 114.129H75.9632C75.9367 113.923 75.9102 113.642 75.8838 113.285C75.8573 112.927 75.844 112.636 75.844 112.411V108.051H77.4926V123.504H76.1618L75.9136 121.954H75.844C75.6388 122.279 75.3773 122.573 75.0595 122.838C74.7483 123.103 74.3742 123.315 73.9373 123.474C73.5069 123.626 72.9971 123.702 72.4079 123.702ZM72.6661 122.332C73.8313 122.332 74.6556 122.001 75.1389 121.339C75.6222 120.677 75.8639 119.693 75.8639 118.389V118.091C75.8639 116.707 75.6322 115.645 75.1687 114.903C74.7119 114.162 73.8777 113.791 72.6661 113.791C71.6531 113.791 70.895 114.182 70.3918 114.963C69.8887 115.738 69.6371 116.797 69.6371 118.141C69.6371 119.478 69.8854 120.511 70.3819 121.239C70.8851 121.968 71.6465 122.332 72.6661 122.332Z" fill="black"/>
<path d="M61.2155 112.421C62.5065 112.421 63.4831 112.738 64.1452 113.374C64.8072 114.003 65.1383 115.016 65.1383 116.413V123.504H63.5096V116.522C63.5096 115.615 63.301 114.936 62.8839 114.486C62.4734 114.036 61.8411 113.811 60.9871 113.811C59.7821 113.811 58.9346 114.152 58.4447 114.834C57.9548 115.516 57.7098 116.506 57.7098 117.803V123.504H56.0612V112.619H57.392L57.6403 114.188H57.7297C57.9614 113.804 58.256 113.483 58.6135 113.225C58.971 112.96 59.3716 112.762 59.8152 112.629C60.2588 112.49 60.7255 112.421 61.2155 112.421Z" fill="black"/>
<path d="M48.8314 112.421C49.7583 112.421 50.5528 112.626 51.2148 113.036C51.8769 113.447 52.3834 114.023 52.7343 114.764C53.0852 115.499 53.2606 116.36 53.2606 117.346V118.369H45.7428C45.7626 119.647 46.0804 120.62 46.6962 121.289C47.3119 121.958 48.1792 122.292 49.2981 122.292C49.9867 122.292 50.5958 122.229 51.1255 122.103C51.6551 121.978 52.2046 121.792 52.774 121.547V122.997C52.2245 123.242 51.6783 123.421 51.1354 123.534C50.5991 123.646 49.9635 123.702 49.2286 123.702C48.1825 123.702 47.2689 123.49 46.4876 123.067C45.713 122.636 45.1105 122.007 44.6802 121.18C44.2498 120.352 44.0346 119.339 44.0346 118.141C44.0346 116.969 44.2299 115.956 44.6206 115.102C45.0178 114.241 45.574 113.579 46.289 113.116C47.0107 112.652 47.8581 112.421 48.8314 112.421ZM48.8115 113.771C47.9309 113.771 47.2291 114.059 46.7061 114.635C46.1831 115.211 45.8719 116.016 45.7726 117.048H51.5326C51.526 116.4 51.4234 115.83 51.2248 115.34C51.0328 114.844 50.7381 114.46 50.3409 114.188C49.9436 113.91 49.4339 113.771 48.8115 113.771Z" fill="black"/>
<path d="M35.5932 108.051V116.075C35.5932 116.34 35.5832 116.664 35.5634 117.048C35.5435 117.426 35.527 117.76 35.5137 118.052H35.5832C35.7223 117.879 35.9242 117.624 36.189 117.287C36.4605 116.949 36.6889 116.678 36.8743 116.472L40.4892 112.619H42.4258L38.0462 117.267L42.7436 123.504H40.7574L36.914 118.349L35.5932 119.561V123.504H33.9545V108.051H35.5932Z" fill="black"/>
<path d="M28.5619 123.702C27.5821 123.702 26.718 123.5 25.9699 123.097C25.2218 122.693 24.6391 122.077 24.222 121.249C23.8049 120.422 23.5964 119.379 23.5964 118.121C23.5964 116.803 23.8148 115.728 24.2518 114.893C24.6954 114.053 25.3045 113.43 26.0791 113.026C26.8538 112.622 27.7343 112.421 28.7208 112.421C29.2637 112.421 29.7868 112.477 30.2899 112.589C30.7997 112.695 31.2169 112.831 31.5413 112.997L31.0447 114.377C30.7137 114.245 30.3297 114.125 29.8927 114.019C29.4624 113.914 29.0585 113.861 28.6811 113.861C27.9263 113.861 27.2974 114.023 26.7942 114.347C26.2976 114.672 25.9236 115.148 25.672 115.777C25.427 116.406 25.3045 117.181 25.3045 118.101C25.3045 118.982 25.4237 119.733 25.662 120.356C25.907 120.978 26.2678 121.455 26.7445 121.786C27.2278 122.11 27.8303 122.272 28.552 122.272C29.128 122.272 29.6477 122.213 30.1112 122.093C30.5746 121.968 30.9951 121.822 31.3724 121.657V123.126C31.0083 123.312 30.6011 123.454 30.1509 123.553C29.7073 123.653 29.1777 123.702 28.5619 123.702Z" fill="black"/>
<path d="M16.9723 112.44C18.27 112.44 19.2333 112.732 19.8623 113.314C20.4912 113.897 20.8057 114.827 20.8057 116.105V123.504H19.604L19.2863 121.895H19.2068C18.9022 122.292 18.5845 122.626 18.2534 122.898C17.9224 123.163 17.5384 123.365 17.1014 123.504C16.6711 123.636 16.1414 123.702 15.5124 123.702C14.8503 123.702 14.2611 123.586 13.7447 123.355C13.2349 123.123 12.831 122.772 12.5331 122.302C12.2418 121.832 12.0961 121.236 12.0961 120.514C12.0961 119.429 12.5265 118.594 13.3872 118.012C14.2479 117.429 15.5588 117.111 17.3199 117.058L19.1969 116.979V116.314C19.1969 115.373 18.9949 114.715 18.5911 114.337C18.1872 113.96 17.6178 113.771 16.8829 113.771C16.3135 113.771 15.7706 113.854 15.2542 114.019C14.7378 114.185 14.2479 114.38 13.7844 114.605L13.2779 113.354C13.7679 113.102 14.3306 112.887 14.9662 112.709C15.6018 112.53 16.2705 112.44 16.9723 112.44ZM19.177 118.141L17.5185 118.21C16.1613 118.263 15.2046 118.485 14.6484 118.876C14.0923 119.266 13.8142 119.819 13.8142 120.534C13.8142 121.157 14.0029 121.617 14.3803 121.915C14.7577 122.213 15.2575 122.362 15.8799 122.362C16.8465 122.362 17.6377 122.093 18.2534 121.557C18.8691 121.021 19.177 120.217 19.177 119.144V118.141Z" fill="black"/>
<path d="M0 108.984H4.11149C5.92557 108.984 7.28945 109.256 8.20311 109.799C9.11678 110.342 9.57361 111.265 9.57361 112.57C9.57361 113.132 9.46437 113.639 9.24588 114.089C9.03402 114.533 8.72284 114.9 8.31236 115.191C7.90187 115.483 7.39538 115.685 6.79289 115.797V115.896C7.42848 115.996 7.99125 116.178 8.48118 116.443C8.97112 116.707 9.35512 117.078 9.6332 117.555C9.91127 118.032 10.0503 118.637 10.0503 119.372C10.0503 120.266 9.84175 121.021 9.42464 121.637C9.01416 122.252 8.43153 122.719 7.67676 123.037C6.922 123.348 6.0282 123.504 4.99536 123.504H0V108.984ZM1.68829 115.211H4.46901C5.73357 115.211 6.60751 115.003 7.09083 114.586C7.58076 114.168 7.82573 113.559 7.82573 112.758C7.82573 111.931 7.53442 111.335 6.95179 110.971C6.37579 110.606 5.4555 110.424 4.19094 110.424H1.68829V115.211ZM1.68829 116.631V122.064H4.70736C5.9984 122.064 6.91207 121.812 7.44835 121.309C7.98463 120.799 8.25277 120.114 8.25277 119.253C8.25277 118.704 8.13028 118.234 7.88532 117.843C7.64697 117.452 7.25635 117.154 6.71344 116.949C6.17716 116.737 5.45881 116.631 4.55839 116.631H1.68829Z" fill="black"/>
<path d="M436.781 123.702C435.404 123.702 434.311 123.232 433.504 122.292C432.703 121.352 432.302 119.955 432.302 118.101C432.302 116.227 432.713 114.814 433.534 113.861C434.354 112.901 435.447 112.421 436.811 112.421C437.387 112.421 437.89 112.497 438.32 112.649C438.751 112.801 439.121 113.006 439.433 113.265C439.744 113.516 440.005 113.804 440.217 114.129H440.336C440.31 113.923 440.283 113.642 440.257 113.285C440.23 112.927 440.217 112.636 440.217 112.411V108.051H441.866V123.504H440.535L440.287 121.954H440.217C440.012 122.279 439.75 122.573 439.433 122.838C439.121 123.103 438.747 123.315 438.31 123.474C437.88 123.626 437.37 123.702 436.781 123.702ZM437.039 122.332C438.204 122.332 439.029 122.001 439.512 121.339C439.995 120.677 440.237 119.693 440.237 118.389V118.091C440.237 116.707 440.005 115.645 439.542 114.903C439.085 114.162 438.251 113.791 437.039 113.791C436.026 113.791 435.268 114.182 434.765 114.963C434.262 115.738 434.01 116.797 434.01 118.141C434.01 119.478 434.258 120.511 434.755 121.239C435.258 121.968 436.02 122.332 437.039 122.332Z" fill="black"/>
<path d="M425.589 112.421C426.88 112.421 427.856 112.738 428.518 113.374C429.18 114.003 429.511 115.016 429.511 116.413V123.504H427.883V116.522C427.883 115.615 427.674 114.936 427.257 114.486C426.847 114.036 426.214 113.811 425.36 113.811C424.155 113.811 423.308 114.152 422.818 114.834C422.328 115.516 422.083 116.506 422.083 117.803V123.504H420.434V112.619H421.765L422.013 114.188H422.103C422.335 113.804 422.629 113.483 422.987 113.225C423.344 112.96 423.745 112.762 424.188 112.629C424.632 112.49 425.099 112.421 425.589 112.421Z" fill="black"/>
<path d="M413.205 112.421C414.131 112.421 414.926 112.626 415.588 113.036C416.25 113.447 416.757 114.023 417.107 114.764C417.458 115.499 417.634 116.36 417.634 117.346V118.369H410.116C410.136 119.647 410.454 120.62 411.069 121.289C411.685 121.958 412.552 122.292 413.671 122.292C414.36 122.292 414.969 122.229 415.499 122.103C416.028 121.978 416.578 121.792 417.147 121.547V122.997C416.598 123.242 416.051 123.421 415.509 123.534C414.972 123.646 414.337 123.702 413.602 123.702C412.556 123.702 411.642 123.49 410.861 123.067C410.086 122.636 409.484 122.007 409.053 121.18C408.623 120.352 408.408 119.339 408.408 118.141C408.408 116.969 408.603 115.956 408.994 115.102C409.391 114.241 409.947 113.579 410.662 113.116C411.384 112.652 412.231 112.421 413.205 112.421ZM413.185 113.771C412.304 113.771 411.602 114.059 411.079 114.635C410.556 115.211 410.245 116.016 410.146 117.048H415.906C415.899 116.4 415.797 115.83 415.598 115.34C415.406 114.844 415.111 114.46 414.714 114.188C414.317 113.91 413.807 113.771 413.185 113.771Z" fill="black"/>
<path d="M405.279 122.352C405.551 122.352 405.829 122.329 406.114 122.282C406.398 122.236 406.63 122.18 406.809 122.113V123.394C406.617 123.481 406.349 123.553 406.004 123.613C405.667 123.673 405.336 123.702 405.011 123.702C404.435 123.702 403.912 123.603 403.442 123.404C402.972 123.199 402.595 122.855 402.31 122.372C402.032 121.888 401.893 121.22 401.893 120.365V113.91H400.344V113.106L401.903 112.46L402.558 110.097H403.551V112.619H406.739V113.91H403.551V120.316C403.551 120.998 403.707 121.508 404.018 121.845C404.336 122.183 404.756 122.352 405.279 122.352Z" fill="black"/>
<path d="M394.445 112.421C395.736 112.421 396.712 112.738 397.374 113.374C398.036 114.003 398.367 115.016 398.367 116.413V123.504H396.739V116.522C396.739 115.615 396.53 114.936 396.113 114.486C395.703 114.036 395.07 113.811 394.216 113.811C393.011 113.811 392.164 114.152 391.674 114.834C391.184 115.516 390.939 116.506 390.939 117.803V123.504H389.29V112.619H390.621L390.869 114.188H390.959C391.19 113.804 391.485 113.483 391.843 113.225C392.2 112.96 392.601 112.762 393.044 112.629C393.488 112.49 393.955 112.421 394.445 112.421Z" fill="black"/>
<path d="M386.44 118.042C386.44 118.935 386.324 119.733 386.093 120.435C385.861 121.137 385.526 121.729 385.089 122.213C384.653 122.696 384.123 123.067 383.5 123.325C382.885 123.577 382.186 123.702 381.405 123.702C380.677 123.702 380.008 123.577 379.399 123.325C378.796 123.067 378.273 122.696 377.83 122.213C377.393 121.729 377.052 121.137 376.807 120.435C376.569 119.733 376.449 118.935 376.449 118.042C376.449 116.85 376.651 115.837 377.055 115.003C377.459 114.162 378.035 113.523 378.783 113.086C379.538 112.642 380.435 112.421 381.475 112.421C382.468 112.421 383.335 112.642 384.076 113.086C384.825 113.53 385.404 114.172 385.814 115.013C386.232 115.847 386.44 116.856 386.44 118.042ZM378.158 118.042C378.158 118.916 378.273 119.674 378.505 120.316C378.737 120.958 379.094 121.455 379.578 121.805C380.061 122.156 380.683 122.332 381.445 122.332C382.2 122.332 382.819 122.156 383.302 121.805C383.792 121.455 384.153 120.958 384.384 120.316C384.616 119.674 384.732 118.916 384.732 118.042C384.732 117.174 384.616 116.426 384.384 115.797C384.153 115.162 383.795 114.672 383.312 114.327C382.828 113.983 382.203 113.811 381.435 113.811C380.303 113.811 379.472 114.185 378.942 114.933C378.419 115.681 378.158 116.717 378.158 118.042Z" fill="black"/>
<path d="M373.679 112.421C373.897 112.421 374.126 112.434 374.364 112.46C374.602 112.48 374.814 112.51 374.999 112.55L374.791 114.079C374.612 114.033 374.414 113.996 374.195 113.97C373.977 113.943 373.771 113.93 373.579 113.93C373.142 113.93 372.729 114.019 372.338 114.198C371.954 114.37 371.616 114.622 371.325 114.953C371.034 115.277 370.805 115.671 370.64 116.135C370.474 116.592 370.391 117.101 370.391 117.664V123.504H368.733V112.619H370.103L370.282 114.625H370.352C370.577 114.221 370.848 113.854 371.166 113.523C371.484 113.185 371.851 112.917 372.268 112.718C372.692 112.52 373.162 112.421 373.679 112.421Z" fill="black"/>
<path d="M360.162 123.504H358.474V108.984H366.558V110.474H360.162V115.797H366.171V117.277H360.162V123.504Z" fill="black"/>
<path d="M373.967 292.135C373.967 292.83 373.791 293.416 373.44 293.892C373.096 294.362 372.599 294.717 371.951 294.955C371.308 295.193 370.54 295.313 369.647 295.313C368.885 295.313 368.226 295.253 367.67 295.134C367.114 295.015 366.628 294.846 366.21 294.627V293.108C366.654 293.326 367.184 293.525 367.799 293.704C368.415 293.882 369.044 293.972 369.686 293.972C370.626 293.972 371.308 293.82 371.732 293.515C372.156 293.21 372.368 292.797 372.368 292.274C372.368 291.976 372.282 291.714 372.109 291.489C371.944 291.257 371.663 291.035 371.265 290.824C370.868 290.605 370.319 290.367 369.617 290.109C368.922 289.844 368.319 289.582 367.809 289.324C367.306 289.059 366.916 288.738 366.637 288.361C366.366 287.983 366.23 287.493 366.23 286.891C366.23 285.971 366.601 285.265 367.343 284.776C368.091 284.279 369.071 284.031 370.282 284.031C370.938 284.031 371.55 284.097 372.119 284.229C372.695 284.355 373.232 284.527 373.728 284.746L373.172 286.067C372.722 285.875 372.242 285.712 371.732 285.58C371.222 285.448 370.703 285.381 370.173 285.381C369.412 285.381 368.826 285.507 368.415 285.759C368.011 286.01 367.809 286.355 367.809 286.792C367.809 287.129 367.902 287.407 368.087 287.626C368.279 287.844 368.584 288.05 369.001 288.242C369.418 288.434 369.968 288.659 370.65 288.917C371.332 289.168 371.921 289.43 372.417 289.701C372.914 289.966 373.295 290.291 373.559 290.675C373.831 291.052 373.967 291.539 373.967 292.135Z" fill="black"/>
<path d="M359.586 284.031C360.944 284.031 362.026 284.497 362.834 285.431C363.642 286.365 364.045 287.768 364.045 289.642C364.045 290.88 363.86 291.919 363.489 292.76C363.119 293.601 362.595 294.237 361.92 294.667C361.251 295.097 360.46 295.313 359.547 295.313C358.971 295.313 358.464 295.236 358.027 295.084C357.59 294.932 357.216 294.727 356.905 294.468C356.594 294.21 356.336 293.929 356.13 293.624H356.011C356.031 293.882 356.054 294.194 356.081 294.558C356.114 294.922 356.13 295.24 356.13 295.511V299.98H354.472V284.229H355.832L356.051 285.838H356.13C356.342 285.507 356.6 285.206 356.905 284.934C357.209 284.656 357.58 284.438 358.017 284.279C358.461 284.113 358.984 284.031 359.586 284.031ZM359.298 285.421C358.544 285.421 357.934 285.567 357.471 285.858C357.014 286.149 356.68 286.586 356.468 287.169C356.256 287.745 356.144 288.47 356.13 289.344V289.662C356.13 290.582 356.23 291.36 356.428 291.996C356.633 292.631 356.968 293.114 357.431 293.445C357.901 293.776 358.53 293.942 359.318 293.942C359.994 293.942 360.556 293.76 361.006 293.396C361.457 293.032 361.791 292.525 362.01 291.876C362.235 291.221 362.347 290.469 362.347 289.622C362.347 288.338 362.096 287.318 361.592 286.563C361.096 285.802 360.331 285.421 359.298 285.421Z" fill="black"/>
<path d="M351.483 287.834C351.483 288.953 351.34 289.973 351.055 290.893C350.771 291.807 350.347 292.595 349.784 293.257C349.228 293.912 348.536 294.419 347.709 294.776C346.881 295.134 345.921 295.313 344.829 295.313C343.703 295.313 342.72 295.134 341.879 294.776C341.045 294.419 340.35 293.909 339.794 293.247C339.244 292.585 338.83 291.794 338.552 290.873C338.281 289.953 338.145 288.933 338.145 287.814C338.145 286.331 338.39 285.03 338.88 283.912C339.37 282.793 340.111 281.922 341.105 281.3C342.104 280.677 343.356 280.366 344.858 280.366C346.295 280.366 347.503 280.674 348.483 281.29C349.47 281.905 350.215 282.773 350.718 283.892C351.228 285.004 351.483 286.318 351.483 287.834ZM339.923 287.834C339.923 289.066 340.098 290.132 340.449 291.032C340.8 291.933 341.336 292.628 342.058 293.118C342.786 293.608 343.71 293.853 344.829 293.853C345.954 293.853 346.874 293.608 347.59 293.118C348.311 292.628 348.844 291.933 349.188 291.032C349.533 290.132 349.705 289.066 349.705 287.834C349.705 285.961 349.311 284.497 348.523 283.445C347.742 282.385 346.52 281.856 344.858 281.856C343.733 281.856 342.806 282.097 342.078 282.581C341.349 283.064 340.807 283.753 340.449 284.646C340.098 285.534 339.923 286.596 339.923 287.834Z" fill="black"/>
<path d="M330.866 295.114L326.734 284.229H328.502L330.895 290.814C331.061 291.264 331.23 291.76 331.402 292.303C331.574 292.846 331.693 293.283 331.759 293.614H331.829C331.908 293.283 332.041 292.846 332.226 292.303C332.411 291.754 332.58 291.257 332.733 290.814L335.126 284.229H336.894L332.752 295.114H330.866Z" fill="black"/>
<path d="M321.242 284.031C322.169 284.031 322.964 284.236 323.626 284.646C324.288 285.057 324.794 285.633 325.145 286.374C325.496 287.109 325.672 287.97 325.672 288.957V289.979H318.154C318.174 291.257 318.491 292.231 319.107 292.899C319.723 293.568 320.59 293.902 321.709 293.902C322.398 293.902 323.007 293.839 323.536 293.714C324.066 293.588 324.616 293.402 325.185 293.157V294.607C324.635 294.852 324.089 295.031 323.546 295.144C323.01 295.256 322.374 295.313 321.639 295.313C320.593 295.313 319.68 295.101 318.898 294.677C318.124 294.247 317.521 293.618 317.091 292.79C316.661 291.962 316.446 290.949 316.446 289.751C316.446 288.579 316.641 287.566 317.031 286.712C317.429 285.851 317.985 285.189 318.7 284.726C319.422 284.262 320.269 284.031 321.242 284.031ZM321.222 285.381C320.342 285.381 319.64 285.669 319.117 286.245C318.594 286.821 318.283 287.626 318.183 288.659H323.944C323.937 288.01 323.834 287.44 323.636 286.95C323.444 286.454 323.149 286.07 322.752 285.798C322.355 285.52 321.845 285.381 321.222 285.381Z" fill="black"/>
<path d="M314.072 287.715C314.072 289.351 313.774 290.718 313.178 291.817C312.582 292.909 311.718 293.733 310.586 294.29C309.461 294.839 308.093 295.114 306.485 295.114H302.542V280.595H306.922C308.398 280.595 309.669 280.866 310.735 281.409C311.801 281.945 312.622 282.743 313.198 283.802C313.781 284.855 314.072 286.159 314.072 287.715ZM312.294 287.775C312.294 286.47 312.076 285.395 311.639 284.547C311.208 283.7 310.573 283.071 309.732 282.66C308.898 282.243 307.875 282.035 306.663 282.035H304.23V293.664H306.286C308.285 293.664 309.785 293.171 310.785 292.184C311.791 291.198 312.294 289.728 312.294 287.775Z" fill="black"/>
<path d="M131.16 300C129.73 300 128.628 299.732 127.853 299.196C127.079 298.666 126.691 297.921 126.691 296.961C126.691 296.279 126.907 295.697 127.337 295.213C127.774 294.73 128.376 294.409 129.144 294.25C128.86 294.117 128.615 293.919 128.41 293.654C128.211 293.389 128.112 293.085 128.112 292.74C128.112 292.343 128.221 291.996 128.439 291.698C128.664 291.393 129.005 291.102 129.462 290.824C128.893 290.592 128.429 290.201 128.072 289.652C127.721 289.096 127.545 288.45 127.545 287.715C127.545 286.934 127.708 286.269 128.032 285.719C128.357 285.163 128.827 284.739 129.442 284.448C130.058 284.157 130.803 284.011 131.677 284.011C131.869 284.011 132.061 284.021 132.253 284.041C132.451 284.054 132.64 284.077 132.819 284.11C132.998 284.137 133.153 284.17 133.286 284.209H137.02V285.272L135.014 285.52C135.212 285.779 135.378 286.09 135.51 286.454C135.643 286.818 135.709 287.222 135.709 287.666C135.709 288.751 135.341 289.615 134.607 290.258C133.872 290.893 132.862 291.211 131.578 291.211C131.273 291.211 130.962 291.184 130.644 291.131C130.32 291.31 130.071 291.509 129.899 291.727C129.734 291.946 129.651 292.197 129.651 292.482C129.651 292.694 129.714 292.863 129.84 292.989C129.972 293.114 130.161 293.207 130.406 293.267C130.651 293.32 130.945 293.346 131.29 293.346H133.206C134.391 293.346 135.298 293.594 135.927 294.091C136.563 294.588 136.881 295.313 136.881 296.266C136.881 297.471 136.391 298.394 135.411 299.037C134.431 299.679 133.014 300 131.16 300ZM131.21 298.709C132.111 298.709 132.855 298.616 133.445 298.431C134.04 298.252 134.484 297.991 134.775 297.646C135.073 297.309 135.222 296.905 135.222 296.435C135.222 295.998 135.123 295.667 134.924 295.442C134.726 295.223 134.434 295.077 134.05 295.005C133.666 294.925 133.196 294.885 132.64 294.885H130.753C130.263 294.885 129.836 294.962 129.472 295.114C129.108 295.266 128.827 295.491 128.628 295.789C128.436 296.087 128.34 296.458 128.34 296.901C128.34 297.491 128.588 297.938 129.085 298.242C129.581 298.553 130.29 298.709 131.21 298.709ZM131.637 290.009C132.425 290.009 133.018 289.811 133.415 289.413C133.812 289.016 134.011 288.437 134.011 287.675C134.011 286.861 133.809 286.252 133.405 285.848C133.001 285.438 132.405 285.232 131.617 285.232C130.862 285.232 130.28 285.444 129.869 285.868C129.466 286.285 129.264 286.898 129.264 287.705C129.264 288.447 129.469 289.016 129.879 289.413C130.29 289.811 130.876 290.009 131.637 290.009Z" fill="black"/>
<path d="M120.802 284.031C122.093 284.031 123.07 284.349 123.732 284.984C124.394 285.613 124.725 286.626 124.725 288.023V295.114H123.096V288.132C123.096 287.225 122.888 286.547 122.471 286.096C122.06 285.646 121.428 285.421 120.574 285.421C119.369 285.421 118.521 285.762 118.031 286.444C117.542 287.126 117.297 288.116 117.297 289.413V295.114H115.648V284.229H116.979L117.227 285.798H117.316C117.548 285.414 117.843 285.093 118.2 284.835C118.558 284.57 118.958 284.372 119.402 284.239C119.846 284.1 120.312 284.031 120.802 284.031Z" fill="black"/>
<path d="M112.152 284.229V295.114H110.504V284.229H112.152ZM111.348 280.158C111.619 280.158 111.851 280.247 112.043 280.426C112.242 280.598 112.341 280.869 112.341 281.24C112.341 281.604 112.242 281.876 112.043 282.054C111.851 282.233 111.619 282.323 111.348 282.323C111.063 282.323 110.825 282.233 110.633 282.054C110.447 281.876 110.355 281.604 110.355 281.24C110.355 280.869 110.447 280.598 110.633 280.426C110.825 280.247 111.063 280.158 111.348 280.158Z" fill="black"/>
<path d="M106.77 293.962C107.041 293.962 107.319 293.939 107.604 293.892C107.888 293.846 108.12 293.79 108.299 293.724V295.005C108.107 295.091 107.839 295.164 107.495 295.223C107.157 295.283 106.826 295.313 106.501 295.313C105.925 295.313 105.402 295.213 104.932 295.015C104.462 294.809 104.085 294.465 103.8 293.982C103.522 293.498 103.383 292.83 103.383 291.976V285.52H101.834V284.716L103.393 284.07L104.048 281.707H105.042V284.229H108.229V285.52H105.042V291.926C105.042 292.608 105.197 293.118 105.508 293.455C105.826 293.793 106.247 293.962 106.77 293.962Z" fill="black"/>
<path d="M100.602 292.135C100.602 292.83 100.427 293.416 100.076 293.892C99.7317 294.362 99.2352 294.717 98.5863 294.955C97.9441 295.193 97.1761 295.313 96.2823 295.313C95.5209 295.313 94.8621 295.253 94.306 295.134C93.7499 295.015 93.2632 294.846 92.8461 294.627V293.108C93.2897 293.326 93.8194 293.525 94.4351 293.704C95.0508 293.882 95.6798 293.972 96.322 293.972C97.2622 293.972 97.9441 293.82 98.3678 293.515C98.7916 293.21 99.0034 292.797 99.0034 292.274C99.0034 291.976 98.9174 291.714 98.7452 291.489C98.5797 291.257 98.2983 291.035 97.9011 290.824C97.5038 290.605 96.9543 290.367 96.2525 290.109C95.5573 289.844 94.9548 289.582 94.445 289.324C93.9419 289.059 93.5512 288.738 93.2732 288.361C93.0017 287.983 92.866 287.493 92.866 286.891C92.866 285.971 93.2368 285.265 93.9783 284.776C94.7264 284.279 95.7063 284.031 96.9179 284.031C97.5733 284.031 98.1858 284.097 98.7552 284.229C99.3312 284.355 99.8674 284.527 100.364 284.746L99.8079 286.067C99.3576 285.875 98.8776 285.712 98.3678 285.58C97.858 285.448 97.3383 285.381 96.8086 285.381C96.0473 285.381 95.4613 285.507 95.0508 285.759C94.647 286.01 94.445 286.355 94.445 286.792C94.445 287.129 94.5377 287.407 94.7231 287.626C94.9151 287.844 95.2197 288.05 95.6368 288.242C96.0539 288.434 96.6034 288.659 97.2853 288.917C97.9673 289.168 98.5565 289.43 99.0531 289.701C99.5496 289.966 99.9303 290.291 100.195 290.675C100.467 291.052 100.602 291.539 100.602 292.135Z" fill="black"/>
<path d="M86.3313 284.031C87.2582 284.031 88.0527 284.236 88.7148 284.646C89.3769 285.057 89.8833 285.633 90.2342 286.374C90.5851 287.109 90.7606 287.97 90.7606 288.957V289.979H83.2427C83.2626 291.257 83.5804 292.231 84.1961 292.899C84.8118 293.568 85.6792 293.902 86.7981 293.902C87.4866 293.902 88.0957 293.839 88.6254 293.714C89.1551 293.588 89.7046 293.402 90.274 293.157V294.607C89.7244 294.852 89.1782 295.031 88.6353 295.144C88.099 295.256 87.4635 295.313 86.7286 295.313C85.6825 295.313 84.7688 295.101 83.9876 294.677C83.2129 294.247 82.6104 293.618 82.1801 292.79C81.7497 291.962 81.5346 290.949 81.5346 289.751C81.5346 288.579 81.7299 287.566 82.1205 286.712C82.5178 285.851 83.0739 285.189 83.7889 284.726C84.5106 284.262 85.3581 284.031 86.3313 284.031ZM86.3114 285.381C85.4309 285.381 84.7291 285.669 84.206 286.245C83.683 286.821 83.3718 287.626 83.2725 288.659H89.0326C89.026 288.01 88.9233 287.44 88.7247 286.95C88.5327 286.454 88.2381 286.07 87.8408 285.798C87.4436 285.52 86.9338 285.381 86.3114 285.381Z" fill="black"/>
<path d="M75.6454 295.114H73.9472V282.084H69.3789V280.595H80.1939V282.084H75.6454V295.114Z" fill="black"/>
<path fill-rule="evenodd" clip-rule="evenodd" d="M218.614 164.254L297.271 272.516L296.594 273.008L217.938 164.746L218.614 164.254Z" fill="#6B7280"/>
<path fill-rule="evenodd" clip-rule="evenodd" d="M217.52 163.978L344.789 122.626L345.047 123.421L217.778 164.773L217.52 163.978Z" fill="#6B7280"/>
<path fill-rule="evenodd" clip-rule="evenodd" d="M217.421 164.526V30.7071H218.257V164.526H217.421Z" fill="#6B7280"/>
<path fill-rule="evenodd" clip-rule="evenodd" d="M218.079 165.191L90.8102 123.839L91.0687 123.044L218.338 164.396L218.079 165.191Z" fill="#6B7280"/>
<path fill-rule="evenodd" clip-rule="evenodd" d="M218.653 164.746L139.996 273.008L139.319 272.516L217.976 164.254L218.653 164.746Z" fill="#6B7280"/>
<path d="M102.63 127.098L218.048 51.1981L289.558 141.108L262.585 225.79L150.721 257.363L102.63 127.098Z" fill="#1E3A8A" fill-opacity="0.5"/>
<path fill-rule="evenodd" clip-rule="evenodd" d="M218.048 38.6029L337.476 125.764L292.01 266.354L144.087 266.144L98.6206 125.555L218.048 38.6029ZM99.1117 125.715L144.391 265.726L291.705 265.935L336.985 125.923L218.048 39.1204L99.1117 125.715ZM218.048 63.6938L313.639 133.5L277.373 246.281L158.932 245.862L122.457 133.501L218.048 63.6938ZM122.948 133.66L159.237 245.445L277.069 245.862L313.149 133.66L218.048 64.2116L122.948 133.66ZM218.048 88.7847L289.803 141.237L262.528 225.79L173.569 225.58L146.294 141.237L218.048 88.7847ZM146.784 141.396L173.873 225.163L262.223 225.371L289.312 141.396L218.048 89.3027L146.784 141.396ZM218.048 113.876L265.966 148.973L247.892 205.508L188.414 205.298L170.13 148.974L218.048 113.876ZM170.621 149.132L188.718 204.881L247.587 205.089L265.476 149.133L218.048 114.394L170.621 149.132ZM218.049 138.966L241.919 156.71L233.047 185.227L203.05 185.016L193.967 156.71L218.049 138.966ZM194.457 156.869L203.356 184.6L232.74 184.807L241.432 156.869L218.048 139.486L194.457 156.869Z" fill="#6B7280"/>
</svg>
