<svg width="254" height="49" viewBox="0 0 254 49" fill="none" xmlns="http://www.w3.org/2000/svg">
<path d="M8.85948 17.041L1.88448 4.92L0.0244844 4.517V2.967H8.11548V4.517L5.66648 4.889L10.0375 13.197L11.0295 15.553L12.1455 13.197L16.2685 4.889L13.7265 4.517V2.967H20.7945V4.517L18.7795 4.889L12.3005 17.01V24.14L15.7725 24.481V26H5.48048V24.481L8.85948 24.171V17.041ZM21.7417 17.351C21.7417 15.491 22.124 13.879 22.8887 12.515C23.6533 11.151 24.6557 10.1177 25.8957 9.415C27.1563 8.69167 28.4997 8.33 29.9257 8.33C32.5297 8.33 34.4827 9.15667 35.7847 10.81C37.1073 12.4633 37.7687 14.6333 37.7687 17.32C37.7687 19.2007 37.3863 20.823 36.6217 22.187C35.857 23.551 34.8443 24.5843 33.5837 25.287C32.3437 25.9897 31.0107 26.341 29.5847 26.341C26.9807 26.341 25.0173 25.5143 23.6947 23.861C22.3927 22.2077 21.7417 20.0377 21.7417 17.351ZM29.7707 24.574C31.1967 24.574 32.292 23.985 33.0567 22.807C33.8213 21.629 34.2037 19.8827 34.2037 17.568C34.2037 15.274 33.8523 13.4553 33.1497 12.112C32.447 10.7687 31.3207 10.097 29.7707 10.097C28.3447 10.097 27.239 10.686 26.4537 11.864C25.689 13.042 25.3067 14.7883 25.3067 17.103C25.3067 19.397 25.6683 21.2157 26.3917 22.559C27.115 23.9023 28.2413 24.574 29.7707 24.574ZM54.707 26.279C54.1284 26.279 53.6944 26.1653 53.405 25.938C53.1364 25.7107 53.002 25.3387 53.002 24.822V23.768C52.32 24.45 51.4624 25.0493 50.429 25.566C49.4164 26.0827 48.3934 26.341 47.36 26.341C45.438 26.341 44.074 25.8243 43.268 24.791C42.462 23.7577 42.059 22.0527 42.059 19.676V10.686L40.323 10.19V8.826L44.663 8.423H44.694L45.283 8.795V19.428C45.283 20.6267 45.3657 21.567 45.531 22.249C45.717 22.9103 46.027 23.4063 46.461 23.737C46.9157 24.047 47.5667 24.202 48.414 24.202C49.2407 24.202 50.0157 24.0263 50.739 23.675C51.4624 23.3237 52.0927 22.9103 52.63 22.435V10.686L50.398 10.19V8.826L55.11 8.423H55.141L55.854 8.795V24.419H57.714L57.683 25.814C57.1044 25.9587 56.598 26.0723 56.164 26.155C55.7507 26.2377 55.265 26.279 54.707 26.279ZM62.0489 11.182L59.8169 10.624V8.95L64.2499 8.392H64.3429L64.9939 8.95V10.252L64.9629 10.996C65.7069 10.3347 66.6886 9.73533 67.9079 9.198C69.1273 8.66067 70.2949 8.392 71.4109 8.392C72.7129 8.392 73.7153 8.64 74.4179 9.136C75.1413 9.632 75.6476 10.3967 75.9369 11.43C76.2263 12.4427 76.3709 13.817 76.3709 15.553V24.233L78.5409 24.45V26H71.1939V24.481L73.1159 24.233V15.522C73.1159 14.3027 73.0333 13.352 72.8679 12.67C72.7026 11.9673 72.3926 11.4507 71.9379 11.12C71.4833 10.7687 70.8219 10.593 69.9539 10.593C69.2099 10.593 68.4143 10.779 67.5669 11.151C66.7196 11.523 65.9653 11.957 65.3039 12.453V24.202L67.4119 24.481V26H60.0959V24.481L62.0489 24.202V11.182ZM88.4009 26.341C85.9002 26.341 83.9885 25.5247 82.6659 23.892C81.3639 22.2593 80.7129 20.079 80.7129 17.351C80.7129 15.553 81.0539 13.972 81.7359 12.608C82.4179 11.244 83.3685 10.19 84.5879 9.446C85.8279 8.702 87.2332 8.33 88.8039 8.33C90.7259 8.33 92.2139 8.86733 93.2679 9.942C94.3425 10.996 94.9109 12.515 94.9729 14.499C94.9729 15.7597 94.9006 16.7207 94.7559 17.382H84.0919C84.1332 19.428 84.6085 21.0813 85.5179 22.342C86.4272 23.582 87.7189 24.202 89.3929 24.202C90.2195 24.202 91.0772 24.0573 91.9659 23.768C92.8752 23.458 93.5779 23.0963 94.0739 22.683L94.6629 24.047C94.0636 24.667 93.1749 25.2043 91.9969 25.659C90.8189 26.1137 89.6202 26.341 88.4009 26.341ZM91.5629 15.739C91.6249 15.305 91.6559 14.8607 91.6559 14.406C91.6352 13.0627 91.3459 12.0087 90.7879 11.244C90.2505 10.4587 89.3929 10.066 88.2149 10.066C87.0162 10.066 86.0552 10.5 85.3319 11.368C84.6292 12.236 84.2262 13.693 84.1229 15.739H91.5629ZM100.52 23.52C100.727 23.83 101.161 24.109 101.822 24.357C102.504 24.605 103.217 24.729 103.961 24.729C105.139 24.729 106.007 24.5017 106.565 24.047C107.123 23.5923 107.402 22.962 107.402 22.156C107.402 21.598 107.227 21.1123 106.875 20.699C106.524 20.2857 106.028 19.924 105.387 19.614C104.767 19.2833 103.868 18.8907 102.69 18.436C101.099 17.8367 99.9312 17.1237 99.1872 16.297C98.4639 15.4497 98.1022 14.344 98.1022 12.98C98.1022 12.0707 98.3709 11.275 98.9082 10.593C99.4662 9.911 100.221 9.384 101.171 9.012C102.143 8.61933 103.217 8.423 104.395 8.423C105.346 8.423 106.173 8.49533 106.875 8.64C107.599 8.78467 108.177 8.92933 108.611 9.074C109.045 9.21867 109.335 9.31167 109.479 9.353V13.197H107.588L106.968 10.903C106.844 10.655 106.514 10.4483 105.976 10.283C105.439 10.097 104.84 10.004 104.178 10.004C103.248 10.004 102.494 10.2107 101.915 10.624C101.357 11.0373 101.078 11.5953 101.078 12.298C101.078 12.918 101.223 13.4347 101.512 13.848C101.822 14.2407 102.205 14.561 102.659 14.809C103.114 15.057 103.734 15.3463 104.519 15.677L105.139 15.925C106.297 16.3797 107.237 16.8137 107.96 17.227C108.684 17.6403 109.283 18.188 109.758 18.87C110.254 19.5313 110.502 20.3477 110.502 21.319C110.502 22.8483 109.903 24.0677 108.704 24.977C107.526 25.8863 105.904 26.341 103.837 26.341C102.825 26.341 101.76 26.2067 100.644 25.938C99.5489 25.6487 98.6499 25.3593 97.9472 25.07V21.102H99.9622L100.52 23.52ZM123.249 4.889L120.707 4.517V2.967H136.486L136.92 7.772H135.153L134.254 4.765L126.566 4.579V13.321L131.743 13.228L132.177 10.655H133.882V17.785H132.177L131.743 15.119L126.566 15.026V24.264L135.308 23.954L136.951 20.048L138.78 20.606L137.881 26H120.676V24.481L123.249 24.171V4.889ZM143.1 2.874L140.589 2.533V1.2L145.58 0.610998H145.642L146.324 1.076V24.233L148.959 24.481V26H140.589V24.481L143.1 24.202V2.874ZM167.941 26.341C165.833 26.341 164.045 25.8553 162.578 24.884C161.131 23.9127 160.036 22.5487 159.292 20.792C158.548 19.0147 158.176 16.9583 158.176 14.623C158.176 12.2463 158.62 10.159 159.509 8.361C160.418 6.563 161.658 5.17833 163.229 4.207C164.8 3.215 166.567 2.719 168.53 2.719C171.754 2.719 174.213 3.742 175.908 5.788C177.623 7.81333 178.481 10.624 178.481 14.22C178.481 16.638 178.016 18.7667 177.086 20.606C176.177 22.4247 174.916 23.8403 173.304 24.853C171.713 25.845 169.925 26.341 167.941 26.341ZM168.344 4.331C166.339 4.331 164.758 5.20933 163.601 6.966C162.444 8.702 161.865 11.2543 161.865 14.623C161.865 17.723 162.423 20.1823 163.539 22.001C164.676 23.799 166.257 24.698 168.282 24.698C170.266 24.698 171.837 23.799 172.994 22.001C174.172 20.203 174.761 17.6197 174.761 14.251C174.761 11.1303 174.203 8.702 173.087 6.966C171.971 5.20933 170.39 4.331 168.344 4.331ZM194.994 26.279C194.415 26.279 193.981 26.1653 193.692 25.938C193.423 25.7107 193.289 25.3387 193.289 24.822V23.768C192.607 24.45 191.749 25.0493 190.716 25.566C189.703 26.0827 188.68 26.341 187.647 26.341C185.725 26.341 184.361 25.8243 183.555 24.791C182.749 23.7577 182.346 22.0527 182.346 19.676V10.686L180.61 10.19V8.826L184.95 8.423H184.981L185.57 8.795V19.428C185.57 20.6267 185.653 21.567 185.818 22.249C186.004 22.9103 186.314 23.4063 186.748 23.737C187.203 24.047 187.854 24.202 188.701 24.202C189.528 24.202 190.303 24.0263 191.026 23.675C191.749 23.3237 192.38 22.9103 192.917 22.435V10.686L190.685 10.19V8.826L195.397 8.423H195.428L196.141 8.795V24.419H198.001L197.97 25.814C197.391 25.9587 196.885 26.0723 196.451 26.155C196.038 26.2377 195.552 26.279 194.994 26.279ZM200.476 21.35C200.476 19.4073 201.447 17.9813 203.39 17.072C205.333 16.142 207.792 15.646 210.768 15.584V14.716C210.768 13.7447 210.665 12.98 210.458 12.422C210.251 11.864 209.89 11.461 209.373 11.213C208.877 10.9443 208.164 10.81 207.234 10.81C206.18 10.81 205.229 10.965 204.382 11.275C203.555 11.5643 202.729 11.926 201.902 12.36L201.127 10.748C201.396 10.5207 201.892 10.221 202.615 9.849C203.338 9.477 204.175 9.14633 205.126 8.857C206.077 8.56767 207.027 8.423 207.978 8.423C209.445 8.423 210.603 8.62967 211.45 9.043C212.318 9.43567 212.938 10.0763 213.31 10.965C213.682 11.8537 213.868 13.042 213.868 14.53V24.481H215.697V25.845C215.284 25.9483 214.757 26.0517 214.116 26.155C213.496 26.2583 212.948 26.31 212.473 26.31C211.894 26.31 211.502 26.217 211.295 26.031C211.088 25.8657 210.985 25.4833 210.985 24.884V23.861C210.365 24.481 209.6 25.0493 208.691 25.566C207.802 26.0827 206.79 26.341 205.653 26.341C204.165 26.341 202.925 25.9173 201.933 25.07C200.962 24.202 200.476 22.962 200.476 21.35ZM206.986 24.233C207.523 24.233 208.143 24.0677 208.846 23.737C209.549 23.4063 210.189 23.0137 210.768 22.559V17.227C208.515 17.227 206.81 17.5783 205.653 18.281C204.516 18.963 203.948 19.862 203.948 20.978C203.948 22.094 204.217 22.9207 204.754 23.458C205.312 23.9747 206.056 24.233 206.986 24.233ZM217.915 24.481L220.24 24.295V11.182L218.008 10.624V8.95L222.286 8.392H222.348L223.03 8.95V9.508L222.937 11.926H223.03C223.237 11.5747 223.609 11.12 224.146 10.562C224.683 10.004 225.376 9.49767 226.223 9.043C227.07 8.56767 227.99 8.33 228.982 8.33C229.395 8.33 229.736 8.38167 230.005 8.485V11.957C229.86 11.8537 229.623 11.7607 229.292 11.678C228.982 11.5747 228.631 11.523 228.238 11.523C226.523 11.523 224.931 12.05 223.464 13.104V24.264L227.401 24.512V26H217.915V24.481ZM237.352 26.31C236.174 26.31 235.296 26.0413 234.717 25.504C234.139 24.9667 233.849 24.047 233.849 22.745V10.841H231.617V9.446C231.721 9.42533 232.01 9.353 232.485 9.229C232.961 9.105 233.281 8.99133 233.446 8.888C233.777 8.702 234.035 8.33 234.221 7.772C234.387 7.37933 234.583 6.749 234.81 5.881C235.038 5.013 235.172 4.49633 235.213 4.331H237.042L237.104 8.795H242.281V10.841H237.104V20.358C237.104 21.536 237.135 22.3627 237.197 22.838C237.28 23.3133 237.435 23.6233 237.662 23.768C237.91 23.9127 238.324 23.985 238.902 23.985C239.46 23.985 240.07 23.9127 240.731 23.768C241.413 23.6233 241.94 23.4683 242.312 23.303L242.777 24.698C242.281 25.07 241.475 25.4317 240.359 25.783C239.264 26.1343 238.262 26.31 237.352 26.31ZM248.333 5.695C247.672 5.695 247.176 5.509 246.845 5.137C246.515 4.765 246.349 4.28967 246.349 3.711C246.349 3.04967 246.546 2.502 246.938 2.068C247.352 1.634 247.91 1.417 248.612 1.417C249.315 1.417 249.832 1.603 250.162 1.975C250.493 2.347 250.658 2.82233 250.658 3.401C250.658 4.10367 250.452 4.66167 250.038 5.075C249.646 5.48833 249.088 5.695 248.364 5.695H248.333ZM247.093 11.182L244.737 10.624V8.981L249.542 8.392H249.604L250.317 8.95V24.233L252.797 24.481V26H244.582V24.481L247.093 24.202V11.182ZM2.10588 38.0323L1.09968 37.8919V37.3069H7.35918L7.47618 39.2959H6.71568L6.36468 37.9972L3.35778 37.9153V41.3083L5.47548 41.2732L5.67438 40.3021H6.29448V43.0399H5.68608L5.47548 42.022L3.35778 41.9752V45.3097L5.18298 45.4267V46H1.16988V45.4267L2.10588 45.3097V38.0323ZM13.6905 46.1053C13.4721 46.1053 13.3083 46.0624 13.1991 45.9766C13.0977 45.8908 13.047 45.7504 13.047 45.5554V45.1576C12.7896 45.415 12.4659 45.6412 12.0759 45.8362C11.6937 46.0312 11.3076 46.1287 10.9176 46.1287C10.1922 46.1287 9.67743 45.9337 9.37323 45.5437C9.06903 45.1537 8.91693 44.5102 8.91693 43.6132V40.2202L8.26173 40.033V39.5182L9.89973 39.3661H9.91143L10.1337 39.5065V43.5196C10.1337 43.972 10.1649 44.3269 10.2273 44.5843C10.2975 44.8339 10.4145 45.0211 10.5783 45.1459C10.7499 45.2629 10.9956 45.3214 11.3154 45.3214C11.6274 45.3214 11.9199 45.2551 12.1929 45.1225C12.4659 44.9899 12.7038 44.8339 12.9066 44.6545V40.2202L12.0642 40.033V39.5182L13.8426 39.3661H13.8543L14.1234 39.5065V45.4033H14.8254L14.8137 45.9298C14.5953 45.9844 14.4042 46.0273 14.2404 46.0585C14.0844 46.0897 13.9011 46.1053 13.6905 46.1053ZM16.6136 37.2718L15.6659 37.1431V36.64L17.5496 36.4177H17.573L17.8304 36.5932V45.3331L18.8249 45.4267V46H15.6659V45.4267L16.6136 45.3214V37.2718ZM20.5098 37.2718L19.5621 37.1431V36.64L21.4458 36.4177H21.4692L21.7266 36.5932V45.3331L22.7211 45.4267V46H19.5621V45.4267L20.5098 45.3214V37.2718ZM29.1949 46.1287C28.7893 46.1287 28.4266 46.0936 28.1068 46.0234C27.787 45.9532 27.436 45.8596 27.0538 45.7426C26.8198 45.6568 26.6443 45.61 26.5273 45.6022L26.6209 43.4845H27.3697L27.5686 45.0055C27.7012 45.1303 27.9157 45.2434 28.2121 45.3448C28.5163 45.4384 28.8478 45.4852 29.2066 45.4852C29.7994 45.4852 30.2479 45.3526 30.5521 45.0874C30.8641 44.8222 31.0201 44.4556 31.0201 43.9876C31.0201 43.6834 30.9343 43.4221 30.7627 43.2037C30.5989 42.9853 30.3766 42.7981 30.0958 42.6421C29.8228 42.4861 29.4445 42.3028 28.9609 42.0922C28.5241 41.8972 28.1419 41.6983 27.8143 41.4955C27.4945 41.2927 27.2137 41.0236 26.9719 40.6882C26.7379 40.345 26.6209 39.9355 26.6209 39.4597C26.6209 39.0307 26.734 38.6485 26.9602 38.3131C27.1942 37.9699 27.5257 37.7008 27.9547 37.5058C28.3915 37.3108 28.8985 37.2133 29.4757 37.2133C29.8345 37.2133 30.1504 37.2406 30.4234 37.2952C30.7042 37.3498 31.0201 37.4239 31.3711 37.5175C31.5271 37.5721 31.6597 37.6072 31.7689 37.6228L31.6987 39.5884H30.985L30.751 38.1493C30.673 38.0713 30.5092 37.9972 30.2596 37.927C30.0178 37.8568 29.7526 37.8217 29.464 37.8217C28.9258 37.8217 28.5163 37.9348 28.2355 38.161C27.9625 38.3872 27.826 38.7148 27.826 39.1438C27.826 39.4558 27.9079 39.7171 28.0717 39.9277C28.2433 40.1383 28.4539 40.3177 28.7035 40.4659C28.9531 40.6141 29.3509 40.8169 29.8969 41.0743C30.4039 41.3161 30.8173 41.5345 31.1371 41.7295C31.4569 41.9245 31.7299 42.1819 31.9561 42.5017C32.1901 42.8137 32.3071 43.1881 32.3071 43.6249C32.3071 44.0383 32.1901 44.4361 31.9561 44.8183C31.7299 45.2005 31.3789 45.5164 30.9031 45.766C30.4351 46.0078 29.8657 46.1287 29.1949 46.1287ZM35.2759 46.117C34.8313 46.117 34.4998 46.0156 34.2814 45.8128C34.063 45.61 33.9538 45.2629 33.9538 44.7715V40.2787H33.1114V39.7522C33.1504 39.7444 33.2596 39.7171 33.439 39.6703C33.6184 39.6235 33.7393 39.5806 33.8017 39.5416C33.9265 39.4714 34.024 39.331 34.0942 39.1204C34.1566 38.9722 34.2307 38.7343 34.3165 38.4067C34.4023 38.0791 34.453 37.8841 34.4686 37.8217H35.1589L35.1823 39.5065H37.1362V40.2787H35.1823V43.8706C35.1823 44.3152 35.194 44.6272 35.2174 44.8066C35.2486 44.986 35.3071 45.103 35.3929 45.1576C35.4865 45.2122 35.6425 45.2395 35.8609 45.2395C36.0715 45.2395 36.3016 45.2122 36.5512 45.1576C36.8086 45.103 37.0075 45.0445 37.1479 44.9821L37.3234 45.5086C37.1362 45.649 36.832 45.7855 36.4108 45.9181C35.9974 46.0507 35.6191 46.117 35.2759 46.117ZM38.0398 44.245C38.0398 43.5118 38.4064 42.9736 39.1396 42.6304C39.8728 42.2794 40.801 42.0922 41.9242 42.0688V41.7412C41.9242 41.3746 41.8852 41.086 41.8072 40.8754C41.7292 40.6648 41.5927 40.5127 41.3977 40.4191C41.2105 40.3177 40.9414 40.267 40.5904 40.267C40.1926 40.267 39.8338 40.3255 39.514 40.4425C39.202 40.5517 38.89 40.6882 38.578 40.852L38.2855 40.2436C38.3869 40.1578 38.5741 40.0447 38.8471 39.9043C39.1201 39.7639 39.436 39.6391 39.7948 39.5299C40.1536 39.4207 40.5124 39.3661 40.8712 39.3661C41.425 39.3661 41.8618 39.4441 42.1816 39.6001C42.5092 39.7483 42.7432 39.9901 42.8836 40.3255C43.024 40.6609 43.0942 41.1094 43.0942 41.671V45.4267H43.7845V45.9415C43.6285 45.9805 43.4296 46.0195 43.1878 46.0585C42.9538 46.0975 42.7471 46.117 42.5677 46.117C42.3493 46.117 42.2011 46.0819 42.1231 46.0117C42.0451 45.9493 42.0061 45.805 42.0061 45.5788V45.1927C41.7721 45.4267 41.4835 45.6412 41.1403 45.8362C40.8049 46.0312 40.4227 46.1287 39.9937 46.1287C39.4321 46.1287 38.9641 45.9688 38.5897 45.649C38.2231 45.3214 38.0398 44.8534 38.0398 44.245ZM40.4968 45.3331C40.6996 45.3331 40.9336 45.2707 41.1988 45.1459C41.464 45.0211 41.7058 44.8729 41.9242 44.7013V42.6889C41.074 42.6889 40.4305 42.8215 39.9937 43.0867C39.5647 43.3441 39.3502 43.6834 39.3502 44.1046C39.3502 44.5258 39.4516 44.8378 39.6544 45.0406C39.865 45.2356 40.1458 45.3331 40.4968 45.3331ZM44.4578 42.7942C44.4578 42.1468 44.5826 41.5618 44.8322 41.0392C45.0896 40.5166 45.464 40.1032 45.9554 39.799C46.4546 39.487 47.0513 39.331 47.7455 39.331C48.0809 39.331 48.3695 39.3622 48.6113 39.4246C48.8531 39.487 49.1417 39.5728 49.4771 39.682L49.4303 41.4838H48.6698L48.4124 40.2904C48.3656 40.072 48.0692 39.9628 47.5232 39.9628C46.9772 39.9628 46.5443 40.1851 46.2245 40.6297C45.9125 41.0665 45.7565 41.6905 45.7565 42.5017C45.7565 43.4221 45.932 44.1241 46.283 44.6077C46.6418 45.0835 47.1059 45.3214 47.6753 45.3214C48.0029 45.3214 48.311 45.2707 48.5996 45.1693C48.896 45.0679 49.1495 44.947 49.3601 44.8066L49.5824 45.2746C49.3718 45.493 49.0598 45.6919 48.6464 45.8713C48.2408 46.0429 47.8274 46.1287 47.4062 46.1287C46.7666 46.1287 46.2245 45.9844 45.7799 45.6958C45.3431 45.4072 45.0116 45.0133 44.7854 44.5141C44.567 44.0071 44.4578 43.4338 44.4578 42.7942ZM51.2168 37.2718L50.3042 37.1431V36.64L52.1645 36.4177H52.1762L52.4336 36.5932V42.3145L52.4102 43.0048L55.1129 40.2085L54.2354 40.0447V39.5065H57.0668V40.0447L56.1425 40.2085L54.4226 41.8816L56.6456 45.3331L57.371 45.4267V46H54.5279V45.4267L55.265 45.3214L53.6153 42.607L52.4102 43.8004L52.4336 44.3971V45.3214L53.2643 45.4267V46H50.4797V45.4267L51.2168 45.3214V37.2718ZM61.3714 38.0323L60.4588 37.8919V37.3069H61.9915C62.2333 37.3069 62.5804 37.2913 63.0328 37.2601C63.4852 37.2289 63.8245 37.2133 64.0507 37.2133C65.5015 37.2133 66.5779 37.5799 67.2799 38.3131C67.9897 39.0385 68.3446 40.0603 68.3446 41.3785C68.3446 42.2989 68.1613 43.1179 67.7947 43.8355C67.4359 44.5453 66.9289 45.0991 66.2737 45.4969C65.6185 45.8947 64.8658 46.0936 64.0156 46.0936C63.8284 46.0936 63.5086 46.078 63.0562 46.0468C62.5882 46.0156 62.2372 46 62.0032 46H60.4003V45.4267L61.3714 45.3097V38.0323ZM62.6116 45.3448C62.8846 45.4072 63.2356 45.4384 63.6646 45.4384H64.0156C64.6006 45.4306 65.1154 45.2824 65.56 44.9938C66.0124 44.7052 66.3634 44.2762 66.613 43.7068C66.8626 43.1296 66.9874 42.4315 66.9874 41.6125C66.9874 40.3801 66.7183 39.4441 66.1801 38.8045C65.6497 38.1649 64.8463 37.8451 63.7699 37.8451C63.5437 37.8451 63.2746 37.8607 62.9626 37.8919C62.83 37.9153 62.713 37.927 62.6116 37.927V45.3448ZM72.1332 46.1287C71.1894 46.1287 70.4679 45.8206 69.9687 45.2044C69.4773 44.5882 69.2316 43.7653 69.2316 42.7357C69.2316 42.0571 69.3603 41.4604 69.6177 40.9456C69.8751 40.4308 70.2339 40.033 70.6941 39.7522C71.1621 39.4714 71.6925 39.331 72.2853 39.331C73.0107 39.331 73.5723 39.5338 73.9701 39.9394C74.3757 40.3372 74.5902 40.9105 74.6136 41.6593C74.6136 42.1351 74.5863 42.4978 74.5317 42.7474H70.5069C70.5225 43.5196 70.7019 44.1436 71.0451 44.6194C71.3883 45.0874 71.8758 45.3214 72.5076 45.3214C72.8196 45.3214 73.1433 45.2668 73.4787 45.1576C73.8219 45.0406 74.0871 44.9041 74.2743 44.7481L74.4966 45.2629C74.2704 45.4969 73.935 45.6997 73.4904 45.8713C73.0458 46.0429 72.5934 46.1287 72.1332 46.1287ZM73.3266 42.1273C73.35 41.9635 73.3617 41.7958 73.3617 41.6242C73.3539 41.1172 73.2447 40.7194 73.0341 40.4308C72.8313 40.1344 72.5076 39.9862 72.063 39.9862C71.6106 39.9862 71.2479 40.15 70.9749 40.4776C70.7097 40.8052 70.5576 41.3551 70.5186 42.1273H73.3266ZM75.081 39.5065H77.7954V40.0564L76.9647 40.2085L78.1464 43.5781L78.6378 45.064L79.059 43.6249L80.2407 40.2085L79.4451 40.0564V39.5065H81.8202V40.0564L81.2118 40.2085L78.9537 46.0936H77.9592L75.6075 40.2085L75.081 40.0564V39.5065ZM85.1472 46.1287C84.2034 46.1287 83.4819 45.8206 82.9827 45.2044C82.4913 44.5882 82.2456 43.7653 82.2456 42.7357C82.2456 42.0571 82.3743 41.4604 82.6317 40.9456C82.8891 40.4308 83.2479 40.033 83.7081 39.7522C84.1761 39.4714 84.7065 39.331 85.2993 39.331C86.0247 39.331 86.5863 39.5338 86.9841 39.9394C87.3897 40.3372 87.6042 40.9105 87.6276 41.6593C87.6276 42.1351 87.6003 42.4978 87.5457 42.7474H83.5209C83.5365 43.5196 83.7159 44.1436 84.0591 44.6194C84.4023 45.0874 84.8898 45.3214 85.5216 45.3214C85.8336 45.3214 86.1573 45.2668 86.4927 45.1576C86.8359 45.0406 87.1011 44.9041 87.2883 44.7481L87.5106 45.2629C87.2844 45.4969 86.949 45.6997 86.5044 45.8713C86.0598 46.0429 85.6074 46.1287 85.1472 46.1287ZM86.3406 42.1273C86.364 41.9635 86.3757 41.7958 86.3757 41.6242C86.3679 41.1172 86.2587 40.7194 86.0481 40.4308C85.8453 40.1344 85.5216 39.9862 85.077 39.9862C84.6246 39.9862 84.2619 40.15 83.9889 40.4776C83.7237 40.8052 83.5716 41.3551 83.5326 42.1273H86.3406ZM89.4872 37.2718L88.5395 37.1431V36.64L90.4232 36.4177H90.4466L90.704 36.5932V45.3331L91.6985 45.4267V46H88.5395V45.4267L89.4872 45.3214V37.2718ZM92.5293 42.7357C92.5293 42.0337 92.6736 41.4253 92.9622 40.9105C93.2508 40.3957 93.6291 40.0057 94.0971 39.7405C94.5729 39.4675 95.0799 39.331 95.6181 39.331C96.6009 39.331 97.338 39.643 97.8294 40.267C98.3286 40.891 98.5782 41.71 98.5782 42.724C98.5782 43.4338 98.4339 44.0461 98.1453 44.5609C97.8567 45.0757 97.4745 45.4657 96.9987 45.7309C96.5307 45.9961 96.0276 46.1287 95.4894 46.1287C94.5066 46.1287 93.7656 45.8167 93.2664 45.1927C92.775 44.5687 92.5293 43.7497 92.5293 42.7357ZM95.5596 45.4618C96.0978 45.4618 96.5112 45.2395 96.7998 44.7949C97.0884 44.3503 97.2327 43.6912 97.2327 42.8176C97.2327 41.9518 97.1001 41.2654 96.8349 40.7584C96.5697 40.2514 96.1446 39.9979 95.5596 39.9979C95.0214 39.9979 94.6041 40.2202 94.3077 40.6648C94.0191 41.1094 93.8748 41.7685 93.8748 42.6421C93.8748 43.5079 94.0113 44.1943 94.2843 44.7013C94.5573 45.2083 94.9824 45.4618 95.5596 45.4618ZM105.977 42.5251C105.977 43.1881 105.841 43.7965 105.568 44.3503C105.295 44.8963 104.905 45.3292 104.398 45.649C103.891 45.9688 103.298 46.1287 102.619 46.1287C102.432 46.1287 102.229 46.1131 102.011 46.0819C101.793 46.0507 101.617 46.0117 101.484 45.9649L101.52 46.9477V48.1294L102.736 48.2581V48.8314H99.4721V48.2581L100.314 48.1294V40.4074L99.4604 40.1968V39.565L101.122 39.3544H101.145L101.391 39.565V40.2553C101.625 39.9979 101.913 39.7795 102.257 39.6001C102.608 39.4207 102.998 39.331 103.427 39.331C103.887 39.331 104.308 39.4441 104.69 39.6703C105.08 39.8965 105.392 40.2475 105.626 40.7233C105.86 41.1991 105.977 41.7997 105.977 42.5251ZM102.947 40.15C102.651 40.15 102.374 40.2124 102.116 40.3372C101.859 40.462 101.66 40.5985 101.52 40.7467V45.1576C101.574 45.2512 101.711 45.337 101.929 45.415C102.155 45.4852 102.401 45.5203 102.666 45.5203C103.267 45.5203 103.75 45.2824 104.117 44.8066C104.491 44.3308 104.679 43.6132 104.679 42.6538C104.679 41.8114 104.515 41.1835 104.187 40.7701C103.867 40.3567 103.454 40.15 102.947 40.15ZM109.873 46.1287C108.929 46.1287 108.207 45.8206 107.708 45.2044C107.217 44.5882 106.971 43.7653 106.971 42.7357C106.971 42.0571 107.1 41.4604 107.357 40.9456C107.614 40.4308 107.973 40.033 108.433 39.7522C108.901 39.4714 109.432 39.331 110.025 39.331C110.75 39.331 111.312 39.5338 111.709 39.9394C112.115 40.3372 112.33 40.9105 112.353 41.6593C112.353 42.1351 112.326 42.4978 112.271 42.7474H108.246C108.262 43.5196 108.441 44.1436 108.784 44.6194C109.128 45.0874 109.615 45.3214 110.247 45.3214C110.559 45.3214 110.883 45.2668 111.218 45.1576C111.561 45.0406 111.826 44.9041 112.014 44.7481L112.236 45.2629C112.01 45.4969 111.674 45.6997 111.23 45.8713C110.785 46.0429 110.333 46.1287 109.873 46.1287ZM111.066 42.1273C111.089 41.9635 111.101 41.7958 111.101 41.6242C111.093 41.1172 110.984 40.7194 110.773 40.4308C110.571 40.1344 110.247 39.9862 109.802 39.9862C109.35 39.9862 108.987 40.15 108.714 40.4776C108.449 40.8052 108.297 41.3551 108.258 42.1273H111.066ZM113.382 45.4267L114.259 45.3565V40.4074L113.417 40.1968V39.565L115.032 39.3544H115.055L115.312 39.565V39.7756L115.277 40.6882H115.312C115.39 40.5556 115.531 40.384 115.734 40.1734C115.936 39.9628 116.198 39.7717 116.518 39.6001C116.837 39.4207 117.184 39.331 117.559 39.331C117.715 39.331 117.844 39.3505 117.945 39.3895V40.6999C117.89 40.6609 117.801 40.6258 117.676 40.5946C117.559 40.5556 117.426 40.5361 117.278 40.5361C116.631 40.5361 116.03 40.735 115.476 41.1328V45.3448L116.962 45.4384V46H113.382V45.4267ZM123.342 43.2154C123.046 43.2154 122.796 43.1023 122.593 42.8761C122.391 42.6499 122.285 42.3769 122.278 42.0571C122.278 41.7295 122.395 41.4565 122.629 41.2381C122.863 41.0197 123.136 40.9105 123.448 40.9105C123.752 40.9105 124.005 41.0197 124.208 41.2381C124.411 41.4487 124.512 41.7217 124.512 42.0571C124.512 42.3769 124.395 42.6499 124.161 42.8761C123.927 43.1023 123.654 43.2154 123.342 43.2154ZM130.32 38.0323L129.231 37.8919V37.3069H132.671V37.8919L131.583 38.0323V45.3097L132.671 45.4384V46H129.243V45.4267L130.32 45.3097V38.0323ZM136.711 37.927L134.699 37.9972L134.29 40.4425H133.517L133.716 37.3069H141.005L141.146 40.4425H140.409L140.023 37.9972L137.998 37.927V45.3097L139.66 45.4267V46H135.19V45.4267L136.711 45.3097V37.927ZM147.457 42.6772H142.73V41.8231H147.457V42.6772ZM152.159 46.1287C151.754 46.1287 151.391 46.0936 151.071 46.0234C150.751 45.9532 150.4 45.8596 150.018 45.7426C149.784 45.6568 149.609 45.61 149.492 45.6022L149.585 43.4845H150.334L150.533 45.0055C150.665 45.1303 150.88 45.2434 151.176 45.3448C151.481 45.4384 151.812 45.4852 152.171 45.4852C152.764 45.4852 153.212 45.3526 153.516 45.0874C153.828 44.8222 153.984 44.4556 153.984 43.9876C153.984 43.6834 153.899 43.4221 153.727 43.2037C153.563 42.9853 153.341 42.7981 153.06 42.6421C152.787 42.4861 152.409 42.3028 151.925 42.0922C151.488 41.8972 151.106 41.6983 150.779 41.4955C150.459 41.2927 150.178 41.0236 149.936 40.6882C149.702 40.345 149.585 39.9355 149.585 39.4597C149.585 39.0307 149.698 38.6485 149.924 38.3131C150.158 37.9699 150.49 37.7008 150.919 37.5058C151.356 37.3108 151.863 37.2133 152.44 37.2133C152.799 37.2133 153.115 37.2406 153.388 37.2952C153.668 37.3498 153.984 37.4239 154.335 37.5175C154.491 37.5721 154.624 37.6072 154.733 37.6228L154.663 39.5884H153.949L153.715 38.1493C153.637 38.0713 153.473 37.9972 153.224 37.927C152.982 37.8568 152.717 37.8217 152.428 37.8217C151.89 37.8217 151.481 37.9348 151.2 38.161C150.927 38.3872 150.79 38.7148 150.79 39.1438C150.79 39.4558 150.872 39.7171 151.036 39.9277C151.208 40.1383 151.418 40.3177 151.668 40.4659C151.917 40.6141 152.315 40.8169 152.861 41.0743C153.368 41.3161 153.782 41.5345 154.101 41.7295C154.421 41.9245 154.694 42.1819 154.92 42.5017C155.154 42.8137 155.271 43.1881 155.271 43.6249C155.271 44.0383 155.154 44.4361 154.92 44.8183C154.694 45.2005 154.343 45.5164 153.867 45.766C153.399 46.0078 152.83 46.1287 152.159 46.1287ZM156.239 42.7357C156.239 42.0337 156.384 41.4253 156.672 40.9105C156.961 40.3957 157.339 40.0057 157.807 39.7405C158.283 39.4675 158.79 39.331 159.328 39.331C160.311 39.331 161.048 39.643 161.54 40.267C162.039 40.891 162.288 41.71 162.288 42.724C162.288 43.4338 162.144 44.0461 161.855 44.5609C161.567 45.0757 161.185 45.4657 160.709 45.7309C160.241 45.9961 159.738 46.1287 159.2 46.1287C158.217 46.1287 157.476 45.8167 156.977 45.1927C156.485 44.5687 156.239 43.7497 156.239 42.7357ZM159.27 45.4618C159.808 45.4618 160.221 45.2395 160.51 44.7949C160.799 44.3503 160.943 43.6912 160.943 42.8176C160.943 41.9518 160.81 41.2654 160.545 40.7584C160.28 40.2514 159.855 39.9979 159.27 39.9979C158.732 39.9979 158.314 40.2202 158.018 40.6648C157.729 41.1094 157.585 41.7685 157.585 42.6421C157.585 43.5079 157.721 44.1943 157.994 44.7013C158.267 45.2083 158.693 45.4618 159.27 45.4618ZM164.212 37.2718L163.264 37.1431V36.64L165.148 36.4177H165.171L165.429 36.5932V45.3331L166.423 45.4267V46H163.264V45.4267L164.212 45.3214V37.2718ZM172.577 46.1053C172.359 46.1053 172.195 46.0624 172.086 45.9766C171.985 45.8908 171.934 45.7504 171.934 45.5554V45.1576C171.677 45.415 171.353 45.6412 170.963 45.8362C170.581 46.0312 170.195 46.1287 169.805 46.1287C169.079 46.1287 168.564 45.9337 168.26 45.5437C167.956 45.1537 167.804 44.5102 167.804 43.6132V40.2202L167.149 40.033V39.5182L168.787 39.3661H168.798L169.021 39.5065V43.5196C169.021 43.972 169.052 44.3269 169.114 44.5843C169.184 44.8339 169.301 45.0211 169.465 45.1459C169.637 45.2629 169.883 45.3214 170.202 45.3214C170.514 45.3214 170.807 45.2551 171.08 45.1225C171.353 44.9899 171.591 44.8339 171.794 44.6545V40.2202L170.951 40.033V39.5182L172.73 39.3661H172.741L173.01 39.5065V45.4033H173.712L173.701 45.9298C173.482 45.9844 173.291 46.0273 173.127 46.0585C172.971 46.0897 172.788 46.1053 172.577 46.1053ZM176.647 46.117C176.203 46.117 175.871 46.0156 175.653 45.8128C175.434 45.61 175.325 45.2629 175.325 44.7715V40.2787H174.483V39.7522C174.522 39.7444 174.631 39.7171 174.81 39.6703C174.99 39.6235 175.111 39.5806 175.173 39.5416C175.298 39.4714 175.395 39.331 175.465 39.1204C175.528 38.9722 175.602 38.7343 175.688 38.4067C175.774 38.0791 175.824 37.8841 175.84 37.8217H176.53L176.554 39.5065H178.507V40.2787H176.554V43.8706C176.554 44.3152 176.565 44.6272 176.589 44.8066C176.62 44.986 176.678 45.103 176.764 45.1576C176.858 45.2122 177.014 45.2395 177.232 45.2395C177.443 45.2395 177.673 45.2122 177.922 45.1576C178.18 45.103 178.379 45.0445 178.519 44.9821L178.695 45.5086C178.507 45.649 178.203 45.7855 177.782 45.9181C177.369 46.0507 176.99 46.117 176.647 46.117ZM180.792 38.3365C180.542 38.3365 180.355 38.2663 180.23 38.1259C180.105 37.9855 180.043 37.8061 180.043 37.5877C180.043 37.3381 180.117 37.1314 180.265 36.9676C180.421 36.8038 180.632 36.7219 180.897 36.7219C181.162 36.7219 181.357 36.7921 181.482 36.9325C181.607 37.0729 181.669 37.2523 181.669 37.4707C181.669 37.7359 181.591 37.9465 181.435 38.1025C181.287 38.2585 181.076 38.3365 180.803 38.3365H180.792ZM180.324 40.4074L179.434 40.1968V39.5767L181.248 39.3544H181.271L181.54 39.565V45.3331L182.476 45.4267V46H179.376V45.4267L180.324 45.3214V40.4074ZM183.307 42.7357C183.307 42.0337 183.451 41.4253 183.74 40.9105C184.029 40.3957 184.407 40.0057 184.875 39.7405C185.351 39.4675 185.858 39.331 186.396 39.331C187.379 39.331 188.116 39.643 188.607 40.267C189.106 40.891 189.356 41.71 189.356 42.724C189.356 43.4338 189.212 44.0461 188.923 44.5609C188.635 45.0757 188.252 45.4657 187.777 45.7309C187.309 45.9961 186.805 46.1287 186.267 46.1287C185.284 46.1287 184.543 45.8167 184.044 45.1927C183.553 44.5687 183.307 43.7497 183.307 42.7357ZM186.337 45.4618C186.876 45.4618 187.289 45.2395 187.578 44.7949C187.866 44.3503 188.011 43.6912 188.011 42.8176C188.011 41.9518 187.878 41.2654 187.613 40.7584C187.348 40.2514 186.922 39.9979 186.337 39.9979C185.799 39.9979 185.382 40.2202 185.086 40.6648C184.797 41.1094 184.653 41.7685 184.653 42.6421C184.653 43.5079 184.789 44.1943 185.062 44.7013C185.335 45.2083 185.76 45.4618 186.337 45.4618ZM191.127 40.4074L190.285 40.1968V39.565L191.958 39.3544H191.993L192.239 39.565V40.0564L192.227 40.3372C192.508 40.0876 192.879 39.8614 193.339 39.6586C193.799 39.4558 194.24 39.3544 194.661 39.3544C195.152 39.3544 195.531 39.448 195.796 39.6352C196.069 39.8224 196.26 40.111 196.369 40.501C196.478 40.8832 196.533 41.4019 196.533 42.0571V45.3331L197.352 45.415V46H194.579V45.4267L195.304 45.3331V42.0454C195.304 41.5852 195.273 41.2264 195.211 40.969C195.148 40.7038 195.031 40.5088 194.86 40.384C194.688 40.2514 194.439 40.1851 194.111 40.1851C193.83 40.1851 193.53 40.2553 193.21 40.3957C192.89 40.5361 192.606 40.6999 192.356 40.8871V45.3214L193.152 45.4267V46H190.39V45.4267L191.127 45.3214V40.4074ZM203.838 37.2367H205.125L207.968 45.3097L208.693 45.4267V46H205.605V45.4267L206.576 45.3097L206.026 43.5781H202.609L202.06 45.3097L203.066 45.4267V46H200.293V45.4267L201.018 45.3097L203.838 37.2367ZM204.575 39.1087L204.283 38.0791L204.002 39.1321L202.82 42.8878H205.804L204.575 39.1087ZM209.096 45.4267L209.973 45.3565V40.4074L209.131 40.1968V39.565L210.745 39.3544H210.769L211.026 39.565V39.7756L210.991 40.6882H211.026C211.104 40.5556 211.245 40.384 211.447 40.1734C211.65 39.9628 211.912 39.7717 212.231 39.6001C212.551 39.4207 212.898 39.331 213.273 39.331C213.429 39.331 213.557 39.3505 213.659 39.3895V40.6999C213.604 40.6609 213.514 40.6258 213.39 40.5946C213.273 40.5556 213.14 40.5361 212.992 40.5361C212.344 40.5361 211.744 40.735 211.19 41.1328V45.3448L212.676 45.4384V46H209.096V45.4267ZM214.291 42.7942C214.291 42.1468 214.415 41.5618 214.665 41.0392C214.922 40.5166 215.297 40.1032 215.788 39.799C216.287 39.487 216.884 39.331 217.578 39.331C217.914 39.331 218.202 39.3622 218.444 39.4246C218.686 39.487 218.974 39.5728 219.31 39.682L219.263 41.4838H218.503L218.245 40.2904C218.198 40.072 217.902 39.9628 217.356 39.9628C216.81 39.9628 216.377 40.1851 216.057 40.6297C215.745 41.0665 215.589 41.6905 215.589 42.5017C215.589 43.4221 215.765 44.1241 216.116 44.6077C216.475 45.0835 216.939 45.3214 217.508 45.3214C217.836 45.3214 218.144 45.2707 218.432 45.1693C218.729 45.0679 218.982 44.947 219.193 44.8066L219.415 45.2746C219.205 45.493 218.893 45.6919 218.479 45.8713C218.074 46.0429 217.66 46.1287 217.239 46.1287C216.599 46.1287 216.057 45.9844 215.613 45.6958C215.176 45.4072 214.844 45.0133 214.618 44.5141C214.4 44.0071 214.291 43.4338 214.291 42.7942ZM221.061 37.2718L220.079 37.1431V36.64L221.986 36.4177H222.009L222.266 36.5932V39.3076L222.22 40.3021C222.469 40.0759 222.812 39.8614 223.249 39.6586C223.686 39.4558 224.127 39.3544 224.571 39.3544C225.063 39.3544 225.445 39.448 225.718 39.6352C225.991 39.8224 226.182 40.111 226.291 40.501C226.4 40.8832 226.455 41.4019 226.455 42.0571V45.3214L227.274 45.4267V46H224.478V45.4267L225.238 45.3214V42.0454C225.238 41.5852 225.207 41.2264 225.145 40.969C225.082 40.7038 224.965 40.5088 224.794 40.384C224.622 40.2514 224.365 40.1851 224.021 40.1851C223.741 40.1851 223.44 40.2553 223.121 40.3957C222.801 40.5361 222.52 40.6999 222.278 40.8871V45.3214L223.085 45.4267V46H220.359V45.4267L221.061 45.3331V37.2718ZM229.523 38.3365C229.273 38.3365 229.086 38.2663 228.961 38.1259C228.836 37.9855 228.774 37.8061 228.774 37.5877C228.774 37.3381 228.848 37.1314 228.996 36.9676C229.152 36.8038 229.363 36.7219 229.628 36.7219C229.893 36.7219 230.088 36.7921 230.213 36.9325C230.338 37.0729 230.4 37.2523 230.4 37.4707C230.4 37.7359 230.322 37.9465 230.166 38.1025C230.018 38.2585 229.807 38.3365 229.534 38.3365H229.523ZM229.055 40.4074L228.165 40.1968V39.5767L229.979 39.3544H230.002L230.271 39.565V45.3331L231.207 45.4267V46H228.107V45.4267L229.055 45.3214V40.4074ZM234.039 46.117C233.594 46.117 233.263 46.0156 233.044 45.8128C232.826 45.61 232.717 45.2629 232.717 44.7715V40.2787H231.874V39.7522C231.913 39.7444 232.023 39.7171 232.202 39.6703C232.381 39.6235 232.502 39.5806 232.565 39.5416C232.689 39.4714 232.787 39.331 232.857 39.1204C232.92 38.9722 232.994 38.7343 233.079 38.4067C233.165 38.0791 233.216 37.8841 233.232 37.8217H233.922L233.945 39.5065H235.899V40.2787H233.945V43.8706C233.945 44.3152 233.957 44.6272 233.98 44.8066C234.012 44.986 234.07 45.103 234.156 45.1576C234.249 45.2122 234.405 45.2395 234.624 45.2395C234.834 45.2395 235.065 45.2122 235.314 45.1576C235.572 45.103 235.77 45.0445 235.911 44.9821L236.086 45.5086C235.899 45.649 235.595 45.7855 235.174 45.9181C234.76 46.0507 234.382 46.117 234.039 46.117ZM239.681 46.1287C238.737 46.1287 238.016 45.8206 237.516 45.2044C237.025 44.5882 236.779 43.7653 236.779 42.7357C236.779 42.0571 236.908 41.4604 237.165 40.9456C237.423 40.4308 237.782 40.033 238.242 39.7522C238.71 39.4714 239.24 39.331 239.833 39.331C240.558 39.331 241.12 39.5338 241.518 39.9394C241.923 40.3372 242.138 40.9105 242.161 41.6593C242.161 42.1351 242.134 42.4978 242.079 42.7474H238.055C238.07 43.5196 238.25 44.1436 238.593 44.6194C238.936 45.0874 239.423 45.3214 240.055 45.3214C240.367 45.3214 240.691 45.2668 241.026 45.1576C241.37 45.0406 241.635 44.9041 241.822 44.7481L242.044 45.2629C241.818 45.4969 241.483 45.6997 241.038 45.8713C240.593 46.0429 240.141 46.1287 239.681 46.1287ZM240.874 42.1273C240.898 41.9635 240.909 41.7958 240.909 41.6242C240.902 41.1172 240.792 40.7194 240.582 40.4308C240.379 40.1344 240.055 39.9862 239.611 39.9862C239.158 39.9862 238.796 40.15 238.523 40.4776C238.257 40.8052 238.105 41.3551 238.066 42.1273H240.874ZM243.026 42.7942C243.026 42.1468 243.151 41.5618 243.401 41.0392C243.658 40.5166 244.033 40.1032 244.524 39.799C245.023 39.487 245.62 39.331 246.314 39.331C246.65 39.331 246.938 39.3622 247.18 39.4246C247.422 39.487 247.71 39.5728 248.046 39.682L247.999 41.4838H247.238L246.981 40.2904C246.934 40.072 246.638 39.9628 246.092 39.9628C245.546 39.9628 245.113 40.1851 244.793 40.6297C244.481 41.0665 244.325 41.6905 244.325 42.5017C244.325 43.4221 244.501 44.1241 244.852 44.6077C245.21 45.0835 245.675 45.3214 246.244 45.3214C246.572 45.3214 246.88 45.2707 247.168 45.1693C247.465 45.0679 247.718 44.947 247.929 44.8066L248.151 45.2746C247.94 45.493 247.628 45.6919 247.215 45.8713C246.809 46.0429 246.396 46.1287 245.975 46.1287C245.335 46.1287 244.793 45.9844 244.349 45.6958C243.912 45.4072 243.58 45.0133 243.354 44.5141C243.136 44.0071 243.026 43.4338 243.026 42.7942ZM251.166 46.117C250.721 46.117 250.39 46.0156 250.172 45.8128C249.953 45.61 249.844 45.2629 249.844 44.7715V40.2787H249.002V39.7522C249.041 39.7444 249.15 39.7171 249.329 39.6703C249.509 39.6235 249.629 39.5806 249.692 39.5416C249.817 39.4714 249.914 39.331 249.984 39.1204C250.047 38.9722 250.121 38.7343 250.207 38.4067C250.292 38.0791 250.343 37.8841 250.359 37.8217H251.049L251.072 39.5065H253.026V40.2787H251.072V43.8706C251.072 44.3152 251.084 44.6272 251.108 44.8066C251.139 44.986 251.197 45.103 251.283 45.1576C251.377 45.2122 251.533 45.2395 251.751 45.2395C251.962 45.2395 252.192 45.2122 252.441 45.1576C252.699 45.103 252.898 45.0445 253.038 44.9821L253.214 45.5086C253.026 45.649 252.722 45.7855 252.301 45.9181C251.888 46.0507 251.509 46.117 251.166 46.117Z" fill="#303030"/>
</svg>
