<svg width="222" height="43" viewBox="0 0 222 43" fill="none" xmlns="http://www.w3.org/2000/svg">
<path d="M8.37103 15.197L2.29603 4.64003L0.676025 4.28903V2.93902H7.72303V4.28903L5.59003 4.61302L9.39703 11.849L10.261 13.901L11.233 11.849L14.824 4.61302L12.61 4.28903V2.93902H18.766V4.28903L17.011 4.61302L11.368 15.17V21.38L14.392 21.677V23H5.42803V21.677L8.37103 21.407V15.197Z" fill="#1A1A1A"/>
<path d="M19.591 15.467C19.591 13.847 19.924 12.443 20.59 11.255C21.256 10.067 22.129 9.16702 23.209 8.55503C24.307 7.92502 25.477 7.61002 26.719 7.61002C28.987 7.61002 30.688 8.33002 31.822 9.77003C32.974 11.21 33.55 13.1 33.55 15.44C33.55 17.078 33.217 18.491 32.551 19.679C31.885 20.867 31.003 21.767 29.905 22.379C28.825 22.991 27.664 23.297 26.422 23.297C24.154 23.297 22.444 22.577 21.292 21.137C20.158 19.697 19.591 17.807 19.591 15.467ZM26.584 21.758C27.826 21.758 28.78 21.245 29.446 20.219C30.112 19.193 30.445 17.672 30.445 15.656C30.445 13.658 30.139 12.074 29.527 10.904C28.915 9.73403 27.934 9.14902 26.584 9.14902C25.342 9.14902 24.379 9.66202 23.695 10.688C23.029 11.714 22.696 13.235 22.696 15.251C22.696 17.249 23.011 18.833 23.641 20.003C24.271 21.173 25.252 21.758 26.584 21.758Z" fill="#1A1A1A"/>
<path d="M48.3028 23.243C47.7988 23.243 47.4208 23.144 47.1688 22.946C46.9348 22.748 46.8178 22.424 46.8178 21.974V21.056C46.2238 21.65 45.4768 22.172 44.5768 22.622C43.6948 23.072 42.8038 23.297 41.9038 23.297C40.2298 23.297 39.0418 22.847 38.3398 21.947C37.6378 21.047 37.2868 19.562 37.2868 17.492V9.66203L35.7748 9.23002V8.04203L39.5548 7.69102H39.5818L40.0948 8.01503V17.276C40.0948 18.32 40.1668 19.139 40.3108 19.733C40.4728 20.309 40.7428 20.741 41.1208 21.029C41.5168 21.299 42.0838 21.434 42.8218 21.434C43.5418 21.434 44.2168 21.281 44.8468 20.975C45.4768 20.669 46.0258 20.309 46.4938 19.895V9.66203L44.5498 9.23002V8.04203L48.6538 7.69102H48.6808L49.3018 8.01503V21.623H50.9218L50.8948 22.838C50.3908 22.964 49.9498 23.063 49.5718 23.135C49.2118 23.207 48.7888 23.243 48.3028 23.243Z" fill="#1A1A1A"/>
<path d="M54.6973 10.094L52.7533 9.60803V8.15003L56.6143 7.66403H56.6953L57.2623 8.15003V9.28403L57.2353 9.93202C57.8833 9.35602 58.7383 8.83402 59.8003 8.36602C60.8623 7.89802 61.8793 7.66403 62.8513 7.66403C63.9853 7.66403 64.8583 7.88003 65.4703 8.31203C66.1003 8.74402 66.5413 9.41003 66.7933 10.31C67.0453 11.192 67.1713 12.389 67.1713 13.901V21.461L69.0613 21.65V23H62.6623V21.677L64.3363 21.461V13.874C64.3363 12.812 64.2643 11.984 64.1203 11.39C63.9763 10.778 63.7063 10.328 63.3103 10.04C62.9143 9.73402 62.3383 9.58103 61.5823 9.58103C60.9343 9.58103 60.2413 9.74303 59.5033 10.067C58.7653 10.391 58.1083 10.769 57.5323 11.201V21.434L59.3683 21.677V23H52.9963V21.677L54.6973 21.434V10.094Z" fill="#1A1A1A"/>
<path d="M77.649 23.297C75.471 23.297 73.806 22.586 72.654 21.164C71.52 19.742 70.953 17.843 70.953 15.467C70.953 13.901 71.25 12.524 71.844 11.336C72.438 10.148 73.266 9.23002 74.328 8.58202C75.408 7.93402 76.632 7.61002 78 7.61002C79.674 7.61002 80.97 8.07802 81.888 9.01403C82.824 9.93203 83.319 11.255 83.373 12.983C83.373 14.081 83.31 14.918 83.184 15.494H73.896C73.932 17.276 74.346 18.716 75.138 19.814C75.93 20.894 77.055 21.434 78.513 21.434C79.233 21.434 79.98 21.308 80.754 21.056C81.546 20.786 82.158 20.471 82.59 20.111L83.103 21.299C82.581 21.839 81.807 22.307 80.781 22.703C79.755 23.099 78.711 23.297 77.649 23.297ZM80.403 14.063C80.457 13.685 80.484 13.298 80.484 12.902C80.466 11.732 80.214 10.814 79.728 10.148C79.26 9.46403 78.513 9.12203 77.487 9.12203C76.443 9.12203 75.606 9.50002 74.976 10.256C74.364 11.012 74.013 12.281 73.923 14.063H80.403Z" fill="#1A1A1A"/>
<path d="M88.2045 20.84C88.3845 21.11 88.7625 21.353 89.3385 21.569C89.9325 21.785 90.5535 21.893 91.2015 21.893C92.2275 21.893 92.9835 21.695 93.4695 21.299C93.9555 20.903 94.1985 20.354 94.1985 19.652C94.1985 19.166 94.0455 18.743 93.7395 18.383C93.4335 18.023 93.0015 17.708 92.4435 17.438C91.9035 17.15 91.1205 16.808 90.0945 16.412C88.7085 15.89 87.6915 15.269 87.0435 14.549C86.4135 13.811 86.0985 12.848 86.0985 11.66C86.0985 10.868 86.3325 10.175 86.8005 9.58103C87.2865 8.98702 87.9435 8.52802 88.7715 8.20402C89.6175 7.86202 90.5535 7.69102 91.5795 7.69102C92.4075 7.69102 93.1275 7.75403 93.7395 7.88003C94.3695 8.00603 94.8735 8.13203 95.2515 8.25803C95.6295 8.38403 95.8815 8.46503 96.0075 8.50103V11.849H94.3605L93.8205 9.85103C93.7125 9.63503 93.4245 9.45502 92.9565 9.31102C92.4885 9.14902 91.9665 9.06802 91.3905 9.06802C90.5805 9.06802 89.9235 9.24803 89.4195 9.60803C88.9335 9.96803 88.6905 10.454 88.6905 11.066C88.6905 11.606 88.8165 12.056 89.0685 12.416C89.3385 12.758 89.6715 13.037 90.0675 13.253C90.4635 13.469 91.0035 13.721 91.6875 14.009L92.2275 14.225C93.2355 14.621 94.0545 14.999 94.6845 15.359C95.3145 15.719 95.8365 16.196 96.2505 16.79C96.6825 17.366 96.8985 18.077 96.8985 18.923C96.8985 20.255 96.3765 21.317 95.3325 22.109C94.3065 22.901 92.8935 23.297 91.0935 23.297C90.2115 23.297 89.2845 23.18 88.3125 22.946C87.3585 22.694 86.5755 22.442 85.9635 22.19V18.734H87.7185L88.2045 20.84Z" fill="#1A1A1A"/>
<path d="M108.001 4.61302L105.787 4.28903V2.93902H119.53L119.908 7.12403H118.369L117.586 4.50502L110.89 4.34302V11.957L115.399 11.876L115.777 9.63503H117.262V15.845H115.777L115.399 13.523L110.89 13.442V21.488L118.504 21.218L119.935 17.816L121.528 18.302L120.745 23H105.76V21.677L108.001 21.407V4.61302Z" fill="#1A1A1A"/>
<path d="M125.291 2.85802L123.104 2.56102V1.40003L127.451 0.887024H127.505L128.099 1.29203V21.461L130.394 21.677V23H123.104V21.677L125.291 21.434V2.85802Z" fill="#1A1A1A"/>
<path d="M146.926 23.297C145.09 23.297 143.533 22.874 142.255 22.028C140.995 21.182 140.041 19.994 139.393 18.464C138.745 16.916 138.421 15.125 138.421 13.091C138.421 11.021 138.808 9.20303 139.582 7.63703C140.374 6.07103 141.454 4.86503 142.822 4.01903C144.19 3.15502 145.729 2.72302 147.439 2.72302C150.247 2.72302 152.389 3.61402 153.865 5.39603C155.359 7.16003 156.106 9.60802 156.106 12.74C156.106 14.846 155.701 16.7 154.891 18.302C154.099 19.886 153.001 21.119 151.597 22.001C150.211 22.865 148.654 23.297 146.926 23.297ZM147.277 4.12702C145.531 4.12702 144.154 4.89202 143.146 6.42203C142.138 7.93403 141.634 10.157 141.634 13.091C141.634 15.791 142.12 17.933 143.092 19.517C144.082 21.083 145.459 21.866 147.223 21.866C148.951 21.866 150.319 21.083 151.327 19.517C152.353 17.951 152.866 15.701 152.866 12.767C152.866 10.049 152.38 7.93403 151.408 6.42203C150.436 4.89202 149.059 4.12702 147.277 4.12702Z" fill="#1A1A1A"/>
<path d="M170.488 23.243C169.984 23.243 169.606 23.144 169.354 22.946C169.12 22.748 169.003 22.424 169.003 21.974V21.056C168.409 21.65 167.662 22.172 166.762 22.622C165.88 23.072 164.989 23.297 164.089 23.297C162.415 23.297 161.227 22.847 160.525 21.947C159.823 21.047 159.472 19.562 159.472 17.492V9.66203L157.96 9.23002V8.04203L161.74 7.69102H161.767L162.28 8.01503V17.276C162.28 18.32 162.352 19.139 162.496 19.733C162.658 20.309 162.928 20.741 163.306 21.029C163.702 21.299 164.269 21.434 165.007 21.434C165.727 21.434 166.402 21.281 167.032 20.975C167.662 20.669 168.211 20.309 168.679 19.895V9.66203L166.735 9.23002V8.04203L170.839 7.69102H170.866L171.487 8.01503V21.623H173.107L173.08 22.838C172.576 22.964 172.135 23.063 171.757 23.135C171.397 23.207 170.974 23.243 170.488 23.243Z" fill="#1A1A1A"/>
<path d="M175.263 18.95C175.263 17.258 176.109 16.016 177.801 15.224C179.493 14.414 181.635 13.982 184.227 13.928V13.172C184.227 12.326 184.137 11.66 183.957 11.174C183.777 10.688 183.462 10.337 183.012 10.121C182.58 9.88703 181.959 9.77003 181.149 9.77003C180.231 9.77003 179.403 9.90503 178.665 10.175C177.945 10.427 177.225 10.742 176.505 11.12L175.83 9.71603C176.064 9.51803 176.496 9.25703 177.126 8.93303C177.756 8.60903 178.485 8.32103 179.313 8.06903C180.141 7.81703 180.969 7.69102 181.797 7.69102C183.075 7.69102 184.083 7.87102 184.821 8.23102C185.577 8.57303 186.117 9.13103 186.441 9.90503C186.765 10.679 186.927 11.714 186.927 13.01V21.677H188.52V22.865C188.16 22.955 187.701 23.045 187.143 23.135C186.603 23.225 186.126 23.27 185.712 23.27C185.208 23.27 184.866 23.189 184.686 23.027C184.506 22.883 184.416 22.55 184.416 22.028V21.137C183.876 21.677 183.21 22.172 182.418 22.622C181.644 23.072 180.762 23.297 179.772 23.297C178.476 23.297 177.396 22.928 176.532 22.19C175.686 21.434 175.263 20.354 175.263 18.95ZM180.933 21.461C181.401 21.461 181.941 21.317 182.553 21.029C183.165 20.741 183.723 20.399 184.227 20.003V15.359C182.265 15.359 180.78 15.665 179.772 16.277C178.782 16.871 178.287 17.654 178.287 18.626C178.287 19.598 178.521 20.318 178.989 20.786C179.475 21.236 180.123 21.461 180.933 21.461Z" fill="#1A1A1A"/>
<path d="M190.452 21.677L192.477 21.515V10.094L190.533 9.60803V8.15003L194.259 7.66403H194.313L194.907 8.15003V8.63603L194.826 10.742H194.907C195.087 10.436 195.411 10.04 195.879 9.55402C196.347 9.06802 196.95 8.62702 197.688 8.23102C198.426 7.81702 199.227 7.61002 200.091 7.61002C200.451 7.61002 200.748 7.65502 200.982 7.74503V10.769C200.856 10.679 200.649 10.598 200.361 10.526C200.091 10.436 199.785 10.391 199.443 10.391C197.949 10.391 196.563 10.85 195.285 11.768V21.488L198.714 21.704V23H190.452V21.677Z" fill="#1A1A1A"/>
<path d="M207.381 23.27C206.355 23.27 205.59 23.036 205.086 22.568C204.582 22.1 204.33 21.299 204.33 20.165V9.79702H202.386V8.58202C202.476 8.56402 202.728 8.50103 203.142 8.39303C203.556 8.28502 203.835 8.18602 203.979 8.09602C204.267 7.93402 204.492 7.61002 204.654 7.12403C204.798 6.78202 204.969 6.23302 205.167 5.47702C205.365 4.72102 205.482 4.27102 205.518 4.12702H207.111L207.165 8.01503H211.674V9.79702H207.165V18.086C207.165 19.112 207.192 19.832 207.246 20.246C207.318 20.66 207.453 20.93 207.651 21.056C207.867 21.182 208.227 21.245 208.731 21.245C209.217 21.245 209.748 21.182 210.324 21.056C210.918 20.93 211.377 20.795 211.701 20.651L212.106 21.866C211.674 22.19 210.972 22.505 210 22.811C209.046 23.117 208.173 23.27 207.381 23.27Z" fill="#1A1A1A"/>
<path d="M216.945 5.31502C216.369 5.31502 215.937 5.15302 215.649 4.82902C215.361 4.50502 215.217 4.09102 215.217 3.58702C215.217 3.01102 215.388 2.53402 215.73 2.15603C216.09 1.77802 216.576 1.58902 217.188 1.58902C217.8 1.58902 218.25 1.75102 218.538 2.07502C218.826 2.39902 218.97 2.81302 218.97 3.31702C218.97 3.92902 218.79 4.41502 218.43 4.77503C218.088 5.13503 217.602 5.31502 216.972 5.31502H216.945ZM215.865 10.094L213.813 9.60803V8.17702L217.998 7.66403H218.052L218.673 8.15003V21.461L220.833 21.677V23H213.678V21.677L215.865 21.434V10.094Z" fill="#1A1A1A"/>
<path d="M2.33518 32.9517L1.44508 32.8275V32.31H6.98233L7.08583 34.0695H6.41308L6.10258 32.9206L3.44263 32.8482V35.8497L5.31598 35.8186L5.49193 34.9596H6.04048V37.3815H5.50228L5.31598 36.481L3.44263 36.4396V39.3894L5.05723 39.4929V40H1.50718V39.4929L2.33518 39.3894V32.9517Z" fill="#1A1A1A"/>
<path d="M12.5831 40.0932C12.3899 40.0932 12.245 40.0552 12.1484 39.9793C12.0587 39.9034 12.0139 39.7792 12.0139 39.6067V39.2548C11.7862 39.4825 11.4998 39.6826 11.1548 39.8551C10.8167 40.0276 10.4752 40.1139 10.1302 40.1139C9.48848 40.1139 9.03308 39.9414 8.76398 39.5964C8.49488 39.2514 8.36033 38.6821 8.36033 37.8886V34.8871L7.78073 34.7215V34.2661L9.22973 34.1316H9.24008L9.43673 34.2558V37.8058C9.43673 38.206 9.46433 38.52 9.51953 38.7477C9.58163 38.9685 9.68513 39.1341 9.83003 39.2445C9.98183 39.348 10.1992 39.3997 10.4821 39.3997C10.7581 39.3997 11.0168 39.3411 11.2583 39.2238C11.4998 39.1065 11.7103 38.9685 11.8897 38.8098V34.8871L11.1445 34.7215V34.2661L12.7177 34.1316H12.728L12.9661 34.2558V39.4722H13.5871L13.5767 39.9379C13.3835 39.9862 13.2145 40.0242 13.0696 40.0518C12.9316 40.0794 12.7694 40.0932 12.5831 40.0932Z" fill="#1A1A1A"/>
<path d="M15.1689 32.2789L14.3306 32.1651V31.72L15.9969 31.5234H16.0176L16.2453 31.6786V39.4101L17.1251 39.4929V40H14.3306V39.4929L15.1689 39.3997V32.2789Z" fill="#1A1A1A"/>
<path d="M18.6156 32.2789L17.7772 32.1651V31.72L19.4436 31.5234H19.4643L19.692 31.6786V39.4101L20.5717 39.4929V40H17.7772V39.4929L18.6156 39.3997V32.2789Z" fill="#1A1A1A"/>
<path d="M22.2692 39.172C22.3382 39.2755 22.4831 39.3687 22.7039 39.4515C22.9316 39.5343 23.1696 39.5757 23.418 39.5757C23.8113 39.5757 24.1011 39.4998 24.2874 39.348C24.4737 39.1962 24.5669 38.9857 24.5669 38.7166C24.5669 38.5303 24.5082 38.3682 24.3909 38.2302C24.2736 38.0922 24.108 37.9714 23.8941 37.8679C23.6871 37.7575 23.387 37.6264 22.9937 37.4746C22.4624 37.2745 22.0725 37.0365 21.8241 36.7605C21.5826 36.4776 21.4619 36.1084 21.4619 35.653C21.4619 35.3494 21.5516 35.0838 21.731 34.8561C21.9173 34.6284 22.1691 34.4524 22.4865 34.3282C22.8108 34.1971 23.1696 34.1316 23.5629 34.1316C23.8803 34.1316 24.1563 34.1557 24.3909 34.204C24.6324 34.2523 24.8256 34.3006 24.9705 34.3489C25.1154 34.3972 25.212 34.4283 25.2603 34.4421V35.7255H24.629L24.422 34.9596C24.3806 34.8768 24.2702 34.8078 24.0908 34.7526C23.9114 34.6905 23.7113 34.6594 23.4905 34.6594C23.18 34.6594 22.9281 34.7284 22.7349 34.8664C22.5486 35.0044 22.4555 35.1907 22.4555 35.4253C22.4555 35.6323 22.5038 35.8048 22.6004 35.9428C22.7039 36.0739 22.8315 36.1809 22.9833 36.2637C23.1351 36.3465 23.3421 36.4431 23.6043 36.5535L23.8113 36.6363C24.1977 36.7881 24.5117 36.933 24.7532 37.071C24.9947 37.209 25.1948 37.3918 25.3535 37.6195C25.5191 37.8403 25.6019 38.1129 25.6019 38.4372C25.6019 38.9478 25.4018 39.3549 25.0016 39.6585C24.6083 39.9621 24.0666 40.1139 23.3766 40.1139C23.0385 40.1139 22.6832 40.069 22.3106 39.9793C21.9449 39.8827 21.6447 39.7861 21.4101 39.6895V38.3647H22.0829L22.2692 39.172Z" fill="#1A1A1A"/>
<path d="M28.302 40.1035C27.9087 40.1035 27.6155 40.0138 27.4223 39.8344C27.2291 39.655 27.1325 39.348 27.1325 38.9133V34.9389H26.3873V34.4731C26.4218 34.4662 26.5184 34.4421 26.6771 34.4007C26.8358 34.3593 26.9427 34.3213 26.9979 34.2868C27.1083 34.2247 27.1946 34.1005 27.2567 33.9142C27.3119 33.7831 27.3774 33.5727 27.4533 33.2829C27.5292 32.9931 27.5741 32.8206 27.5879 32.7654H28.1985L28.2192 34.2558H29.9477V34.9389H28.2192V38.1163C28.2192 38.5096 28.2296 38.7856 28.2503 38.9443C28.2779 39.103 28.3296 39.2065 28.4055 39.2548C28.4883 39.3031 28.6263 39.3273 28.8195 39.3273C29.0058 39.3273 29.2094 39.3031 29.4302 39.2548C29.6579 39.2065 29.8338 39.1548 29.958 39.0996L30.1133 39.5653C29.9477 39.6895 29.6786 39.8103 29.306 39.9276C28.9403 40.0449 28.6056 40.1035 28.302 40.1035Z" fill="#1A1A1A"/>
<path d="M30.747 38.4475C30.747 37.7989 31.0713 37.3228 31.7199 37.0192C32.3685 36.7087 33.1896 36.5431 34.1832 36.5224V36.2326C34.1832 35.9083 34.1487 35.653 34.0797 35.4667C34.0107 35.2804 33.8899 35.1459 33.7174 35.0631C33.5518 34.9734 33.3138 34.9285 33.0033 34.9285C32.6514 34.9285 32.334 34.9803 32.0511 35.0838C31.7751 35.1804 31.4991 35.3011 31.2231 35.446L30.9643 34.9078C31.054 34.8319 31.2196 34.7319 31.4611 34.6077C31.7026 34.4835 31.9821 34.3731 32.2995 34.2765C32.6169 34.1799 32.9343 34.1316 33.2517 34.1316C33.7416 34.1316 34.128 34.2006 34.4109 34.3386C34.7007 34.4697 34.9077 34.6836 35.0319 34.9803C35.1561 35.277 35.2182 35.6737 35.2182 36.1705V39.4929H35.8288V39.9483C35.6908 39.9828 35.5149 40.0173 35.301 40.0518C35.094 40.0863 34.9111 40.1035 34.7524 40.1035C34.5592 40.1035 34.4281 40.0725 34.3591 40.0104C34.2901 39.9552 34.2556 39.8275 34.2556 39.6274V39.2859C34.0486 39.4929 33.7933 39.6826 33.4897 39.8551C33.193 40.0276 32.8549 40.1139 32.4754 40.1139C31.9786 40.1139 31.5646 39.9724 31.2334 39.6895C30.9091 39.3997 30.747 38.9857 30.747 38.4475ZM32.9205 39.4101C33.0999 39.4101 33.3069 39.3549 33.5415 39.2445C33.7761 39.1341 33.99 39.003 34.1832 38.8512V37.071C33.4311 37.071 32.8618 37.1883 32.4754 37.4229C32.0959 37.6506 31.9062 37.9507 31.9062 38.3233C31.9062 38.6959 31.9959 38.9719 32.1753 39.1513C32.3616 39.3238 32.61 39.4101 32.9205 39.4101Z" fill="#1A1A1A"/>
<path d="M36.4244 37.1641C36.4244 36.5914 36.5348 36.0739 36.7556 35.6116C36.9833 35.1493 37.3145 34.7836 37.7492 34.5145C38.1908 34.2385 38.7187 34.1005 39.3328 34.1005C39.6295 34.1005 39.8848 34.1281 40.0987 34.1833C40.3126 34.2385 40.5679 34.3144 40.8646 34.411L40.8232 36.0049H40.1504L39.9227 34.9492C39.8813 34.756 39.6191 34.6594 39.1361 34.6594C38.6531 34.6594 38.2702 34.8561 37.9873 35.2494C37.7113 35.6358 37.5733 36.1878 37.5733 36.9054C37.5733 37.7196 37.7285 38.3406 38.039 38.7684C38.3564 39.1893 38.767 39.3997 39.2707 39.3997C39.5605 39.3997 39.833 39.3549 40.0883 39.2652C40.3505 39.1755 40.5748 39.0685 40.7611 38.9443L40.9577 39.3583C40.7714 39.5515 40.4954 39.7275 40.1297 39.8862C39.7709 40.038 39.4052 40.1139 39.0326 40.1139C38.4668 40.1139 37.9873 39.9862 37.594 39.7309C37.2076 39.4756 36.9143 39.1272 36.7142 38.6856C36.521 38.2371 36.4244 37.7299 36.4244 37.1641Z" fill="#1A1A1A"/>
<path d="M42.4036 32.2789L41.5963 32.1651V31.72L43.2419 31.5234H43.2523L43.48 31.6786V36.7398L43.4593 37.3504L45.8501 34.8768L45.0739 34.7319V34.2558H47.5786V34.7319L46.7609 34.8768L45.2395 36.3568L47.206 39.4101L47.8477 39.4929V40H45.3326V39.4929L45.9847 39.3997L44.5253 36.9985L43.4593 38.0542L43.48 38.5821V39.3997L44.2148 39.4929V40H41.7515V39.4929L42.4036 39.3997V32.2789Z" fill="#1A1A1A"/>
<path d="M51.3865 32.9517L50.5792 32.8275V32.31H51.935C52.1489 32.31 52.456 32.2962 52.8562 32.2686C53.2564 32.241 53.5565 32.2272 53.7566 32.2272C55.04 32.2272 55.9922 32.5515 56.6132 33.2001C57.2411 33.8418 57.5551 34.7457 57.5551 35.9118C57.5551 36.726 57.3929 37.4505 57.0686 38.0853C56.7512 38.7132 56.3027 39.2031 55.7231 39.555C55.1435 39.9069 54.4777 40.0828 53.7256 40.0828C53.56 40.0828 53.2771 40.069 52.8769 40.0414C52.4629 40.0138 52.1524 40 51.9454 40H50.5274V39.4929L51.3865 39.3894V32.9517ZM52.4836 39.4204C52.7251 39.4756 53.0356 39.5032 53.4151 39.5032H53.7256C54.2431 39.4963 54.6985 39.3652 55.0918 39.1099C55.492 38.8546 55.8025 38.4751 56.0233 37.9714C56.2441 37.4608 56.3545 36.8433 56.3545 36.1188C56.3545 35.0286 56.1164 34.2006 55.6403 33.6348C55.1711 33.069 54.4604 32.7861 53.5082 32.7861C53.3081 32.7861 53.0701 32.7999 52.7941 32.8275C52.6768 32.8482 52.5733 32.8585 52.4836 32.8585V39.4204Z" fill="#1A1A1A"/>
<path d="M60.9066 40.1139C60.0717 40.1139 59.4334 39.8413 58.9918 39.2962C58.5571 38.7511 58.3398 38.0232 58.3398 37.1124C58.3398 36.5121 58.4536 35.9842 58.6813 35.5288C58.909 35.0734 59.2264 34.7215 59.6335 34.4731C60.0475 34.2247 60.5167 34.1005 61.0411 34.1005C61.6828 34.1005 62.1796 34.2799 62.5315 34.6387C62.8903 34.9906 63.0801 35.4978 63.1008 36.1602C63.1008 36.5811 63.0766 36.9019 63.0283 37.1227H59.4679C59.4817 37.8058 59.6404 38.3578 59.944 38.7787C60.2476 39.1927 60.6789 39.3997 61.2378 39.3997C61.5138 39.3997 61.8001 39.3514 62.0968 39.2548C62.4004 39.1513 62.635 39.0306 62.8006 38.8926L62.9973 39.348C62.7972 39.555 62.5005 39.7344 62.1072 39.8862C61.7139 40.038 61.3137 40.1139 60.9066 40.1139ZM61.9623 36.5742C61.983 36.4293 61.9933 36.2809 61.9933 36.1291C61.9864 35.6806 61.8898 35.3287 61.7035 35.0734C61.5241 34.8112 61.2378 34.6801 60.8445 34.6801C60.4443 34.6801 60.1234 34.825 59.8819 35.1148C59.6473 35.4046 59.5128 35.8911 59.4783 36.5742H61.9623Z" fill="#1A1A1A"/>
<path d="M63.5142 34.2558H65.9154V34.7422L65.1805 34.8768L66.2259 37.8576L66.6606 39.172L67.0332 37.899L68.0785 34.8768L67.3747 34.7422V34.2558H69.4758V34.7422L68.9376 34.8768L66.94 40.0828H66.0603L63.9799 34.8768L63.5142 34.7422V34.2558Z" fill="#1A1A1A"/>
<path d="M72.4189 40.1139C71.584 40.1139 70.9458 39.8413 70.5042 39.2962C70.0695 38.7511 69.8521 38.0232 69.8521 37.1124C69.8521 36.5121 69.966 35.9842 70.1937 35.5288C70.4214 35.0734 70.7388 34.7215 71.1459 34.4731C71.5599 34.2247 72.0291 34.1005 72.5535 34.1005C73.1952 34.1005 73.692 34.2799 74.0439 34.6387C74.4027 34.9906 74.5924 35.4978 74.6131 36.1602C74.6131 36.5811 74.589 36.9019 74.5407 37.1227H70.9803C70.9941 37.8058 71.1528 38.3578 71.4564 38.7787C71.76 39.1927 72.1912 39.3997 72.7501 39.3997C73.0261 39.3997 73.3125 39.3514 73.6092 39.2548C73.9128 39.1513 74.1474 39.0306 74.313 38.8926L74.5096 39.348C74.3095 39.555 74.0128 39.7344 73.6195 39.8862C73.2262 40.038 72.826 40.1139 72.4189 40.1139ZM73.4746 36.5742C73.4953 36.4293 73.5057 36.2809 73.5057 36.1291C73.4988 35.6806 73.4022 35.3287 73.2159 35.0734C73.0365 34.8112 72.7501 34.6801 72.3568 34.6801C71.9566 34.6801 71.6358 34.825 71.3943 35.1148C71.1597 35.4046 71.0251 35.8911 70.9906 36.5742H73.4746Z" fill="#1A1A1A"/>
<path d="M76.2582 32.2789L75.4198 32.1651V31.72L77.0862 31.5234H77.1069L77.3346 31.6786V39.4101L78.2143 39.4929V40H75.4198V39.4929L76.2582 39.3997V32.2789Z" fill="#1A1A1A"/>
<path d="M78.9493 37.1124C78.9493 36.4914 79.0769 35.9532 79.3322 35.4978C79.5875 35.0424 79.9222 34.6974 80.3362 34.4628C80.7571 34.2213 81.2056 34.1005 81.6817 34.1005C82.5511 34.1005 83.2031 34.3765 83.6378 34.9285C84.0794 35.4805 84.3002 36.205 84.3002 37.102C84.3002 37.7299 84.1726 38.2716 83.9173 38.727C83.662 39.1824 83.3239 39.5274 82.903 39.762C82.489 39.9966 82.0439 40.1139 81.5678 40.1139C80.6984 40.1139 80.0429 39.8379 79.6013 39.2859C79.1666 38.7339 78.9493 38.0094 78.9493 37.1124ZM81.6299 39.5239C82.106 39.5239 82.4717 39.3273 82.727 38.934C82.9823 38.5407 83.11 37.9576 83.11 37.1848C83.11 36.4189 82.9927 35.8117 82.7581 35.3632C82.5235 34.9147 82.1474 34.6905 81.6299 34.6905C81.1538 34.6905 80.7847 34.8871 80.5225 35.2804C80.2672 35.6737 80.1395 36.2568 80.1395 37.0296C80.1395 37.7955 80.2603 38.4027 80.5018 38.8512C80.7433 39.2997 81.1193 39.5239 81.6299 39.5239Z" fill="#1A1A1A"/>
<path d="M90.8456 36.9261C90.8456 37.5126 90.7248 38.0508 90.4833 38.5407C90.2418 39.0237 89.8968 39.4066 89.4483 39.6895C88.9998 39.9724 88.4754 40.1139 87.8751 40.1139C87.7095 40.1139 87.5301 40.1001 87.3369 40.0725C87.1437 40.0449 86.9885 40.0104 86.8712 39.969L86.9022 40.8384V41.8837L87.9786 41.9976V42.5047H85.091V41.9976L85.8362 41.8837V35.0527L85.0806 34.8664V34.3075L86.5503 34.1212H86.571L86.7884 34.3075V34.9182C86.9954 34.6905 87.2507 34.4973 87.5543 34.3386C87.8648 34.1799 88.2097 34.1005 88.5892 34.1005C88.9963 34.1005 89.369 34.2006 89.7071 34.4007C90.0521 34.6008 90.328 34.9113 90.535 35.3322C90.742 35.7531 90.8456 36.2844 90.8456 36.9261ZM88.1649 34.825C87.9027 34.825 87.6578 34.8802 87.4301 34.9906C87.2024 35.101 87.0264 35.2218 86.9022 35.3529V39.2548C86.9505 39.3376 87.0713 39.4135 87.2645 39.4825C87.4646 39.5446 87.6819 39.5757 87.9165 39.5757C88.4478 39.5757 88.8756 39.3652 89.1999 38.9443C89.5311 38.5234 89.6967 37.8886 89.6967 37.0399C89.6967 36.2947 89.5518 35.7393 89.262 35.3736C88.9791 35.0079 88.6134 34.825 88.1649 34.825Z" fill="#1A1A1A"/>
<path d="M94.2914 40.1139C93.4565 40.1139 92.8182 39.8413 92.3766 39.2962C91.9419 38.7511 91.7246 38.0232 91.7246 37.1124C91.7246 36.5121 91.8384 35.9842 92.0661 35.5288C92.2938 35.0734 92.6112 34.7215 93.0183 34.4731C93.4323 34.2247 93.9015 34.1005 94.4259 34.1005C95.0676 34.1005 95.5644 34.2799 95.9163 34.6387C96.2751 34.9906 96.4649 35.4978 96.4856 36.1602C96.4856 36.5811 96.4614 36.9019 96.4131 37.1227H92.8527C92.8665 37.8058 93.0252 38.3578 93.3288 38.7787C93.6324 39.1927 94.0637 39.3997 94.6226 39.3997C94.8986 39.3997 95.1849 39.3514 95.4816 39.2548C95.7852 39.1513 96.0198 39.0306 96.1854 38.8926L96.3821 39.348C96.182 39.555 95.8853 39.7344 95.492 39.8862C95.0987 40.038 94.6985 40.1139 94.2914 40.1139ZM95.3471 36.5742C95.3678 36.4293 95.3781 36.2809 95.3781 36.1291C95.3712 35.6806 95.2746 35.3287 95.0883 35.0734C94.9089 34.8112 94.6226 34.6801 94.2293 34.6801C93.8291 34.6801 93.5082 34.825 93.2667 35.1148C93.0321 35.4046 92.8976 35.8911 92.8631 36.5742H95.3471Z" fill="#1A1A1A"/>
<path d="M97.3958 39.4929L98.1721 39.4308V35.0527L97.4269 34.8664V34.3075L98.8552 34.1212H98.8759L99.1036 34.3075V34.4938L99.0725 35.3011H99.1036C99.1726 35.1838 99.2968 35.032 99.4762 34.8457C99.6556 34.6594 99.8867 34.4904 100.17 34.3386C100.453 34.1799 100.76 34.1005 101.091 34.1005C101.229 34.1005 101.343 34.1178 101.432 34.1523V35.3115C101.384 35.277 101.305 35.2459 101.194 35.2183C101.091 35.1838 100.973 35.1666 100.842 35.1666C100.27 35.1666 99.7384 35.3425 99.2485 35.6944V39.4204L100.563 39.5032V40H97.3958V39.4929Z" fill="#1A1A1A"/>
<path d="M106.207 37.5367C105.945 37.5367 105.724 37.4367 105.544 37.2366C105.365 37.0365 105.272 36.795 105.265 36.5121C105.265 36.2223 105.369 35.9808 105.576 35.7876C105.783 35.5944 106.024 35.4978 106.3 35.4978C106.569 35.4978 106.793 35.5944 106.973 35.7876C107.152 35.9739 107.242 36.2154 107.242 36.5121C107.242 36.795 107.138 37.0365 106.931 37.2366C106.724 37.4367 106.483 37.5367 106.207 37.5367Z" fill="#1A1A1A"/>
<path d="M112.379 32.9517L111.416 32.8275V32.31H114.459V32.8275L113.497 32.9517V39.3894L114.459 39.5032V40H111.427V39.4929L112.379 39.3894V32.9517Z" fill="#1A1A1A"/>
<path d="M118.033 32.8585L116.253 32.9206L115.891 35.0838H115.208L115.384 32.31H121.832L121.956 35.0838H121.304L120.963 32.9206L119.172 32.8585V39.3894L120.642 39.4929V40H116.688V39.4929L118.033 39.3894V32.8585Z" fill="#1A1A1A"/>
<path d="M127.539 37.0606H123.357V36.3051H127.539V37.0606Z" fill="#1A1A1A"/>
<path d="M131.699 40.1139C131.34 40.1139 131.019 40.0828 130.736 40.0207C130.453 39.9586 130.143 39.8758 129.805 39.7723C129.598 39.6964 129.442 39.655 129.339 39.6481L129.422 37.7748H130.084L130.26 39.1203C130.377 39.2307 130.567 39.3307 130.829 39.4204C131.098 39.5032 131.392 39.5446 131.709 39.5446C132.233 39.5446 132.63 39.4273 132.899 39.1927C133.175 38.9581 133.313 38.6338 133.313 38.2198C133.313 37.9507 133.237 37.7196 133.086 37.5264C132.941 37.3332 132.744 37.1676 132.496 37.0296C132.254 36.8916 131.919 36.7294 131.492 36.5431C131.105 36.3706 130.767 36.1947 130.477 36.0153C130.195 35.8359 129.946 35.5978 129.732 35.3011C129.525 34.9975 129.422 34.6353 129.422 34.2144C129.422 33.8349 129.522 33.4968 129.722 33.2001C129.929 32.8965 130.222 32.6584 130.602 32.4859C130.988 32.3134 131.436 32.2272 131.947 32.2272C132.264 32.2272 132.544 32.2513 132.785 32.2996C133.034 32.3479 133.313 32.4135 133.624 32.4963C133.762 32.5446 133.879 32.5756 133.976 32.5894L133.914 34.3282H133.282L133.075 33.0552C133.006 32.9862 132.861 32.9206 132.641 32.8585C132.427 32.7964 132.192 32.7654 131.937 32.7654C131.461 32.7654 131.098 32.8654 130.85 33.0655C130.609 33.2656 130.488 33.5554 130.488 33.9349C130.488 34.2109 130.56 34.4421 130.705 34.6284C130.857 34.8147 131.043 34.9734 131.264 35.1045C131.485 35.2356 131.837 35.415 132.32 35.6427C132.768 35.8566 133.134 36.0498 133.417 36.2223C133.7 36.3948 133.941 36.6225 134.141 36.9054C134.348 37.1814 134.452 37.5126 134.452 37.899C134.452 38.2647 134.348 38.6166 134.141 38.9547C133.941 39.2928 133.631 39.5722 133.21 39.793C132.796 40.0069 132.292 40.1139 131.699 40.1139Z" fill="#1A1A1A"/>
<path d="M135.308 37.1124C135.308 36.4914 135.436 35.9532 135.691 35.4978C135.947 35.0424 136.281 34.6974 136.695 34.4628C137.116 34.2213 137.565 34.1005 138.041 34.1005C138.91 34.1005 139.562 34.3765 139.997 34.9285C140.438 35.4805 140.659 36.205 140.659 37.102C140.659 37.7299 140.532 38.2716 140.276 38.727C140.021 39.1824 139.683 39.5274 139.262 39.762C138.848 39.9966 138.403 40.1139 137.927 40.1139C137.057 40.1139 136.402 39.8379 135.96 39.2859C135.526 38.7339 135.308 38.0094 135.308 37.1124ZM137.989 39.5239C138.465 39.5239 138.831 39.3273 139.086 38.934C139.341 38.5407 139.469 37.9576 139.469 37.1848C139.469 36.4189 139.352 35.8117 139.117 35.3632C138.882 34.9147 138.506 34.6905 137.989 34.6905C137.513 34.6905 137.144 34.8871 136.881 35.2804C136.626 35.6737 136.499 36.2568 136.499 37.0296C136.499 37.7955 136.619 38.4027 136.861 38.8512C137.102 39.2997 137.478 39.5239 137.989 39.5239Z" fill="#1A1A1A"/>
<path d="M142.361 32.2789L141.522 32.1651V31.72L143.189 31.5234H143.209L143.437 31.6786V39.4101L144.317 39.4929V40H141.522V39.4929L142.361 39.3997V32.2789Z" fill="#1A1A1A"/>
<path d="M149.761 40.0932C149.568 40.0932 149.423 40.0552 149.326 39.9793C149.237 39.9034 149.192 39.7792 149.192 39.6067V39.2548C148.964 39.4825 148.678 39.6826 148.333 39.8551C147.995 40.0276 147.653 40.1139 147.308 40.1139C146.666 40.1139 146.211 39.9414 145.942 39.5964C145.673 39.2514 145.538 38.6821 145.538 37.8886V34.8871L144.959 34.7215V34.2661L146.408 34.1316H146.418L146.615 34.2558V37.8058C146.615 38.206 146.642 38.52 146.697 38.7477C146.76 38.9685 146.863 39.1341 147.008 39.2445C147.16 39.348 147.377 39.3997 147.66 39.3997C147.936 39.3997 148.195 39.3411 148.436 39.2238C148.678 39.1065 148.888 38.9685 149.068 38.8098V34.8871L148.322 34.7215V34.2661L149.896 34.1316H149.906L150.144 34.2558V39.4722H150.765L150.755 39.9379C150.561 39.9862 150.392 40.0242 150.248 40.0518C150.11 40.0794 149.947 40.0932 149.761 40.0932Z" fill="#1A1A1A"/>
<path d="M153.361 40.1035C152.968 40.1035 152.675 40.0138 152.481 39.8344C152.288 39.655 152.192 39.348 152.192 38.9133V34.9389H151.446V34.4731C151.481 34.4662 151.578 34.4421 151.736 34.4007C151.895 34.3593 152.002 34.3213 152.057 34.2868C152.167 34.2247 152.254 34.1005 152.316 33.9142C152.371 33.7831 152.437 33.5727 152.512 33.2829C152.588 32.9931 152.633 32.8206 152.647 32.7654H153.258L153.278 34.2558H155.007V34.9389H153.278V38.1163C153.278 38.5096 153.289 38.7856 153.309 38.9443C153.337 39.103 153.389 39.2065 153.465 39.2548C153.547 39.3031 153.685 39.3273 153.879 39.3273C154.065 39.3273 154.269 39.3031 154.489 39.2548C154.717 39.2065 154.893 39.1548 155.017 39.0996L155.172 39.5653C155.007 39.6895 154.738 39.8103 154.365 39.9276C153.999 40.0449 153.665 40.1035 153.361 40.1035Z" fill="#1A1A1A"/>
<path d="M157.027 33.2208C156.807 33.2208 156.641 33.1587 156.531 33.0345C156.42 32.9103 156.365 32.7516 156.365 32.5584C156.365 32.3376 156.431 32.1547 156.562 32.0098C156.7 31.8649 156.886 31.7925 157.121 31.7925C157.355 31.7925 157.528 31.8546 157.638 31.9788C157.748 32.103 157.804 32.2617 157.804 32.4549C157.804 32.6895 157.735 32.8758 157.597 33.0138C157.466 33.1518 157.279 33.2208 157.038 33.2208H157.027ZM156.613 35.0527L155.827 34.8664V34.3179L157.431 34.1212H157.452L157.69 34.3075V39.4101L158.518 39.4929V40H155.775V39.4929L156.613 39.3997V35.0527Z" fill="#1A1A1A"/>
<path d="M159.253 37.1124C159.253 36.4914 159.38 35.9532 159.636 35.4978C159.891 35.0424 160.226 34.6974 160.64 34.4628C161.061 34.2213 161.509 34.1005 161.985 34.1005C162.855 34.1005 163.507 34.3765 163.941 34.9285C164.383 35.4805 164.604 36.205 164.604 37.102C164.604 37.7299 164.476 38.2716 164.221 38.727C163.965 39.1824 163.627 39.5274 163.206 39.762C162.792 39.9966 162.347 40.1139 161.871 40.1139C161.002 40.1139 160.346 39.8379 159.905 39.2859C159.47 38.7339 159.253 38.0094 159.253 37.1124ZM161.933 39.5239C162.409 39.5239 162.775 39.3273 163.031 38.934C163.286 38.5407 163.413 37.9576 163.413 37.1848C163.413 36.4189 163.296 35.8117 163.062 35.3632C162.827 34.9147 162.451 34.6905 161.933 34.6905C161.457 34.6905 161.088 34.8871 160.826 35.2804C160.571 35.6737 160.443 36.2568 160.443 37.0296C160.443 37.7955 160.564 38.4027 160.805 38.8512C161.047 39.2997 161.423 39.5239 161.933 39.5239Z" fill="#1A1A1A"/>
<path d="M166.171 35.0527L165.425 34.8664V34.3075L166.906 34.1212H166.937L167.154 34.3075V34.7422L167.144 34.9906C167.392 34.7698 167.72 34.5697 168.127 34.3903C168.534 34.2109 168.924 34.1212 169.296 34.1212C169.731 34.1212 170.066 34.204 170.3 34.3696C170.542 34.5352 170.711 34.7905 170.807 35.1355C170.904 35.4736 170.952 35.9325 170.952 36.5121V39.4101L171.677 39.4825V40H169.224V39.4929L169.866 39.4101V36.5017C169.866 36.0946 169.838 35.7772 169.783 35.5495C169.728 35.3149 169.624 35.1424 169.472 35.032C169.321 34.9147 169.1 34.8561 168.81 34.8561C168.562 34.8561 168.296 34.9182 168.013 35.0424C167.73 35.1666 167.478 35.3115 167.257 35.4771V39.3997L167.961 39.4929V40H165.519V39.4929L166.171 39.3997V35.0527Z" fill="#1A1A1A"/>
<path d="M177.415 32.2479H178.553L181.068 39.3894L181.71 39.4929V40H178.977V39.4929L179.836 39.3894L179.35 37.8576H176.328L175.841 39.3894L176.731 39.4929V40H174.279V39.4929L174.92 39.3894L177.415 32.2479ZM178.067 33.9039L177.808 32.9931L177.559 33.9246L176.514 37.2469H179.153L178.067 33.9039Z" fill="#1A1A1A"/>
<path d="M182.066 39.4929L182.842 39.4308V35.0527L182.097 34.8664V34.3075L183.525 34.1212H183.546L183.773 34.3075V34.4938L183.742 35.3011H183.773C183.842 35.1838 183.967 35.032 184.146 34.8457C184.325 34.6594 184.557 34.4904 184.839 34.3386C185.122 34.1799 185.429 34.1005 185.761 34.1005C185.899 34.1005 186.012 34.1178 186.102 34.1523V35.3115C186.054 35.277 185.975 35.2459 185.864 35.2183C185.761 35.1838 185.643 35.1666 185.512 35.1666C184.94 35.1666 184.408 35.3425 183.918 35.6944V39.4204L185.233 39.5032V40H182.066V39.4929Z" fill="#1A1A1A"/>
<path d="M186.661 37.1641C186.661 36.5914 186.772 36.0739 186.992 35.6116C187.22 35.1493 187.551 34.7836 187.986 34.5145C188.428 34.2385 188.955 34.1005 189.57 34.1005C189.866 34.1005 190.122 34.1281 190.335 34.1833C190.549 34.2385 190.805 34.3144 191.101 34.411L191.06 36.0049H190.387L190.159 34.9492C190.118 34.756 189.856 34.6594 189.373 34.6594C188.89 34.6594 188.507 34.8561 188.224 35.2494C187.948 35.6358 187.81 36.1878 187.81 36.9054C187.81 37.7196 187.965 38.3406 188.276 38.7684C188.593 39.1893 189.004 39.3997 189.507 39.3997C189.797 39.3997 190.07 39.3549 190.325 39.2652C190.587 39.1755 190.812 39.0685 190.998 38.9443L191.194 39.3583C191.008 39.5515 190.732 39.7275 190.366 39.8862C190.008 40.038 189.642 40.1139 189.269 40.1139C188.704 40.1139 188.224 39.9862 187.831 39.7309C187.444 39.4756 187.151 39.1272 186.951 38.6856C186.758 38.2371 186.661 37.7299 186.661 37.1641Z" fill="#1A1A1A"/>
<path d="M192.651 32.2789L191.781 32.1651V31.72L193.468 31.5234H193.489L193.717 31.6786V34.0798L193.675 34.9596C193.896 34.7595 194.2 34.5697 194.586 34.3903C194.973 34.2109 195.362 34.1212 195.756 34.1212C196.19 34.1212 196.528 34.204 196.77 34.3696C197.011 34.5352 197.18 34.7905 197.277 35.1355C197.374 35.4736 197.422 35.9325 197.422 36.5121V39.3997L198.146 39.4929V40H195.673V39.4929L196.346 39.3997V36.5017C196.346 36.0946 196.318 35.7772 196.263 35.5495C196.208 35.3149 196.104 35.1424 195.952 35.032C195.801 34.9147 195.573 34.8561 195.269 34.8561C195.021 34.8561 194.755 34.9182 194.472 35.0424C194.189 35.1666 193.941 35.3115 193.727 35.4771V39.3997L194.441 39.4929V40H192.03V39.4929L192.651 39.4101V32.2789Z" fill="#1A1A1A"/>
<path d="M200.136 33.2208C199.915 33.2208 199.749 33.1587 199.639 33.0345C199.528 32.9103 199.473 32.7516 199.473 32.5584C199.473 32.3376 199.539 32.1547 199.67 32.0098C199.808 31.8649 199.994 31.7925 200.229 31.7925C200.463 31.7925 200.636 31.8546 200.746 31.9788C200.857 32.103 200.912 32.2617 200.912 32.4549C200.912 32.6895 200.843 32.8758 200.705 33.0138C200.574 33.1518 200.387 33.2208 200.146 33.2208H200.136ZM199.722 35.0527L198.935 34.8664V34.3179L200.539 34.1212H200.56L200.798 34.3075V39.4101L201.626 39.4929V40H198.883V39.4929L199.722 39.3997V35.0527Z" fill="#1A1A1A"/>
<path d="M204.131 40.1035C203.737 40.1035 203.444 40.0138 203.251 39.8344C203.058 39.655 202.961 39.348 202.961 38.9133V34.9389H202.216V34.4731C202.251 34.4662 202.347 34.4421 202.506 34.4007C202.664 34.3593 202.771 34.3213 202.827 34.2868C202.937 34.2247 203.023 34.1005 203.085 33.9142C203.141 33.7831 203.206 33.5727 203.282 33.2829C203.358 32.9931 203.403 32.8206 203.417 32.7654H204.027L204.048 34.2558H205.776V34.9389H204.048V38.1163C204.048 38.5096 204.058 38.7856 204.079 38.9443C204.107 39.103 204.158 39.2065 204.234 39.2548C204.317 39.3031 204.455 39.3273 204.648 39.3273C204.835 39.3273 205.038 39.3031 205.259 39.2548C205.487 39.2065 205.663 39.1548 205.787 39.0996L205.942 39.5653C205.776 39.6895 205.507 39.8103 205.135 39.9276C204.769 40.0449 204.434 40.1035 204.131 40.1035Z" fill="#1A1A1A"/>
<path d="M209.122 40.1139C208.287 40.1139 207.649 39.8413 207.207 39.2962C206.772 38.7511 206.555 38.0232 206.555 37.1124C206.555 36.5121 206.669 35.9842 206.897 35.5288C207.124 35.0734 207.442 34.7215 207.849 34.4731C208.263 34.2247 208.732 34.1005 209.256 34.1005C209.898 34.1005 210.395 34.2799 210.747 34.6387C211.106 34.9906 211.295 35.4978 211.316 36.1602C211.316 36.5811 211.292 36.9019 211.244 37.1227H207.683C207.697 37.8058 207.856 38.3578 208.159 38.7787C208.463 39.1927 208.894 39.3997 209.453 39.3997C209.729 39.3997 210.015 39.3514 210.312 39.2548C210.616 39.1513 210.85 39.0306 211.016 38.8926L211.212 39.348C211.012 39.555 210.716 39.7344 210.322 39.8862C209.929 40.038 209.529 40.1139 209.122 40.1139ZM210.178 36.5742C210.198 36.4293 210.209 36.2809 210.209 36.1291C210.202 35.6806 210.105 35.3287 209.919 35.0734C209.739 34.8112 209.453 34.6801 209.06 34.6801C208.66 34.6801 208.339 34.825 208.097 35.1148C207.863 35.4046 207.728 35.8911 207.693 36.5742H210.178Z" fill="#1A1A1A"/>
<path d="M212.081 37.1641C212.081 36.5914 212.192 36.0739 212.413 35.6116C212.64 35.1493 212.971 34.7836 213.406 34.5145C213.848 34.2385 214.376 34.1005 214.99 34.1005C215.286 34.1005 215.542 34.1281 215.756 34.1833C215.969 34.2385 216.225 34.3144 216.521 34.411L216.48 36.0049H215.807L215.58 34.9492C215.538 34.756 215.276 34.6594 214.793 34.6594C214.31 34.6594 213.927 34.8561 213.644 35.2494C213.368 35.6358 213.23 36.1878 213.23 36.9054C213.23 37.7196 213.385 38.3406 213.696 38.7684C214.013 39.1893 214.424 39.3997 214.928 39.3997C215.217 39.3997 215.49 39.3549 215.745 39.2652C216.007 39.1755 216.232 39.0685 216.418 38.9443L216.615 39.3583C216.428 39.5515 216.152 39.7275 215.787 39.8862C215.428 40.038 215.062 40.1139 214.69 40.1139C214.124 40.1139 213.644 39.9862 213.251 39.7309C212.864 39.4756 212.571 39.1272 212.371 38.6856C212.178 38.2371 212.081 37.7299 212.081 37.1641Z" fill="#1A1A1A"/>
<path d="M219.282 40.1035C218.888 40.1035 218.595 40.0138 218.402 39.8344C218.209 39.655 218.112 39.348 218.112 38.9133V34.9389H217.367V34.4731C217.402 34.4662 217.498 34.4421 217.657 34.4007C217.816 34.3593 217.922 34.3213 217.978 34.2868C218.088 34.2247 218.174 34.1005 218.236 33.9142C218.292 33.7831 218.357 33.5727 218.433 33.2829C218.509 32.9931 218.554 32.8206 218.568 32.7654H219.178L219.199 34.2558H220.927V34.9389H219.199V38.1163C219.199 38.5096 219.209 38.7856 219.23 38.9443C219.258 39.103 219.309 39.2065 219.385 39.2548C219.468 39.3031 219.606 39.3273 219.799 39.3273C219.986 39.3273 220.189 39.3031 220.41 39.2548C220.638 39.2065 220.814 39.1548 220.938 39.0996L221.093 39.5653C220.927 39.6895 220.658 39.8103 220.286 39.9276C219.92 40.0449 219.585 40.1035 219.282 40.1035Z" fill="#1A1A1A"/>
</svg>
