<svg width="100" height="100" viewBox="0 0 100 100" fill="none" xmlns="http://www.w3.org/2000/svg">
<path d="M26.3478 69.2983C26.3475 70.0108 26.136 70.7073 25.74 71.2995C25.3439 71.8918 24.7812 72.3534 24.1229 72.6259C23.4645 72.8984 22.7402 72.9695 22.0414 72.8304C21.3426 72.6912 20.7008 72.348 20.1971 71.8441C19.6934 71.3402 19.3504 70.6983 19.2115 69.9994C19.0726 69.3006 19.144 68.5763 19.4167 67.9181C19.6894 67.2598 20.1512 66.6972 20.7436 66.3014C21.3361 65.9056 22.0326 65.6943 22.745 65.6943C23.2183 65.6943 23.6869 65.7876 24.124 65.9687C24.5612 66.1498 24.9584 66.4153 25.293 66.75C25.6276 67.0847 25.8929 67.482 26.0739 67.9192C26.2549 68.3565 26.3479 68.8251 26.3478 69.2983Z" fill="#82348C"/>
<path d="M42.0095 43.5123C42.0095 44.0417 41.8525 44.5591 41.5584 44.9992C41.2644 45.4394 40.8464 45.7824 40.3573 45.985C39.8683 46.1875 39.3301 46.2405 38.811 46.1373C38.2918 46.034 37.8149 45.7791 37.4406 45.4048C37.0663 45.0305 36.8114 44.5536 36.7082 44.0344C36.6049 43.5153 36.6579 42.9772 36.8605 42.4881C37.063 41.9991 37.4061 41.5811 37.8462 41.287C38.2863 40.9929 38.8038 40.8359 39.3331 40.8359C40.0429 40.8359 40.7237 41.1179 41.2256 41.6198C41.7275 42.1217 42.0095 42.8025 42.0095 43.5123Z" fill="#95C020"/>
<path d="M61.1992 33.2159C61.1992 33.4679 61.1245 33.7142 60.9845 33.9237C60.8445 34.1333 60.6455 34.2966 60.4127 34.393C60.1799 34.4894 59.9237 34.5146 59.6766 34.4655C59.4295 34.4163 59.2025 34.295 59.0243 34.1168C58.8461 33.9386 58.7248 33.7116 58.6756 33.4645C58.6264 33.2173 58.6517 32.9612 58.7481 32.7284C58.8445 32.4956 59.0078 32.2966 59.2173 32.1566C59.4269 32.0166 59.6732 31.9419 59.9252 31.9419C60.2631 31.9419 60.5871 32.0761 60.826 32.3151C61.065 32.554 61.1992 32.878 61.1992 33.2159Z" fill="#82348C"/>
<path d="M28.2453 28.274C28.2453 28.5262 28.1705 28.7728 28.0303 28.9824C27.89 29.192 27.6908 29.3553 27.4577 29.4516C27.2246 29.5479 26.9681 29.5728 26.7209 29.5232C26.4736 29.4736 26.2466 29.3518 26.0686 29.1731C25.8906 28.9944 25.7697 28.7669 25.7211 28.5194C25.6725 28.272 25.6985 28.0156 25.7957 27.7829C25.8929 27.5502 26.057 27.3516 26.2672 27.2122C26.4774 27.0729 26.7242 26.999 26.9764 27C27.3133 27.0017 27.6359 27.1366 27.8736 27.3753C28.1114 27.6141 28.245 27.9371 28.2453 28.274Z" fill="#82348C"/>
<path d="M38.4266 61.7991C37.041 61.7092 36.5483 61.3513 36.4585 60.3877C35.9453 60.8355 35.7208 61.0138 35.3859 61.1935C34.7286 61.5601 33.9907 61.7581 33.2381 61.7695C31.6061 61.7695 30.5322 60.7188 30.5322 59.1086C30.5322 57.6331 31.3149 56.6477 32.7916 56.2859L36.302 55.4584V53.6339C36.302 52.8064 35.6758 52.3817 34.3774 52.3817C33.3266 52.3817 32.8378 52.6729 32.8378 53.2542C32.8412 53.3871 32.8714 53.518 32.9263 53.6391L31.2276 53.997C31.0995 53.8142 31.0363 53.5938 31.048 53.3709C31.048 52.0302 32.5248 51.1128 34.6931 51.1128C36.7292 51.1128 38.0032 52.0738 38.0032 53.6391V59.8566C38.0481 60.1247 38.3163 60.3043 38.8308 60.3929L38.4266 61.7991ZM36.302 56.8787L32.5004 57.8679C32.254 58.3375 32.2104 58.5607 32.2104 58.9636C32.2104 59.768 32.7467 60.2825 33.5743 60.2825C34.3338 60.2825 34.8483 60.0362 36.302 58.9854V56.8787Z" fill="#82348C"/>
<path d="M48.7587 52.7882C49.1705 53.4108 49.381 54.1449 49.3617 54.8911C49.3617 56.9439 47.5513 58.7145 45.4267 58.7145C45.2919 58.7145 45.0905 58.6927 44.8005 58.6696C44.7325 58.6696 44.6209 58.6478 44.4644 58.6478C43.5252 59.4304 43.1454 59.8782 43.1454 60.1682C43.1454 60.4363 43.3687 60.5261 43.9948 60.5261H47.7746C49.6529 60.5261 50.5023 61.2639 50.5023 62.8959C50.5023 65.2669 48.0645 67.1683 45.0238 67.1683C42.8991 67.1683 41.0657 66.0495 41.0657 64.7306C41.0903 64.3613 41.1973 64.0023 41.3787 63.6798C41.6687 63.1204 41.9599 62.7406 42.7208 61.9349C41.6944 61.6436 41.2671 61.3088 41.2671 60.7276C41.2671 60.0783 41.8932 59.3162 43.2571 58.2C41.9817 57.5072 41.312 56.3884 41.312 54.9796C41.312 52.6984 42.9889 51.1113 45.3599 51.1113C46.0977 51.1113 46.5223 51.1999 47.5064 51.536H49.046L50.8897 51.3769V52.7882H48.7587ZM47.7746 62.0696H43.9948L43.6599 62.5828C43.0107 63.5887 42.8093 63.9941 42.8093 64.3713C42.8093 65.1322 43.8165 65.6685 45.1803 65.6685C47.2331 65.6685 49.0935 64.4611 49.0935 63.1024C49.0935 62.4045 48.6688 62.0696 47.7746 62.0696ZM45.2445 52.3854C44.0153 52.3854 43.0082 53.526 43.0082 54.9129C43.0082 56.2999 44.0153 57.4405 45.2676 57.4405C46.5416 57.4405 47.5257 56.3448 47.5257 54.9129C47.5282 53.5054 46.5275 52.3828 45.2445 52.3828V52.3854Z" fill="#82348C"/>
<path d="M54.0801 48.9399C53.8634 48.9399 53.6515 48.8757 53.4713 48.7553C53.2911 48.6349 53.1507 48.4638 53.0678 48.2635C52.9848 48.0633 52.9632 47.843 53.0054 47.6305C53.0477 47.4179 53.1521 47.2227 53.3053 47.0695C53.4585 46.9162 53.6538 46.8119 53.8663 46.7696C54.0789 46.7273 54.2992 46.749 54.4994 46.8319C54.6996 46.9149 54.8707 47.0553 54.9911 47.2355C55.1115 47.4157 55.1758 47.6275 55.1758 47.8442C55.1758 48.1348 55.0603 48.4135 54.8548 48.619C54.6494 48.8245 54.3707 48.9399 54.0801 48.9399ZM53.2307 61.5135V51.3777H54.9076V61.5135H53.2307Z" fill="#82348C"/>
<path d="M63.5398 53.2107C63.2037 52.9207 63.0266 52.8078 62.8239 52.8078C62.1978 52.8078 61.392 53.7252 60.4311 55.4701V61.5131H58.7542V51.3773H60.4311V53.2158C61.6833 51.6057 62.3094 51.1143 63.0702 51.1143C63.4551 51.1143 63.9196 51.3606 64.3674 51.8071L63.5398 53.2107Z" fill="#95C020"/>
<path d="M67.0944 56.2969C67.0944 58.7565 68.3466 60.255 70.4045 60.255C71.3027 60.255 71.9442 60.0087 73.0437 59.2479L73.7147 60.5681C72.2162 61.5073 71.3655 61.7985 70.0466 61.7985C67.2239 61.7985 65.3276 59.6507 65.3276 56.4535C65.3276 53.2331 67.2291 51.1084 70.1133 51.1084C72.4843 51.1084 74.0278 52.7853 74.0278 55.3128V56.2969H67.0944ZM70.0055 52.6288C68.5942 52.6288 67.6127 53.4781 67.2329 55.0447H72.1969C72.1713 53.4781 71.3886 52.6288 70.0055 52.6288Z" fill="#95C020"/>
<path d="M16.2478 55.475C15.646 54.1676 14.7543 52.4034 13.8921 50.7073C13.0146 48.9662 12.1806 47.3214 11.6379 46.1295C11.495 45.8157 11.4825 45.4581 11.6033 45.1352C11.7241 44.8123 11.9682 44.5506 12.282 44.4077C12.5957 44.2647 12.9534 44.2523 13.2763 44.3731C13.5992 44.4939 13.8609 44.738 14.0038 45.0517C14.517 46.1923 15.3497 47.8154 16.2157 49.5282C16.6609 50.4058 17.1138 51.2975 17.5334 52.1417C19.2937 49.0625 22.4717 43.4428 26.0821 36.979C26.1148 36.9203 26.153 36.8649 26.1963 36.8135H10.4742C10.0831 36.8145 9.70832 36.9705 9.432 37.2473C9.15568 37.5241 9.00034 37.8991 9 38.2902V54.0842C8.99966 54.4754 9.15457 54.8508 9.43072 55.1279C9.70687 55.405 10.0817 55.5612 10.4729 55.5622H16.2914L16.2478 55.475Z" fill="#95C020"/>
<path d="M18.5715 55.5579H26.2696C26.6603 55.5569 27.0347 55.4012 27.3109 55.125C27.5872 54.8487 27.7428 54.4743 27.7438 54.0837V39.3418C23.261 47.3555 19.5479 53.8771 18.5715 55.5579Z" fill="#95C020"/>
<path d="M78.6026 60.9991C78.6023 61.1731 78.5505 61.3432 78.4536 61.4877C78.3568 61.6323 78.2192 61.7449 78.0584 61.8113C77.8975 61.8778 77.7206 61.895 77.5499 61.8609C77.3793 61.8268 77.2226 61.7429 77.0996 61.6197C76.9767 61.4966 76.893 61.3398 76.8591 61.1691C76.8252 60.9984 76.8428 60.8215 76.9094 60.6607C76.9761 60.5 77.0889 60.3626 77.2336 60.2659C77.3783 60.1693 77.5484 60.1177 77.7224 60.1177C77.8381 60.1177 77.9527 60.1405 78.0596 60.1848C78.1664 60.2291 78.2635 60.2941 78.3453 60.3759C78.427 60.4578 78.4918 60.555 78.536 60.6619C78.5801 60.7688 78.6028 60.8834 78.6026 60.9991Z" fill="#82348C"/>
<path d="M91.4284 63.6245H53.1572V63.8952H91.4284V63.6245Z" fill="#82348C"/>
<path d="M53.9691 66.3958C53.9059 66.3958 53.8442 66.377 53.7916 66.3419C53.7391 66.3068 53.6982 66.2569 53.674 66.1986C53.6498 66.1402 53.6435 66.076 53.6558 66.014C53.6681 65.952 53.6986 65.8951 53.7432 65.8504C53.7879 65.8057 53.8448 65.7753 53.9068 65.763C53.9688 65.7506 54.033 65.757 54.0914 65.7812C54.1498 65.8053 54.1997 65.8463 54.2348 65.8988C54.2699 65.9514 54.2886 66.0131 54.2886 66.0763C54.2888 66.1183 54.2806 66.1599 54.2646 66.1988C54.2486 66.2376 54.2251 66.2729 54.1954 66.3026C54.1657 66.3323 54.1304 66.3558 54.0916 66.3718C54.0528 66.3878 54.0111 66.3959 53.9691 66.3958ZM53.7125 70.0575V67.1066H54.2014V70.0575H53.7125Z" fill="#82348C"/>
<path d="M59.2459 70.057V67.9657C59.2549 67.8488 59.2396 67.7313 59.201 67.6206C59.1705 67.5691 59.1263 67.5271 59.0732 67.4995C59.0202 67.4718 58.9604 67.4596 58.9008 67.4641C58.6006 67.4641 58.2824 67.686 57.7666 68.2531V70.057H57.2791V67.1061H57.7666V67.7258C57.888 67.5779 58.0238 67.4425 58.172 67.3216C58.3928 67.1356 58.6711 67.0317 58.9598 67.0278C59.4807 67.0278 59.7296 67.2947 59.7296 67.849V70.057H59.2459Z" fill="#82348C"/>
<path d="M63.7112 70.1407C63.5735 70.1396 63.4361 70.1263 63.3007 70.1009C63.0555 70.0607 62.8195 69.9768 62.604 69.8533L62.8054 69.444L63.0274 69.5608C63.2397 69.6608 63.4703 69.7162 63.7048 69.7237C64.0038 69.7237 64.2257 69.5607 64.2257 69.3388C64.2257 69.2674 64.2053 69.1975 64.1667 69.1374C64.05 68.968 63.9101 68.8808 63.3854 68.6678C62.8131 68.4278 62.6156 68.2251 62.6156 67.8672C62.6156 67.354 63.0454 67.0332 63.7356 67.0332C63.8625 67.0347 63.989 67.0459 64.1141 67.0666C64.3155 67.1046 64.5082 67.1794 64.6825 67.2872L64.4426 67.685C64.314 67.5947 64.1701 67.5286 64.0179 67.49C63.908 67.4566 63.794 67.4388 63.6792 67.4374C63.3482 67.4374 63.1326 67.5875 63.1326 67.8081C63.1315 67.876 63.1574 67.9415 63.2045 67.9903C63.3212 68.1084 63.3995 68.1533 63.9345 68.3752C64.5593 68.6318 64.7351 68.8371 64.7351 69.3003C64.7454 69.8212 64.3605 70.1407 63.7112 70.1407Z" fill="#82348C"/>
<path d="M68.2436 70.141C67.9049 70.141 67.6765 69.8742 67.6765 69.4828V67.516H67.1838V67.235L67.6791 67.1067V66.2471H68.1679V67.1067H68.9493V67.5173H68.1679V69.1967V69.325C68.1743 69.4161 68.1743 69.4751 68.1807 69.5072C68.1872 69.606 68.2462 69.6509 68.3501 69.6509C68.4784 69.6509 68.5721 69.5983 68.7799 69.4431L68.9813 69.7677C68.6401 70.0576 68.4784 70.141 68.2436 70.141Z" fill="#82348C"/>
<path d="M71.8556 66.3958C71.7924 66.3958 71.7307 66.377 71.6781 66.3419C71.6256 66.3068 71.5846 66.2569 71.5605 66.1986C71.5363 66.1402 71.5299 66.076 71.5423 66.014C71.5546 65.952 71.585 65.8951 71.6297 65.8504C71.6744 65.8057 71.7313 65.7753 71.7933 65.763C71.8553 65.7506 71.9195 65.757 71.9779 65.7812C72.0362 65.8053 72.0861 65.8463 72.1212 65.8988C72.1563 65.9514 72.1751 66.0131 72.1751 66.0763C72.1744 66.1608 72.1405 66.2417 72.0808 66.3015C72.021 66.3612 71.9401 66.3951 71.8556 66.3958ZM71.6105 70.0575V67.1066H72.0994V70.0575H71.6105Z" fill="#82348C"/>
<path d="M75.7689 70.141C75.4302 70.141 75.2018 69.8742 75.2018 69.4828V67.516H74.7065V67.235L75.2018 67.1067V66.2471H75.6906V67.1067H76.472V67.5173H75.6906V69.1967L75.697 69.325C75.6923 69.3861 75.6966 69.4474 75.7099 69.5072C75.7099 69.606 75.7753 69.6509 75.8792 69.6509C76.0075 69.6509 76.1012 69.5983 76.309 69.4431L76.5105 69.7677C76.1641 70.0576 76.0037 70.141 75.7689 70.141Z" fill="#82348C"/>
<path d="M81.0701 70.0574V69.4454C80.7237 69.9201 80.34 70.1485 79.8974 70.1485C79.3842 70.1485 79.1096 69.8611 79.1096 69.3209V67.1064H79.5984V69.1965C79.5984 69.5621 79.7024 69.7097 79.9487 69.7097C80.2618 69.7097 80.7313 69.3774 81.0701 68.9078V67.1116H81.5653V70.0625L81.0701 70.0574Z" fill="#82348C"/>
<path d="M85.2115 70.141C84.8728 70.141 84.6444 69.8742 84.6444 69.4828V67.516H84.1492V67.235L84.6444 67.1067V66.2471H85.1333V67.1067H85.9172V67.5173H85.1345V69.1967L85.1409 69.325C85.1362 69.3861 85.1406 69.4474 85.1538 69.5072C85.1602 69.606 85.2192 69.6509 85.3231 69.6509C85.4514 69.6509 85.5438 69.5983 85.7529 69.4431L85.9544 69.7677C85.608 70.0576 85.445 70.141 85.2115 70.141Z" fill="#82348C"/>
<path d="M88.8106 68.5383C88.8106 69.2542 89.1749 69.693 89.7741 69.693C90.0307 69.693 90.2232 69.6212 90.5439 69.3992L90.739 69.7841C90.3027 70.0574 90.0551 70.1421 89.6715 70.1421C88.8503 70.1421 88.2974 69.516 88.2974 68.5845C88.2974 67.653 88.8503 67.0308 89.6907 67.0308C90.381 67.0308 90.83 67.5196 90.83 68.256V68.5422L88.8106 68.5383ZM89.6574 67.4708C89.2468 67.4708 88.9594 67.7172 88.8491 68.1739H90.295C90.2886 67.7172 90.0602 67.4708 89.6574 67.4708Z" fill="#82348C"/>
</svg>
