<svg width="100" height="100" viewBox="0 0 100 100" fill="none" xmlns="http://www.w3.org/2000/svg">
<path d="M35.2331 44.8218C35.2331 45.6616 35.3239 46.3426 35.4828 46.8419C35.6644 47.3413 35.8914 47.886 36.2092 48.4762C36.3226 48.6578 36.368 48.8393 36.368 48.9982C36.368 49.2252 36.2319 49.4522 35.9368 49.6792L34.5068 50.6325C34.3025 50.7687 34.0982 50.8368 33.9167 50.8368C33.6897 50.8368 33.4627 50.7233 33.2357 50.519C32.9179 50.1785 32.6456 49.8153 32.4186 49.4522C32.1916 49.0663 31.9646 48.6351 31.715 48.113C29.9445 50.2012 27.7201 51.2453 25.0418 51.2453C23.1351 51.2453 21.6144 50.7006 20.5022 49.6111C19.39 48.5216 18.8225 47.0689 18.8225 45.2531C18.8225 43.3237 19.5034 41.7576 20.888 40.5773C22.2726 39.397 24.1111 38.8068 26.449 38.8068C27.2208 38.8068 28.0152 38.8749 28.855 38.9884C29.6948 39.1019 30.5574 39.2835 31.4653 39.4878V37.8308C31.4653 36.1058 31.1021 34.9028 30.3985 34.1991C29.6721 33.4955 28.4464 33.155 26.6987 33.155C25.9043 33.155 25.0871 33.2458 24.2473 33.4501C23.4075 33.6544 22.5904 33.9041 21.7959 34.2218C21.4328 34.3807 21.1604 34.4715 21.0015 34.5169C20.8426 34.5623 20.7291 34.585 20.6383 34.585C20.3206 34.585 20.1617 34.358 20.1617 33.8814V32.7692C20.1617 32.406 20.2071 32.1336 20.3206 31.9747C20.4341 31.8158 20.6383 31.657 20.9561 31.4981C21.7505 31.0895 22.7039 30.749 23.8161 30.4767C24.9283 30.1816 26.1086 30.0454 27.3569 30.0454C30.058 30.0454 32.0327 30.6582 33.3038 31.8839C34.5522 33.1096 35.1877 34.9709 35.1877 37.4676V44.8218H35.2331ZM26.0178 48.2719C26.7668 48.2719 27.5385 48.1357 28.3557 47.8633C29.1728 47.5909 29.8991 47.0916 30.512 46.4107C30.8751 45.9794 31.1475 45.5027 31.2837 44.958C31.4199 44.4132 31.5107 43.755 31.5107 42.9833V42.0299C30.8524 41.8711 30.1488 41.7349 29.4225 41.6441C28.6961 41.5533 27.9925 41.5079 27.2889 41.5079C25.7681 41.5079 24.6559 41.803 23.9069 42.4158C23.1578 43.0286 22.7947 43.8912 22.7947 45.0261C22.7947 46.0929 23.067 46.8873 23.6345 47.4321C24.1792 47.9995 24.9737 48.2719 26.0178 48.2719ZM44.2442 50.7233C43.8357 50.7233 43.5633 50.6552 43.3817 50.4963C43.2001 50.3601 43.0412 50.0423 42.9051 49.6111L37.571 32.0655C37.4348 31.6116 37.3668 31.3165 37.3668 31.1576C37.3668 30.7944 37.5483 30.5901 37.9115 30.5901H40.1359C40.5672 30.5901 40.8622 30.6582 41.0211 30.8171C41.2027 30.9533 41.3389 31.2711 41.4751 31.7023L45.2883 46.7284L48.8292 31.7023C48.9427 31.2484 49.0789 30.9533 49.2605 30.8171C49.4421 30.6809 49.7598 30.5901 50.1684 30.5901H51.9842C52.4155 30.5901 52.7106 30.6582 52.8922 30.8171C53.0737 30.9533 53.2326 31.2711 53.3234 31.7023L56.9097 46.91L60.8364 31.7023C60.9726 31.2484 61.1315 30.9533 61.2904 30.8171C61.472 30.6809 61.7671 30.5901 62.1756 30.5901H64.2865C64.6497 30.5901 64.854 30.7717 64.854 31.1576C64.854 31.2711 64.8313 31.3846 64.8086 31.5208C64.7859 31.657 64.7405 31.8385 64.6497 32.0882L59.1795 49.6338C59.0433 50.0877 58.8844 50.3828 58.7028 50.519C58.5213 50.6552 58.2262 50.746 57.8403 50.746H55.8883C55.457 50.746 55.162 50.6779 54.9804 50.519C54.7988 50.3601 54.6399 50.065 54.5491 49.6111L51.0309 34.9709L47.5354 49.5884C47.422 50.0423 47.2858 50.3374 47.1042 50.4963C46.9226 50.6552 46.6048 50.7233 46.1963 50.7233H44.2442ZM73.4111 51.3361C72.2308 51.3361 71.0505 51.1999 69.9156 50.9276C68.7807 50.6552 67.8955 50.3601 67.3054 50.0196C66.9422 49.8153 66.6925 49.5884 66.6017 49.3841C66.5109 49.1798 66.4655 48.9528 66.4655 48.7485V47.5909C66.4655 47.1143 66.6471 46.8873 66.9876 46.8873C67.1238 46.8873 67.26 46.91 67.3962 46.9554C67.5324 47.0008 67.7366 47.0916 67.9636 47.1824C68.7353 47.5229 69.5752 47.7952 70.4604 47.9768C71.3683 48.1584 72.2535 48.2492 73.1614 48.2492C74.5914 48.2492 75.7036 47.9995 76.4754 47.5002C77.2471 47.0008 77.6556 46.2745 77.6556 45.3438C77.6556 44.7083 77.4514 44.1862 77.0428 43.755C76.6342 43.3237 75.8625 42.9379 74.7503 42.5747L71.4591 41.5533C69.8021 41.0312 68.5765 40.2595 67.8274 39.2381C67.0784 38.2394 66.6925 37.1272 66.6925 35.9469C66.6925 34.9936 66.8968 34.1537 67.3054 33.4274C67.7139 32.7011 68.2587 32.0655 68.9396 31.5662C69.6206 31.0441 70.3923 30.6582 71.3002 30.3859C72.2081 30.1135 73.1614 30 74.1602 30C74.6595 30 75.1816 30.0227 75.6809 30.0908C76.203 30.1589 76.6796 30.2497 77.1563 30.3405C77.6102 30.454 78.0415 30.5674 78.4501 30.7036C78.8586 30.8398 79.1764 30.976 79.4034 31.1122C79.7212 31.2938 79.9481 31.4754 80.0843 31.6797C80.2205 31.8612 80.2886 32.1109 80.2886 32.4287V33.4955C80.2886 33.9721 80.107 34.2218 79.7666 34.2218C79.585 34.2218 79.2899 34.131 78.904 33.9495C77.6102 33.3593 76.1576 33.0642 74.546 33.0642C73.2522 33.0642 72.2308 33.2685 71.5272 33.6998C70.8236 34.131 70.4604 34.7893 70.4604 35.7199C70.4604 36.3554 70.6874 36.9002 71.1413 37.3315C71.5953 37.7627 72.4351 38.194 73.6381 38.5798L76.8612 39.6013C78.4955 40.1233 79.6758 40.8496 80.3794 41.7803C81.083 42.7109 81.4235 43.7777 81.4235 44.958C81.4235 45.934 81.2192 46.8192 80.8334 47.5909C80.4248 48.3627 79.88 49.0436 79.1764 49.5884C78.4728 50.1558 77.6329 50.5644 76.6569 50.8595C75.6355 51.1772 74.5687 51.3361 73.4111 51.3361Z" fill="#252F3E"/>
<path fill-rule="evenodd" clip-rule="evenodd" d="M77.7004 62.3659C70.2327 67.8816 59.3831 70.8096 50.0542 70.8096C36.9802 70.8096 25.1999 65.9749 16.3023 57.9398C15.5987 57.3043 16.2342 56.4418 17.0741 56.9411C26.698 62.5248 38.5691 65.9068 50.8487 65.9068C59.1334 65.9068 68.2353 64.1818 76.6109 60.6409C77.8593 60.0735 78.9261 61.458 77.7004 62.3659Z" fill="#FF9900"/>
<path fill-rule="evenodd" clip-rule="evenodd" d="M80.8102 58.8261C79.8569 57.6005 74.5001 58.236 72.0714 58.5311C71.3451 58.6219 71.2316 57.9863 71.8899 57.5097C76.1571 54.5135 83.1708 55.376 83.9879 56.3748C84.805 57.3962 83.7609 64.4098 79.7661 67.7692C79.1532 68.2912 78.5631 68.0188 78.8354 67.3379C79.7434 65.0908 81.7635 60.0291 80.8102 58.8261Z" fill="#FF9900"/>
</svg>
