<svg width="100" height="100" viewBox="0 0 100 100" fill="none" xmlns="http://www.w3.org/2000/svg">
<path fill-rule="evenodd" clip-rule="evenodd" d="M17.5161 56.6282C20.1627 57.6364 23.0474 56.6141 24.6577 54.6397C23.3134 56.012 21.1289 56.7262 19.1544 55.928C16.1718 54.7237 15.1215 52.3151 15.9617 49.6685C16.8159 47.0219 19.4065 45.4115 22.2212 46.3077C24.2656 46.9659 25.666 48.6603 25.96 50.5507C25.792 48.0021 23.9996 45.6496 21.2969 44.7814C17.8241 43.6751 14.1273 45.4255 13.077 48.7023C12.0408 51.9651 14.1133 55.3398 17.5161 56.6282Z" fill="#631330"/>
<path fill-rule="evenodd" clip-rule="evenodd" d="M23.636 50.0734C23.832 53.0561 21.5775 55.6467 18.5948 55.8568C16.4383 56.0108 14.3938 54.7225 13.4136 52.9441C14.5338 55.4227 17.1805 57.2011 20.0511 57.005C23.72 56.753 26.5206 53.5602 26.2686 49.8914C25.9885 46.2225 23.4259 47.0907 23.636 50.0734Z" fill="#CA0B16"/>
<path fill-rule="evenodd" clip-rule="evenodd" d="M17.2225 59.2173C21.0174 59.0493 24.1541 56.5007 25.2603 53.0699C24.2241 55.5485 21.8155 57.3549 18.9589 57.4809C15.0099 57.649 11.6492 54.5822 11.4671 50.6333C11.2991 46.6844 14.3798 43.3236 18.3287 43.1556C21.1854 43.0295 23.748 44.6119 24.9943 46.9925C23.594 43.6737 20.2472 41.4052 16.4523 41.5732C11.5932 41.7833 7.79827 45.9282 8.00832 50.7874C8.20436 55.6325 12.3493 59.4274 17.2225 59.2173Z" fill="#631330"/>
<path fill-rule="evenodd" clip-rule="evenodd" d="M26.9262 49.2894C26.8561 47.651 26.296 46.5308 25.7639 45.4805C25.4978 45.8586 25.2598 46.1947 25.0357 46.4888C23.7334 44.6543 21.5349 43.5201 19.1263 43.6741C16.2557 43.8701 13.9311 45.8586 13.1609 48.4772C13.9031 46.5868 15.6955 45.1724 17.852 45.0324C24.2795 45.0324 23.7194 51.0258 22.053 53.6304C20.6527 55.927 18.3281 57.6354 15.7515 57.7614C12.6568 57.9014 9.92619 56.193 8.56787 53.5464C9.9822 57.1733 13.6791 59.6938 17.782 59.5118C23.0613 59.2737 27.1642 54.6807 26.9262 49.2894Z" fill="#8A515D"/>
<path fill-rule="evenodd" clip-rule="evenodd" d="M27.2914 52.8188C27.3754 52.1746 27.4734 51.4884 27.5014 50.7883C27.5014 45.383 23.1184 41 17.7132 41C13.0221 41 9.04513 44.2908 8.14893 48.7158C9.26919 45.271 12.2379 42.8064 15.7527 42.8064C20.2197 42.8064 23.8326 46.7833 23.8326 51.6985C23.8326 52.6507 23.2865 59.8064 29.854 59.1342C29.4339 58.9802 26.3112 59.0082 27.2914 52.8188Z" fill="#CA0B16"/>
<path d="M33.2276 58.6438C32.9616 58.9239 32.6115 59.0779 32.2194 59.0779C31.8553 59.0779 31.5192 58.9379 31.2532 58.6858C30.9031 58.3358 30.9031 57.9577 30.9031 57.1735C30.9031 56.3753 30.9031 56.0112 31.2532 55.6611C31.5052 55.4091 31.8413 55.269 32.2194 55.269C32.9336 55.269 33.4237 55.7312 33.5357 56.3893H33.1296C33.0176 55.9132 32.6815 55.6191 32.2194 55.6191C31.9673 55.6191 31.7293 55.7171 31.5752 55.8852C31.3372 56.1232 31.3092 56.3753 31.3092 57.1735C31.3092 57.9577 31.3372 58.2237 31.5752 58.4618C31.7433 58.6298 31.9813 58.7279 32.2194 58.7279C32.4994 58.7279 32.7515 58.6158 32.9335 58.4058C33.0876 58.2237 33.1436 58.0137 33.1436 57.7196V57.4395H32.2194V57.0895H33.5497V57.6916C33.5497 58.1117 33.4517 58.3918 33.2276 58.6438Z" fill="#631330"/>
<path d="M34.614 59.0488V55.2959H35.0201V58.6847H36.9386V59.0488H34.614Z" fill="#631330"/>
<path d="M39.712 58.6858C39.4599 58.9379 39.1238 59.0779 38.7457 59.0779C38.3677 59.0779 38.0456 58.9379 37.7795 58.6858C37.4294 58.3358 37.4294 57.9577 37.4294 57.1735C37.4294 56.3753 37.4294 56.0112 37.7795 55.6611C38.0316 55.4091 38.3677 55.269 38.7457 55.269C39.1238 55.269 39.4459 55.4091 39.712 55.6611C40.0621 56.0112 40.0621 56.3893 40.0621 57.1735C40.0621 57.9577 40.0621 58.3358 39.712 58.6858ZM39.4039 55.8852C39.2359 55.7171 38.9978 55.6191 38.7598 55.6191C38.5077 55.6191 38.2696 55.7171 38.1156 55.8852C37.8775 56.1232 37.8495 56.3753 37.8495 57.1735C37.8495 57.9577 37.8775 58.2097 38.1156 58.4478C38.2836 58.6158 38.5217 58.7138 38.7598 58.7138C39.0118 58.7138 39.2499 58.6158 39.4039 58.4478C39.642 58.2097 39.67 57.9577 39.67 57.1735C39.656 56.3753 39.642 56.1232 39.4039 55.8852Z" fill="#631330"/>
<path d="M42.5962 59.0488H41.1399V55.2959H42.5542C43.2124 55.2959 43.6605 55.674 43.6605 56.3041C43.6605 56.6962 43.4224 57.0043 43.1003 57.1303C43.4644 57.2564 43.7165 57.5784 43.7165 58.0265C43.7165 58.6847 43.2684 59.0488 42.5962 59.0488ZM42.5262 55.646H41.546V56.9483H42.5262C42.9463 56.9483 43.2684 56.7382 43.2684 56.2901C43.2544 55.842 42.9323 55.646 42.5262 55.646ZM42.5682 57.3124H41.546V58.6847H42.5682C43.0303 58.6847 43.3244 58.4186 43.3244 57.9985C43.3244 57.5784 43.0303 57.3124 42.5682 57.3124Z" fill="#631330"/>
<path d="M46.9786 59.0488L46.6846 58.1946H45.0462L44.7521 59.0488H44.332L45.7184 55.2959H46.0544L47.4268 59.0488H46.9786ZM45.8724 55.87L45.1722 57.8585H46.5726L45.8724 55.87Z" fill="#631330"/>
<path d="M48.1558 59.0488V55.2959H48.5479V58.6847H50.4663V59.0488H48.1558Z" fill="#631330"/>
<path d="M54.2051 59.0488H52.7488V55.2959H54.1631C54.8213 55.2959 55.2694 55.674 55.2694 56.3041C55.2694 56.6962 55.0313 57.0043 54.7092 57.1303C55.0733 57.2564 55.3254 57.5784 55.3254 58.0265C55.3254 58.6847 54.8773 59.0488 54.2051 59.0488ZM54.1351 55.646H53.1549V56.9483H54.1351C54.5552 56.9483 54.8773 56.7382 54.8773 56.2901C54.8633 55.842 54.5412 55.646 54.1351 55.646ZM54.1771 57.3124H53.1549V58.6847H54.1771C54.6392 58.6847 54.9333 58.4186 54.9333 57.9985C54.9333 57.5784 54.6392 57.3124 54.1771 57.3124Z" fill="#631330"/>
<path d="M56.4041 59.0488V55.2959H58.7426V55.646H56.8102V56.9763H58.4485V57.3264H56.8102V58.6847H58.7426V59.0488H56.4041Z" fill="#631330"/>
<path d="M60.6606 59.0791C60.1005 59.0791 59.7224 58.9391 59.3723 58.589L59.6524 58.3089C59.9605 58.617 60.2545 58.715 60.6746 58.715C61.2207 58.715 61.5568 58.4629 61.5568 58.0148C61.5568 57.8188 61.5008 57.6507 61.3748 57.5387C61.2488 57.4407 61.1647 57.3987 60.8847 57.3567L60.4506 57.2867C60.1565 57.2447 59.9184 57.1466 59.7644 57.0066C59.5684 56.8386 59.4843 56.6005 59.4843 56.3064C59.4843 55.6623 59.9464 55.2422 60.6886 55.2422C61.1647 55.2422 61.4868 55.3682 61.8089 55.6483L61.5568 55.9003C61.3188 55.6903 61.0807 55.5783 60.6746 55.5783C60.1705 55.5783 59.8764 55.8583 59.8764 56.2784C59.8764 56.4605 59.9324 56.6145 60.0445 56.7125C60.1565 56.8106 60.3525 56.8806 60.5486 56.9226L60.9547 56.9926C61.3048 57.0486 61.4868 57.1186 61.6408 57.2587C61.8509 57.4267 61.9629 57.6928 61.9629 58.0008C61.9629 58.673 61.4448 59.0791 60.6606 59.0791Z" fill="#631330"/>
<path d="M64.0354 55.646V59.0488H63.6433V55.646H62.551V55.2959H65.1276V55.646H64.0354Z" fill="#631330"/>
<path d="M68.7971 57.4967H67.8028V59.0371H67.3967V55.2842H68.7971C69.4832 55.2842 69.9593 55.7043 69.9593 56.3904C69.9593 57.0766 69.4832 57.4967 68.7971 57.4967ZM68.7691 55.6483H67.8028V57.1466H68.7691C69.2452 57.1466 69.5672 56.8946 69.5672 56.4044C69.5672 55.9003 69.2312 55.6483 68.7691 55.6483Z" fill="#631330"/>
<path d="M73.0115 59.0488L72.1573 57.3824H71.2611V59.0488H70.855V55.2959H72.2973C72.9555 55.2959 73.4036 55.688 73.4036 56.3461C73.4036 56.8923 73.0675 57.2564 72.5914 57.3544L73.4876 59.0628H73.0115V59.0488ZM72.2553 55.646H71.2471V57.0183H72.2553C72.6894 57.0183 72.9975 56.7942 72.9975 56.3321C73.0115 55.884 72.7034 55.646 72.2553 55.646Z" fill="#631330"/>
<path d="M76.6381 59.0488L76.344 58.1946H74.7056L74.4116 59.0488H73.9915L75.3778 55.2959H75.7139L77.0862 59.0488H76.6381ZM75.5318 55.87L74.8317 57.8585H76.232L75.5318 55.87Z" fill="#631330"/>
<path d="M78.921 59.0779C78.557 59.0779 78.2209 58.9379 77.9548 58.6858C77.6047 58.3358 77.6047 57.9577 77.6047 57.1735C77.6047 56.3753 77.6047 56.0112 77.9548 55.6611C78.2069 55.4091 78.543 55.269 78.921 55.269C79.5932 55.269 80.0973 55.6751 80.2233 56.3893H79.8173C79.7192 55.9272 79.3971 55.6331 78.921 55.6331C78.669 55.6331 78.4309 55.7312 78.2769 55.8992C78.0388 56.1372 78.0108 56.4033 78.0108 57.1875C78.0108 57.9717 78.0388 58.2377 78.2769 58.4758C78.4449 58.6438 78.683 58.7419 78.921 58.7419C79.3971 58.7419 79.7192 58.4478 79.8173 57.9857H80.2233C80.1113 58.6718 79.5932 59.0779 78.921 59.0779Z" fill="#631330"/>
<path d="M82.239 55.646V59.0488H81.8469V55.646H80.7546V55.2959H83.3312V55.646H82.239Z" fill="#631330"/>
<path d="M84.5633 55.2959H84.1572V59.0488H84.5633V55.2959Z" fill="#631330"/>
<path d="M86.9589 59.0779C86.5948 59.0779 86.2587 58.9379 85.9927 58.6858C85.6426 58.3358 85.6426 57.9577 85.6426 57.1735C85.6426 56.3753 85.6426 56.0112 85.9927 55.6611C86.2447 55.4091 86.5808 55.269 86.9589 55.269C87.631 55.269 88.1352 55.6751 88.2612 56.3893H87.8551C87.7571 55.9272 87.435 55.6331 86.9589 55.6331C86.7068 55.6331 86.4688 55.7312 86.3147 55.8992C86.0767 56.1372 86.0487 56.4033 86.0487 57.1875C86.0487 57.9717 86.0767 58.2377 86.3147 58.4758C86.4828 58.6438 86.7208 58.7419 86.9589 58.7419C87.435 58.7419 87.7571 58.4478 87.8551 57.9857H88.2612C88.1352 58.6718 87.617 59.0779 86.9589 59.0779Z" fill="#631330"/>
<path d="M89.269 59.0488V55.2959H91.6076V55.646H89.6751V56.9763H91.3275V57.3264H89.6751V58.6847H91.6076V59.0488H89.269Z" fill="#631330"/>
<path d="M49.654 44.3337L48.8138 42.6533L46.2932 46.2802L43.7726 42.6533H41.6721L45.2149 47.6245L42.7364 51.0973L43.5766 52.7777L46.2512 48.9408L48.8978 52.7637H50.9983L47.3294 47.5965L49.654 44.3337Z" fill="#631330"/>
<path d="M37.6393 42.6382H35.9309L30.7217 52.7625H32.5141L33.7744 50.242H39.7538L41.0141 52.7625H42.8205L37.6393 42.6382ZM39.0396 48.7856H34.5446L36.7991 44.2766L39.0396 48.7856Z" fill="#631330"/>
<path d="M53.169 51.2922V48.2535H59.4004V46.7831H53.169V44.1225H60.6327V42.6382H51.5586V52.7765H60.8008V51.2922H53.169Z" fill="#631330"/>
<path d="M62.971 51.3062V42.6382H61.3606V52.7765H70.6308V51.3062H62.971Z" fill="#631330"/>
<path d="M75.7704 42.4009C72.2416 42.4009 69.875 44.5574 69.875 47.7641C69.875 51.363 72.9277 53.0154 75.7704 53.0154C78.613 53.0154 81.6658 51.377 81.6658 47.7641C81.6658 44.5574 79.2992 42.4009 75.7704 42.4009ZM75.7704 51.545C73.0958 51.545 71.5134 50.0607 71.5134 47.5681C71.5134 45.3696 73.2638 43.8432 75.7704 43.8432C78.277 43.8432 80.0274 45.3836 80.0274 47.5681C80.0414 50.4948 77.8289 51.545 75.7704 51.545Z" fill="#631330"/>
<path d="M86.9589 46.7827C84.8304 46.5867 83.5421 46.3907 83.5421 45.3544C83.5421 44.0381 85.4886 43.8421 86.6509 43.8421C89.0594 43.8421 89.9556 44.8783 90.3897 45.3824L90.5998 45.6205L91.7761 44.6683L91.664 44.5002C91.314 44.0101 89.9276 42.4277 86.6789 42.4277C83.6122 42.4277 81.9178 43.534 81.9178 45.5505C81.9178 47.861 84.5084 48.1131 86.7909 48.3231C88.6253 48.5052 90.3617 48.6732 90.3617 49.8355C90.3617 51.0958 88.5693 51.5579 87.043 51.5579C84.2283 51.5579 83.3461 50.3816 82.814 49.6674L82.6739 49.4854L81.5957 50.4096L81.4417 50.5636L81.5957 50.7317C82.4219 51.6419 83.6682 53.0282 86.9169 53.0282C90.6698 53.0282 92.0001 51.3758 92.0001 49.8355C92.0141 47.2309 89.3255 46.9928 86.9589 46.7827Z" fill="#631330"/>
</svg>
