<svg width="100" height="100" viewBox="0 0 100 100" fill="none" xmlns="http://www.w3.org/2000/svg">
<path fill-rule="evenodd" clip-rule="evenodd" d="M52.9718 55.0026L53.9631 55.008C53.7269 55.1438 53.2923 55.0949 52.9718 55.0949V55.0053V55.0026ZM52.7002 54.913C52.7871 54.8261 52.9881 55.027 52.8061 54.9619C52.8034 54.9619 52.578 55.0352 52.7002 54.913ZM50.2504 54.2774C50.2585 54.2693 50.2775 54.291 50.2775 54.3046C50.2775 54.31 50.2884 54.3155 50.2884 54.3155C50.2857 54.3127 50.1281 54.3996 50.2504 54.2774ZM49.9788 54.1878C49.9869 54.1797 50.0059 54.2014 50.0059 54.215C50.0059 54.2204 50.0168 54.2258 50.0168 54.2258C50.0141 54.2231 49.8565 54.31 49.9788 54.1878ZM49.7072 54.0982C49.7941 54.0113 49.9951 54.2122 49.8131 54.1471C49.8104 54.1471 49.5849 54.2204 49.7072 54.0982ZM52.5209 54.0085C52.5291 54.0004 52.5481 54.0221 52.5481 54.0357C52.5481 54.0411 52.559 54.0466 52.559 54.0466C52.5563 54.0439 52.3987 54.1308 52.5209 54.0085ZM52.0592 53.9868L51.7958 54.014C51.8447 53.9787 51.7605 53.8211 52.0592 53.9868ZM51.4318 53.8293C51.5187 53.7424 51.717 53.9434 51.5378 53.8782C51.535 53.8782 51.3096 53.9515 51.4318 53.8293ZM56.6954 53.7397C56.7824 53.6527 56.9806 53.8537 56.8014 53.7885C56.7986 53.7885 56.5732 53.8619 56.6954 53.7397ZM50.9783 53.7397C51.0652 53.6527 51.2634 53.8537 51.0842 53.7885C51.0815 53.7885 50.8533 53.8619 50.9783 53.7397ZM57.0567 53.65C57.0648 53.6419 57.0838 53.6636 57.0838 53.6772C57.0838 53.6826 57.0947 53.6881 57.0947 53.6881C57.092 53.6853 56.9344 53.7723 57.0567 53.65ZM57.4206 53.5604C57.4288 53.5523 57.4478 53.574 57.4478 53.5876C57.4478 53.593 57.4586 53.5984 57.4586 53.5984C57.4559 53.5957 57.2984 53.6826 57.4206 53.5604ZM50.3427 53.5604C50.4296 53.4735 50.6306 53.6745 50.4486 53.6093C50.4459 53.6093 50.2205 53.6826 50.3427 53.5604ZM56.8747 53.5604C57.0377 53.4572 56.9236 53.3866 57.2305 53.536L56.8747 53.5604ZM57.3283 53.3784C57.3364 53.3703 57.3554 53.392 57.3554 53.4056C57.3554 53.411 57.3663 53.4165 57.3663 53.4165C57.3636 53.4137 57.206 53.5007 57.3283 53.3784ZM49.8891 53.3784C49.8973 53.3703 49.9163 53.392 49.9163 53.4056C49.9163 53.411 49.9272 53.4165 49.9272 53.4165C49.9244 53.4137 49.7669 53.5007 49.8891 53.3784ZM56.4211 53.3784C56.5841 53.2752 56.47 53.2046 56.7769 53.354L56.4211 53.3784ZM56.8774 53.1992C56.8856 53.191 56.9046 53.2128 56.9046 53.2263C56.9046 53.2318 56.9154 53.2372 56.9154 53.2372C56.9127 53.2345 56.7552 53.3214 56.8774 53.1992ZM52.3335 53.2236L52.0701 53.3024C52.1977 53.191 51.899 53.2046 52.3335 53.2236ZM51.7061 53.1095C51.7143 53.1014 51.7333 53.1231 51.7333 53.1367C51.7333 53.1421 51.7442 53.1476 51.7442 53.1476C51.7415 53.1449 51.5839 53.2318 51.7061 53.1095ZM51.4345 53.0172C51.4427 53.0091 51.4617 53.0308 51.4617 53.0444C51.4617 53.0498 51.4726 53.0552 51.4726 53.0552C51.4699 53.0525 51.3123 53.1394 51.4345 53.0172ZM51.0706 52.9276C51.0788 52.9194 51.0978 52.9412 51.0978 52.9547C51.0978 52.9602 51.1086 52.9656 51.1086 52.9656C51.1059 52.9629 50.9484 53.0498 51.0706 52.9276ZM58.0562 52.5636C58.0643 52.5555 58.0833 52.5772 58.0833 52.5908C58.0833 52.5962 58.0942 52.6017 58.0942 52.6017C58.0915 52.5989 57.9339 52.6859 58.0562 52.5636ZM58.2381 52.474C58.2463 52.4659 58.2653 52.4876 58.2653 52.5012C58.2653 52.5066 58.2762 52.512 58.2762 52.512C58.2734 52.5093 58.1159 52.5962 58.2381 52.474ZM58.4201 52.3844C58.4282 52.3762 58.4473 52.398 58.4473 52.4115C58.4473 52.417 58.4581 52.4224 58.4581 52.4224C58.4554 52.4197 58.2979 52.5066 58.4201 52.3844ZM58.966 52.2051L58.9905 52.1209L59.0584 52.1725L58.9687 52.2024L58.966 52.2051ZM59.2376 52.0231L59.2132 52.1073L59.1453 52.0557L59.2349 52.0259L59.2376 52.0231ZM59.6912 51.7543C59.8324 51.5533 60.009 51.4528 60.2344 51.3903C60.0524 51.6674 60.009 51.6755 59.6912 51.7543ZM49.4383 54.0248C48.3546 53.9298 45.9102 52.0503 45.3561 51.2111C45.6196 51.2817 46.8635 52.4604 47.2791 52.7375C47.6376 52.9765 47.9635 53.1774 48.3329 53.4083C48.6805 53.6256 49.1585 53.7777 49.441 54.0248H49.4383ZM60.2344 51.393C60.4055 51.1296 60.3294 51.1921 60.5983 51.1214C60.4272 51.3849 60.5033 51.3224 60.2344 51.393ZM60.5983 51.1214L60.9623 50.7575C60.9025 51.0481 60.8645 51.0508 60.5983 51.1214ZM56.1522 50.8498L56.1305 50.934L56.0626 50.8824L56.1522 50.8526V50.8498ZM45.0818 50.9395L44.9976 50.915L45.0492 50.8471L45.0791 50.9367L45.0818 50.9395ZM60.9623 50.7602L60.9867 50.676L61.0546 50.7276L60.965 50.7575L60.9623 50.7602ZM62.6869 48.764C62.6951 48.7558 62.7141 48.7775 62.7141 48.7911C62.7141 48.7965 62.725 48.802 62.725 48.802C62.7222 48.7993 62.5647 48.8862 62.6869 48.764ZM62.9585 48.4924L62.9368 48.5766L62.8689 48.5249L62.9585 48.4951V48.4924ZM43.1779 47.8568C43.1861 47.8487 43.2051 47.8704 43.2051 47.884C43.2051 47.8894 43.2159 47.8948 43.2159 47.8948C43.2132 47.8921 43.0557 47.979 43.1779 47.8568ZM63.7733 46.6754C63.7815 46.6672 63.8005 46.6889 63.8005 46.7025C63.8005 46.7079 63.8114 46.7134 63.8114 46.7134C63.8086 46.7107 63.6511 46.7976 63.7733 46.6754ZM63.863 46.4934C63.863 46.2842 63.9743 46.4771 63.92 46.4934C63.92 46.4934 63.863 46.727 63.863 46.4934ZM63.9526 46.1294C63.9607 46.1213 63.9798 46.143 63.9798 46.1566C63.9798 46.162 63.9906 46.1675 63.9906 46.1675C63.9879 46.1647 63.8304 46.2517 63.9526 46.1294ZM64.1346 45.5835C64.1346 45.3744 64.2459 45.5672 64.1916 45.5835C64.1916 45.5835 64.1346 45.8171 64.1346 45.5835ZM64.2242 45.1299C64.2323 45.1218 64.2514 45.1435 64.2514 45.1571C64.2514 45.1625 64.2622 45.168 64.2622 45.168C64.2595 45.1653 64.102 45.2522 64.2242 45.1299ZM64.303 44.6791C64.4035 44.7932 64.3953 44.5514 64.3844 44.9425L64.303 44.6791ZM64.4306 44.5786C64.4089 44.383 64.523 42.4981 64.5664 42.4139C64.6289 42.987 64.6913 44.1386 64.4306 44.5786ZM56.967 50.5782L56.6954 50.6679C56.6384 50.9449 56.4266 50.6706 56.4238 50.6679C55.9594 50.6679 55.7611 50.7982 55.332 50.8471C54.9545 50.8906 54.433 50.9069 54.0826 50.9612C53.477 51.0535 52.1489 51.0698 51.7034 50.7602C50.8425 50.6842 49.4736 49.7825 48.9983 49.777C49.0798 50.2632 49.5089 50.7032 49.7914 51.0997C48.3546 51.2572 47.1188 49.5978 46.103 48.8617L46.247 49.2881C45.8206 49.223 45.8504 48.8998 45.5354 48.6743L45.3887 48.7694L45.0248 48.3973C45.1226 49.337 47.1161 51.1106 47.8793 51.6864C48.9222 52.474 51.1657 53.3974 52.4313 53.3974C52.6432 53.1204 52.673 53.392 52.9854 53.4789C53.0207 53.4898 53.1619 53.5034 53.2244 53.5142C54.4466 53.7342 55.5167 53.3974 56.4238 53.3974C55.9268 53.7424 55.0957 53.7125 54.4357 53.7831C55.1229 54.1036 56.155 53.593 56.8774 53.5794C55.7638 54.3535 52.3363 54.0167 50.6496 53.4545C50.2748 53.3295 49.145 52.8135 48.9005 52.7863L49.2563 53.1258C47.787 52.7701 45.7907 50.7901 44.927 49.6494C44.411 48.9677 43.8243 48.0171 43.4875 47.186C43.1507 46.3521 42.6347 44.9778 42.6347 44.068L42.3631 44.0435C42.4826 44.5487 42.5043 45.1598 42.708 45.9719C42.8493 46.5341 43.0231 47.243 43.2621 47.7455C42.947 47.6667 42.6999 46.8763 42.5722 46.5613C42.4745 46.3168 42.4147 46.1159 42.3278 45.8959C42.2056 45.5808 42.1594 45.4124 41.9014 45.3092C41.6298 45.8008 41.8606 46.5015 42.01 46.9415C43.1996 50.4397 45.9346 53.6229 49.403 54.7962C50.9158 55.3068 51.5323 55.3964 53.1592 55.3964C55.4162 55.3964 58.2408 54.7772 60.1095 53.6365C62.7874 51.9987 64.5474 48.6119 65.0553 45.5102C65.2699 44.2011 65.2699 42.8051 65.0553 41.4932C64.3111 36.9521 61.185 33.6603 56.8693 32.2534C55.8861 31.9329 54.2022 31.5608 53.1837 31.6206C52.9365 31.2919 52.7437 30.784 52.4205 30.3522C51.7578 29.4695 50.0793 27.7964 49.0798 27.7041C49.2482 27.9404 49.9082 28.2554 50.1906 28.4999C50.8941 29.1083 52.7409 30.909 52.874 31.5934C52.2249 31.645 51.2254 31.5201 50.7202 31.7672C51.4454 31.846 52.1271 31.626 52.9582 31.7238C53.2407 31.9737 53.1185 31.9791 53.3222 32.1475L53.2434 31.7238C53.5286 31.7618 53.7812 31.77 54.0528 31.8107C54.3325 31.8541 54.5552 31.9574 54.873 31.9899C54.8214 32.2969 54.7019 32.1774 55.7095 32.5549C55.2179 32.6309 54.1044 32.3539 53.5286 32.3322C53.257 32.3213 51.7252 32.3675 51.6464 32.8591C52.1706 33.2366 54.8513 32.984 55.8806 33.4946C55.4651 33.5408 55.1256 33.4457 54.7073 33.4294C54.2863 33.4131 54.031 33.3235 53.5259 33.3344C53.1157 33.3425 51.6681 33.4973 51.4508 33.7689C52.2819 33.8613 52.673 33.7173 54.0826 33.8748C54.9626 33.9726 55.4705 33.8884 56.3424 34.3366C56.747 34.5457 56.8638 34.4588 57.1626 34.6055C57.388 34.7168 58.4228 35.3306 58.564 35.4719C60.1611 37.0743 60.9623 37.6447 61.8395 39.9098C61.9753 40.2629 62.1736 40.4367 62.2415 40.6893L62.3529 42.6122C62.2551 43.245 62.342 43.9539 62.1899 44.6329C61.9916 45.5156 61.4783 46.9469 60.8482 47.6477C60.8645 47.922 60.8401 47.5716 60.9541 47.9356C60.4381 48.142 59.7075 49.0328 59.1806 49.4294C58.7759 49.7336 58.6971 49.9427 58.2381 50.1192C57.8932 50.2496 57.312 50.5565 56.9779 50.5837L56.967 50.5782Z" fill="#40586F"/>
<path fill-rule="evenodd" clip-rule="evenodd" d="M43.4457 43.7467C43.5326 43.6598 43.7309 43.8608 43.5516 43.7956C43.5489 43.7956 43.3235 43.869 43.4457 43.7467ZM42.8998 43.6571L43.166 43.6707C42.8672 43.8337 43.0057 43.725 42.8998 43.6571ZM42.8998 43.6571L42.6336 43.6435C42.9324 43.4806 42.7939 43.5892 42.8998 43.6571ZM42.4462 43.4751C42.4544 43.467 42.4734 43.4887 42.4734 43.5023C42.4734 43.5077 42.4842 43.5132 42.4842 43.5132C42.4815 43.5105 42.324 43.5974 42.4462 43.4751ZM40.3603 42.386L40.4445 42.4078L40.3929 42.4757L40.3631 42.386H40.3603ZM40.3603 42.386L40.2761 42.3616L40.3277 42.2937L40.3576 42.3833L40.3603 42.386ZM39.9964 42.1144L40.0806 42.1362L40.029 42.2041L39.9991 42.1144H39.9964ZM39.9068 42.0248L39.8226 42.0004L39.8742 41.9325L39.904 42.0221L39.9068 42.0248ZM38.0925 39.8466L38.1767 39.8683L38.1251 39.9362L38.0952 39.8466H38.0925ZM38.0925 39.8466L38.0083 39.8221L38.0599 39.7542L38.0898 39.8439L38.0925 39.8466ZM37.9105 39.575L37.9947 39.5967L37.9431 39.6646L37.9132 39.575H37.9105ZM37.7285 39.211C37.7367 39.2029 37.7557 39.2246 37.7557 39.2382C37.7557 39.2436 37.7666 39.2491 37.7666 39.2491C37.7638 39.2463 37.6063 39.3333 37.7285 39.211ZM37.6389 39.0291C37.6471 39.0209 37.6661 39.0426 37.6661 39.0562C37.6661 39.0617 37.6769 39.0671 37.6769 39.0671C37.6742 39.0644 37.5167 39.1513 37.6389 39.0291ZM37.5493 38.8471C37.5493 38.638 37.6606 38.8308 37.6063 38.8471C37.6063 38.8471 37.5493 39.0834 37.5493 38.8471ZM37.4596 38.5755C37.4678 38.5673 37.4868 38.5891 37.4868 38.6026C37.4868 38.6081 37.4977 38.6135 37.4977 38.6135C37.495 38.6108 37.3374 38.6977 37.4596 38.5755ZM52.8838 38.3935L52.8594 38.4777L52.7915 38.4261L52.8811 38.3962L52.8838 38.3935ZM37.37 38.3039C37.3782 38.2957 37.3972 38.3175 37.3972 38.331C37.3972 38.3365 37.408 38.3419 37.408 38.3419C37.4053 38.3392 37.2478 38.4261 37.37 38.3039ZM38.9127 36.5792L38.8991 36.8454C38.7362 36.5466 38.8448 36.6852 38.9127 36.5792ZM36.6204 34.9523L36.6421 36.3891C36.4873 36.1012 36.4819 35.2321 36.6204 34.9523ZM38.7307 36.2153C38.7389 36.2071 38.7579 36.2289 38.7579 36.2424C38.7579 36.2479 38.7688 36.2533 38.7688 36.2533C38.766 36.2506 38.6085 36.3375 38.7307 36.2153ZM35.917 33.5835C35.917 33.3744 36.0283 33.5672 35.974 33.5835C35.974 33.5835 35.917 33.8171 35.917 33.5835ZM36.0066 33.2195C36.0147 33.2114 36.0337 33.2331 36.0337 33.2467C36.0337 33.2521 36.0446 33.2576 36.0446 33.2576C36.0419 33.2548 35.8844 33.3418 36.0066 33.2195ZM39.5455 32.8556L39.5211 32.9398L39.4532 32.8882L39.5428 32.8583L39.5455 32.8556ZM38.0028 30.767L37.9784 30.8512L37.9105 30.7996L38.0001 30.7697L38.0028 30.767ZM38.0028 30.767L38.0246 30.6828L38.0925 30.7344L38.0028 30.7643V30.767ZM37.2777 30.6774C37.2858 30.6692 37.3048 30.6909 37.3048 30.7045C37.3048 30.71 37.3157 30.7154 37.3157 30.7154C37.313 30.7127 37.1555 30.7996 37.2777 30.6774ZM37.5493 30.4058L37.5248 30.49L37.4569 30.4384L37.5466 30.4085L37.5493 30.4058ZM37.9078 29.9549C37.9811 29.6887 37.9187 29.7648 38.1794 29.591C38.1061 29.8571 38.1685 29.7811 37.9078 29.9549ZM38.3614 29.409L38.3532 29.5747L38.1821 29.591L38.3641 29.409H38.3614ZM38.5433 29.227L38.5352 29.3927L38.3641 29.409L38.546 29.227H38.5433ZM38.5433 29.227C38.7172 28.9636 38.9697 28.673 39.2685 28.5915C39.0947 28.8549 38.8421 29.1455 38.5433 29.227ZM39.2685 28.5915C39.4478 28.3226 39.6868 28.1298 39.9937 28.0456C39.8497 28.2656 39.5075 28.5263 39.2685 28.5915ZM39.9937 28.0456L40.0154 27.9614L40.0833 28.013L39.9937 28.0428V28.0456ZM42.3539 44.0211L42.6255 44.0455C43.0573 44.4312 45.6728 44.529 46.2541 44.2519H46.3437C47.6935 44.4122 50.711 42.5707 51.7512 41.172C53.0604 39.4147 54.1467 37.3696 54.1467 35.0338C54.0354 35.2077 53.9132 36.2126 53.8371 36.5412C53.6905 37.1713 53.6579 37.3669 53.3618 37.9725L53.1201 37.9807L52.8784 38.3962C52.9164 37.9562 53.1663 37.4646 53.264 36.9676C53.3754 36.4054 53.5139 35.941 53.2423 35.4005C52.7426 35.7563 52.7073 37.6032 52.2456 38.1246C52.2618 37.3126 52.9164 36.0279 52.5497 35.2348C52.3325 35.5281 52.289 36.1881 52.1939 36.62C52.0962 37.0654 51.9577 37.519 51.8056 37.9562C51.2732 39.4772 49.8202 40.808 48.378 41.5169C47.058 42.166 46.1834 42.052 45.7217 42.3996C44.7928 42.147 44.5538 42.2638 44.3692 42.2448C44.1926 42.2258 44.2551 42.1742 43.9889 42.147C43.4919 42.1606 43.7852 42.147 43.6331 42.0302C43.4376 42.0302 43.6032 42.0547 43.5353 41.9406C43.2828 42.0384 42.7151 41.7994 42.4462 41.6581L42.1447 41.487C41.6015 41.1666 41.129 40.9303 40.7379 40.4685C40.5287 40.2214 40.5613 40.2513 40.2843 40.292C40.1566 39.5723 38.8475 38.3175 38.9154 37.136C38.9344 36.8047 39.1409 36.8916 38.9073 36.5847C38.9073 35.4847 38.9344 34.0669 39.3608 33.1353L39.6324 32.8637H39.5428L39.6324 32.6818L39.7221 32.4998L39.904 32.2282C40.0073 31.8507 40.3902 31.3564 40.7216 31.1391L40.6672 30.9408C40.067 30.9816 40.0127 31.2314 39.5591 31.3075C39.7194 30.3297 41.0421 29.5312 41.7971 28.931L41.4522 28.8332L42.1773 28.4177L41.9954 28.3742L42.1773 28.3253L42.3566 28.0809C41.0176 28.2275 39.3337 29.7431 38.4727 30.8811C36.9029 32.9588 36.8757 35.7047 36.7589 35.9437L36.7345 34.8627C36.433 34.6346 37.0767 32.8991 37.2234 32.5378C37.4325 32.0191 38.2065 30.8512 38.2772 30.5959L38.1061 30.5606C39.1897 29.428 39.7411 28.6322 41.482 27.8093C42.2289 27.4589 42.9813 27.2525 43.7771 27.1085C45.3306 26.8288 45.4501 27.0569 46.7131 26.9429C46.1481 26.6251 44.6761 26.655 43.9753 26.7609C43.7662 26.7935 43.1632 26.8641 43.0003 26.8532C43.4539 26.5979 44.8254 26.5572 45.1025 26.2367C44.5919 25.6473 42.3403 26.3128 41.6966 26.5708C39.0105 27.6599 37.2369 29.1673 36.1261 31.8914C35.113 34.382 35.458 38.8389 37.074 40.6043C37.9105 41.5169 38.2717 41.9705 39.3473 42.6875C40.1186 43.2008 41.4793 43.9667 42.3593 44.0265L42.3539 44.0211Z" fill="#219AB5"/>
<path fill-rule="evenodd" clip-rule="evenodd" d="M42.145 41.4761L42.4465 41.6472C42.4601 41.0578 42.9327 39.6862 43.1581 39.1023C43.6551 37.8312 44.7578 36.112 45.7329 35.1424C46.0425 34.8327 47.2701 33.7192 47.4358 33.4856C46.3738 33.5807 44.6736 35.7643 44.0598 36.7339C43.6415 37.3966 43.1961 38.2902 42.9897 39.0208C42.8675 39.4554 42.4085 41.2995 42.145 41.4733V41.4761ZM43.6334 42.0193C43.7855 42.1388 43.4922 42.1496 43.9892 42.136C44.1304 41.4652 44.2418 40.7726 44.4536 40.1208C44.6247 39.5884 45.0593 38.8415 45.1706 38.3853C44.4944 38.8687 43.8996 41.0334 43.8996 41.8346C43.8072 42.1469 43.9838 41.9269 43.6361 42.0165L43.6334 42.0193ZM44.5351 48.2851C44.3178 47.3861 43.8588 47.0493 43.4541 44.9172C43.4188 44.7325 43.4623 44.814 43.3944 44.6158C43.2694 44.2437 43.3645 44.5234 43.264 44.3822C43.0875 44.6864 43.5139 46.1829 43.6252 46.4735C43.7801 46.8782 44.1929 48.0433 44.5351 48.2878V48.2851ZM49.9698 29.7402C49.2908 28.8005 47.1588 27.8716 46.0017 27.964L46.5504 28.1106C48.677 28.6158 49.652 29.6968 49.9698 29.743V29.7402ZM42.7208 27.6734L44.9724 27.4235C45.119 27.4344 45.1842 27.6136 45.6242 27.3094C44.7578 27.3094 43.3455 27.2388 42.7208 27.6734Z" fill="#40586F"/>
<path fill-rule="evenodd" clip-rule="evenodd" d="M48.7073 27.4988C48.3895 27.0507 47.3548 26.7356 46.8088 26.7954C46.8686 26.8415 48.5172 27.4526 48.7073 27.4988Z" fill="#219AB5"/>
<path fill-rule="evenodd" clip-rule="evenodd" d="M49.8891 49.8337L48.5392 48.7663C48.6397 49.3584 49.2997 49.6897 49.8891 49.8337ZM43.5364 41.9356C43.626 41.797 43.7238 41.0882 43.789 40.8274C43.8813 40.4608 44.047 40.124 44.0796 39.7573C43.7156 40.1674 43.5364 41.3217 43.5364 41.9356Z" fill="#40586F"/>
<path fill-rule="evenodd" clip-rule="evenodd" d="M40.7245 31.1205L40.4529 31.6664L41.4524 30.7593C40.9771 30.8 41.0667 30.8978 40.7272 31.1232L40.7245 31.1205Z" fill="#219AB5"/>
<path fill-rule="evenodd" clip-rule="evenodd" d="M46.8946 46.5677C46.9218 46.8828 46.9842 47.0756 47.1662 47.3092C47.3129 47.0484 47.1472 46.747 46.8946 46.5677ZM46.3514 44.2537H46.2618C46.145 44.5796 46.1015 44.7371 46.4356 44.8186L46.3514 44.2537ZM46.3731 41.2009C46.5388 40.9782 46.604 40.655 46.6067 40.4078C46.422 40.6278 46.3405 40.8451 46.3731 41.2009ZM42.8152 29.8779C42.8722 30.0028 42.6875 30.1305 43.1112 29.9974C43.2226 29.9621 43.3774 29.8426 43.4399 29.7964L42.8152 29.8806V29.8779ZM56.4223 50.6526H56.6939L56.9655 50.5629V50.4733C56.6097 50.4815 56.6668 50.4353 56.4223 50.6553V50.6526ZM51.7046 50.7422L52.1501 50.734L51.5227 50.5629L51.7046 50.7422ZM47.9837 30.4048C47.7882 30.231 47.78 30.1739 47.5383 30.2907L47.9837 30.4048ZM51.5227 50.5629L50.9795 50.381C51.2239 50.5982 51.1696 50.5548 51.5227 50.5629ZM44.7164 29.6796L45.2569 29.6525L44.7164 29.5846V29.6796ZM50.5232 32.1295C50.1457 32.1295 50.3466 32.0969 50.1592 32.2191C50.5368 32.2164 50.3358 32.2517 50.5232 32.1295ZM47.5301 27.955C47.3427 27.8328 47.5437 27.8654 47.1662 27.8654C47.3536 27.9876 47.1526 27.955 47.5301 27.955ZM44.0835 39.756L44.2655 39.3948L44.0998 39.498L44.0835 39.756ZM47.1662 27.8626C47.0739 27.8029 47.2015 27.6861 46.9027 27.8409L47.1662 27.8626ZM42.1769 27.8626C42.2638 27.9495 42.4621 27.7486 42.2828 27.8137C42.2801 27.8137 42.052 27.7404 42.1769 27.8626ZM42.7228 27.6807L42.4567 27.6942C42.7554 27.8572 42.6169 27.7486 42.7228 27.6807ZM39.6375 32.8574L39.7271 32.6754H39.6375V32.8574ZM39.7271 32.6754L39.8194 32.4934H39.7271V32.6754ZM39.9091 32.4038L39.9987 32.2218H39.9091V32.4038ZM42.1769 28.3162V28.4086L42.3589 28.3651L42.1769 28.3162ZM53.815 34.5739L53.8937 34.2208C53.8693 34.2398 53.8476 34.2425 53.8448 34.2751L53.815 34.5739ZM44.7164 48.6563L44.7408 48.7378L44.8087 48.6862L44.7164 48.6563ZM40.273 31.8579L40.1888 31.8823L40.2404 31.9475L40.273 31.8579ZM45.1727 38.3953L45.2541 38.3708L45.2025 38.3056L45.1727 38.3953ZM46.8946 46.5677L46.8729 46.4835L46.805 46.5351L46.8946 46.5677ZM49.98 32.3114L49.8985 32.3359L49.9501 32.4011L49.98 32.3114ZM44.3551 39.1204L44.4366 39.0987L44.385 39.0308L44.3551 39.1204ZM50.4335 50.1094L50.458 50.1908L50.5232 50.1392L50.4335 50.1094ZM48.1657 30.4972L48.1901 30.5786L48.2553 30.527L48.1657 30.4972ZM40.091 32.1295L40.1725 32.1077L40.1209 32.0398L40.091 32.1295ZM56.9655 50.4706L57.0497 50.4489L56.9981 50.381L56.9655 50.4706ZM44.7164 48.6563L44.6946 48.5721L44.6267 48.6237L44.7164 48.6563ZM49.5264 29.0441L49.5508 29.1256L49.616 29.074L49.5264 29.0441Z" fill="#40586F"/>
<path fill-rule="evenodd" clip-rule="evenodd" d="M41.4497 30.7696L41.5339 30.7452L41.4795 30.68L41.4497 30.7696ZM38.2747 30.5877L38.3561 30.5632L38.3045 30.498L38.2747 30.5877Z" fill="#219AB5"/>
<path fill-rule="evenodd" clip-rule="evenodd" d="M44.4446 38.9352C44.4528 38.9433 44.4718 38.8972 44.4718 38.908C44.4718 38.9134 44.4827 38.8972 44.4827 38.8972C44.4799 38.8999 44.3224 38.813 44.4446 38.9352ZM46.6229 40.2959C46.631 40.304 46.65 40.2579 46.65 40.2687C46.65 40.2742 46.6609 40.2579 46.6609 40.2579C46.6582 40.2606 46.5006 40.1737 46.6229 40.2959ZM36.7339 34.4837C36.7421 34.4918 36.7611 34.4456 36.7611 34.4565C36.7611 34.4619 36.7719 34.4456 36.7719 34.4456C36.7692 34.4483 36.6117 34.3614 36.7339 34.4837Z" fill="#40586F"/>
<path fill-rule="evenodd" clip-rule="evenodd" d="M20.1697 59.462C19.2789 58.6228 17.9453 58.2099 16.7747 58.2099C14.6671 58.2099 12.5079 59.2637 12.5079 61.6375C12.5079 63.813 14.0397 64.5029 15.4575 64.9483C16.9241 65.41 18.1436 65.755 18.1436 66.9745C18.1436 68.2265 17.0083 68.7045 16.036 68.7045C15.1153 68.7045 14.0587 68.2102 13.4829 67.4199L12 68.805C12.9234 69.8914 14.4879 70.4672 16.0034 70.4672C18.293 70.4672 20.2539 69.2477 20.2539 66.7436C20.2539 64.454 18.3446 63.794 16.8453 63.335C15.5281 62.9222 14.6209 62.6098 14.6209 61.5397C14.6209 60.4045 15.7236 59.9427 16.6797 59.9427C17.5026 59.9427 18.3772 60.3719 18.8226 60.9477L20.1724 59.4647L20.1697 59.462ZM80.8723 72.5721C81.7795 73.5282 83.1619 74.1202 84.5797 74.1202C87.9882 74.1202 88.7623 71.7818 88.7623 70.1006V62.4578H87.6433V63.7913H87.6107C86.9996 62.8027 85.8154 62.2595 84.6937 62.2595C82.2901 62.2595 80.7066 64.0548 80.7066 66.2439C80.7066 68.5008 82.2874 70.163 84.6937 70.163C85.8127 70.163 87.0159 69.6035 87.6107 68.6475H87.6433V70.0978C87.6433 71.76 86.8367 73.1289 84.6286 73.1289C83.458 73.1289 82.2901 72.5042 81.679 71.7112L80.8723 72.5667V72.5721ZM81.8935 66.214C81.8935 64.6007 82.9473 63.1992 84.8105 63.1992C86.5406 63.1992 87.7764 64.598 87.7764 66.214C87.7764 67.993 86.5406 69.2124 84.8105 69.2124C82.9501 69.2124 81.8935 67.83 81.8935 66.214ZM75.6359 64.1552V70.1657H76.7549V66.214C76.7549 64.1552 77.825 63.2997 79.0119 63.2997C79.3079 63.2997 79.6719 63.3486 79.8022 63.3975L79.9516 62.3437C79.7207 62.2785 79.4899 62.2622 79.2101 62.2622C78.1237 62.2622 77.1677 62.8869 76.7386 63.7777H76.706C76.706 63.4491 76.6734 62.8706 76.6408 62.4605H75.5707C75.6196 62.9874 75.6359 63.7451 75.6359 64.158V64.1552ZM73.2322 66.3118C73.2322 63.9896 71.5184 62.2595 69.1148 62.2595C66.7274 62.2595 65.0136 63.9896 65.0136 66.3118C65.0136 68.6339 66.7274 70.364 69.1148 70.364C71.5184 70.364 73.2322 68.6339 73.2322 66.3118ZM72.0453 66.3118C72.0453 68.0418 70.91 69.408 69.112 69.408C67.3331 69.408 66.1978 68.0418 66.1978 66.3118C66.1978 64.5817 67.3331 63.1992 69.112 63.1992C70.9073 63.1992 72.0453 64.5844 72.0453 66.3118ZM62.8381 69.3754C62.8381 68.9137 62.4769 68.4873 61.95 68.4873C61.423 68.4873 61.0618 68.9164 61.0618 69.3754C61.0618 69.8371 61.423 70.2635 61.95 70.2635C62.4769 70.2635 62.8381 69.8344 62.8381 69.3754ZM55.2903 62.0286C54.1034 62.0286 53.2153 62.5718 52.6884 63.5279C52.243 62.6397 51.4363 62.0286 50.2168 62.0286C48.9485 62.0286 48.1092 62.7538 47.7616 63.5279H47.729V62.2595H45.8495V70.1657H47.8268V65.8174C47.8268 64.7636 48.37 63.6772 49.5568 63.6772C50.5618 63.6772 51.0235 64.4187 51.0235 65.391V70.1685H53.0007V65.8527C53.0007 64.8315 53.5113 63.6772 54.7471 63.6772C56.0155 63.6772 56.2301 64.8478 56.2301 65.7848V70.1657H58.2073V65.2254C58.2073 63.612 57.3518 62.0286 55.293 62.0286H55.2903ZM43.4812 62.2595H41.5039V66.6078C41.5039 67.6616 40.9118 68.748 39.6597 68.748C38.3914 68.748 38.1768 67.5774 38.1768 66.6404V62.2595H36.1996V67.1999C36.1996 68.8132 37.0551 70.3966 39.1138 70.3966C40.2844 70.3966 41.2214 69.6877 41.5691 68.8974H41.6017V70.1657H43.4784V62.2595H43.4812ZM30.2705 70.1657H32.2478V65.9315C32.2478 65.3557 32.5927 63.8076 34.3717 63.8076C34.5537 63.8076 34.7166 63.8239 34.9801 63.8891V62.0775C34.8497 62.0449 34.6514 62.0286 34.5021 62.0286C33.4645 62.0286 32.6253 62.6723 32.1962 63.5767H32.1636V62.2595H30.2705V70.1657ZM28.9859 63.2644C28.3585 62.4903 27.158 62.0286 26.0037 62.0286C23.6815 62.0286 21.7695 63.6419 21.7695 66.214C21.7695 68.8485 23.7141 70.3993 26.0526 70.3993C27.2232 70.3993 28.3096 70.0028 28.9696 69.2966L27.7338 68.0446C27.3563 68.5063 26.68 68.7534 26.0689 68.7534C24.5696 68.7534 23.8282 67.4525 23.8282 66.2167C23.8282 64.9809 24.5534 63.6799 26.0037 63.6799C26.6447 63.6799 27.321 64.0086 27.6333 64.454L28.9859 63.2671V63.2644Z" fill="#40586F"/>
</svg>
