<svg width="17" height="20" viewBox="0 0 17 20" fill="none" xmlns="http://www.w3.org/2000/svg">
<path d="M11.9242 20H9.26017H6.59388C6.59388 20 6.6017 18.4181 6.59388 17.3337C2.94491 18.1196 1.92646 15.3337 1.92646 15.3337C1.26017 14 0.592758 13.3337 0.592758 13.3337C-0.740948 12.5422 0.592758 12.6674 0.592758 12.6674C1.92646 12.6674 2.59276 14.0011 2.59276 14.0011C3.76324 15.9877 5.84485 15.668 6.59276 15.3348C6.59276 14.6685 6.88454 13.6601 7.25905 13.3348C4.34681 13.0073 1.92311 11.3348 1.92311 8.00112C1.92311 4.66741 2.59276 4.00112 3.25905 3.33371C3.1249 3.00503 2.56593 1.78983 3.27918 0C3.27918 0 4.5894 0 5.92311 2C6.58382 1.3393 8.5894 1.33371 9.25682 1.33371C9.92199 1.33371 11.9287 1.3393 12.5894 2C13.9231 0 15.2367 0 15.2367 0C15.9499 1.78983 15.3921 3.00503 15.2568 3.33371C15.9231 4 16.5905 4.66741 16.5905 8.00112C16.5905 11.3348 14.1702 13.0061 11.2568 13.3348C11.6324 13.6601 11.9231 14.8072 11.9231 15.3348L11.9242 20Z" fill="black"/>
</svg>
