<svg width="19" height="19" viewBox="0 0 19 19" fill="none" xmlns="http://www.w3.org/2000/svg">
<path fill-rule="evenodd" clip-rule="evenodd" d="M9.45242 0H9.5477L9.54878 5.50704e-06C12.0641 0.0129048 14.4716 1.02282 16.2434 2.80827C18.0152 4.59372 19.0065 7.00896 19.0001 9.5243C18.9936 12.0396 17.9899 14.4498 16.209 16.2261C14.4281 18.0024 12.0154 19 9.50006 19C6.98471 19 4.57202 18.0024 2.79112 16.2261C1.01022 14.4498 0.0064809 12.0396 3.12739e-05 9.5243C-0.00641835 7.00896 0.984947 4.59372 2.75672 2.80827C4.52848 1.02282 6.93602 0.0129048 9.45134 5.50704e-06L9.45242 0ZM9.08094 0.848259C9.0447 0.850013 9.00849 0.851994 8.97232 0.8542L9.07195 0.972173C7.82447 2.0257 6.82189 3.33875 6.13417 4.81969C6.07616 4.94462 6.0205 5.0705 5.96722 5.19725C6.97128 5.5156 8.01846 5.69829 9.08094 5.7364V0.848259ZM9.08094 6.57515C7.91686 6.53619 6.76964 6.33529 5.67109 5.98264C5.33636 6.98216 5.14368 8.02516 5.09984 9.08094H9.08094V6.57515ZM9.91918 9.08094V6.57515C11.0833 6.53619 12.2305 6.33529 13.329 5.98264C13.6638 6.98216 13.8564 8.02516 13.9003 9.08094H9.91918ZM9.08094 9.91918H5.09636C5.13149 10.9771 5.31607 12.0231 5.64327 13.0264C6.75026 12.6682 7.90703 12.4643 9.08094 12.425V9.91918ZM9.91918 12.425V9.91918H13.9038C13.8686 10.9771 13.6841 12.0231 13.3568 13.0264C12.2499 12.6682 11.0931 12.4643 9.91918 12.425ZM9.08094 13.2637C8.0064 13.3023 6.9475 13.4887 5.93303 13.8138C5.99657 13.9683 6.06363 14.1217 6.13417 14.2736C6.82189 15.7545 7.82447 17.0676 9.07195 18.1211L9.04758 18.1499C9.05869 18.1505 9.06981 18.1511 9.08094 18.1516V13.2637ZM9.91918 18.1516V13.2637C10.9937 13.3023 12.0526 13.4887 13.0671 13.8138C13.0035 13.9683 12.9365 14.1217 12.8659 14.2736C12.1782 15.7545 11.1757 17.0676 9.92817 18.1211L9.95254 18.1499C9.94143 18.1505 9.9303 18.1511 9.91918 18.1516ZM11.3213 17.9682C12.9354 17.621 14.4301 16.8165 15.617 15.6326C15.7484 15.5015 15.8752 15.3667 15.9972 15.2283C15.3216 14.7765 14.6038 14.3985 13.8564 14.0983C13.784 14.276 13.7072 14.4522 13.6262 14.6266C13.051 15.8652 12.2709 16.9945 11.3213 17.9682ZM14.1456 13.3112C14.9768 13.6431 15.774 14.0647 16.5222 14.5712C17.5002 13.2169 18.0703 11.6017 18.1517 9.91918H14.7424C14.7067 11.0744 14.5053 12.2166 14.1456 13.3112ZM14.7392 9.08094H18.1518C18.0704 7.399 17.5007 5.78366 16.5223 4.42887C15.7658 4.94096 14.9594 5.36624 14.1183 5.6998C14.4852 6.79002 14.6947 7.92857 14.7392 9.08094ZM13.8234 4.91497C14.5828 4.61268 15.3118 4.23022 15.9974 3.77175C15.8851 3.64435 15.7687 3.51994 15.6484 3.39871C14.4287 2.16958 12.8785 1.34355 11.2051 1.00755C12.2074 2.00742 13.0277 3.17787 13.6262 4.46664C13.6951 4.61488 13.7608 4.76436 13.8234 4.91497ZM10.0278 0.8542C9.99163 0.851994 9.95542 0.850013 9.91918 0.848259V5.7364C10.9817 5.69829 12.0288 5.5156 13.0329 5.19725C12.9796 5.0705 12.924 4.94462 12.8659 4.81969C12.1782 3.33875 11.1757 2.0257 9.92817 0.972173L10.0278 0.8542ZM7.67881 17.9682C6.7292 16.9945 5.94908 15.8652 5.37391 14.6266C5.2929 14.4522 5.21617 14.276 5.14375 14.0983C4.39631 14.3985 3.67854 14.7765 3.00287 15.2283C3.1249 15.3667 3.25167 15.5015 3.38309 15.6326C4.57001 16.8165 6.06473 17.621 7.67881 17.9682ZM2.47793 14.5712C3.22616 14.0647 4.02329 13.6431 4.85448 13.3112C4.49487 12.2166 4.29338 11.0744 4.25769 9.91918H0.848383C0.929853 11.6017 1.4999 13.2169 2.47793 14.5712ZM0.84837 9.08094H4.26092C4.30545 7.92857 4.51496 6.79002 4.88183 5.6998C4.04073 5.36624 3.23428 4.94096 2.47781 4.42887C1.49945 5.78366 0.929761 7.399 0.84837 9.08094ZM3.00274 3.77175C3.68836 4.23022 4.41733 4.61268 5.17668 4.91497C5.23932 4.76436 5.30507 4.61488 5.37391 4.46664C5.97238 3.17787 6.79273 2.00742 7.79504 1.00755C6.12161 1.34355 4.57143 2.16958 3.35172 3.39871C3.23142 3.51994 3.11507 3.64435 3.00274 3.77175Z" fill="#333333"/>
</svg>
