<svg width="21" height="20" viewBox="0 0 21 20" fill="none" xmlns="http://www.w3.org/2000/svg">
<path d="M20.9302 12.262V20H16.4442V12.7802C16.4442 10.9666 15.7953 9.72881 14.1715 9.72881C12.932 9.72881 12.1943 10.563 11.8698 11.3699C11.7514 11.6583 11.721 12.0598 11.721 12.4636V20H7.23345C7.23345 20 7.29389 7.77208 7.23345 6.50518H11.7205V8.41801C11.7114 8.43232 11.6996 8.44775 11.6911 8.46161H11.7205V8.41801C12.3167 7.49982 13.3814 6.18815 15.7644 6.18815C18.7169 6.1881 20.9302 8.1169 20.9302 12.262ZM2.53931 0C1.00413 0 0 1.00695 0 2.33113C0 3.62645 0.975082 4.66397 2.47975 4.66397H2.50972C4.07463 4.66397 5.04787 3.62665 5.04787 2.33113C5.01838 1.00695 4.07463 0 2.53931 0ZM0.26652 20H4.75234V6.50518H0.26652V20Z" fill="black"/>
</svg>
