<svg width="26" height="20" viewBox="0 0 26 20" fill="none" xmlns="http://www.w3.org/2000/svg">
<path fill-rule="evenodd" clip-rule="evenodd" d="M2.98746 4.0802C3.01895 3.77053 2.90033 3.46507 2.6694 3.25723L0.31806 0.423031V0H7.6219L13.2672 12.3813L18.2302 0H25.1929V0.423031L23.1817 2.35134C23.0084 2.4836 22.9224 2.70089 22.9581 2.91608V17.085C22.9224 17.2991 23.0084 17.5164 23.1817 17.6487L25.1456 19.577V20H15.2658V19.577L17.3012 17.6014C17.5007 17.402 17.5007 17.3432 17.5007 17.0377V5.58547L11.8438 19.9538H11.0796L4.49273 5.58547V15.2155C4.43815 15.6196 4.57251 16.0279 4.85698 16.3197L7.50328 19.5297V19.9538H0V19.5297L2.6463 16.3197C2.92972 16.0269 3.05569 15.6164 2.98746 15.2155V4.0802Z" fill="black"/>
</svg>
