<svg width="284" height="100" viewBox="0 0 284 100" fill="none" xmlns="http://www.w3.org/2000/svg">
<path fill-rule="evenodd" clip-rule="evenodd" d="M206.691 8.57849L206.691 0H204.894V11.9714C204.464 18.0992 202.927 25.4863 199.76 33.0045H199.758V33.008C197.392 38.6253 194.115 44.3156 189.711 49.6085C179.796 61.5242 164.126 71.4719 140.167 73.9792C133.923 73.2348 128.255 71.9772 123.116 70.3075V70.2985H123.088C109.196 65.7796 99.1694 58.2498 92.0826 49.712C90.2563 47.5117 88.6238 45.2428 87.1697 42.939V42.9063H87.149C85.1057 39.6648 83.4153 36.3546 82.0345 33.0693V33.0056H82.0077C78.2502 24.04 76.7974 15.2645 76.7709 8.58338V0H74.9736V11.9714C74.5444 18.0992 73.0071 25.4863 69.8399 33.0045H69.8384V33.008C67.4717 38.6253 64.195 44.3156 59.7909 49.6085C48.5269 63.1455 29.8354 74.1425 0 74.5757V77.888H23.6219H24.6489H33.8922H34.9193H39.0274H40.0544H44.1626H45.1896H49.2977H50.3248H54.4329H55.46H59.5681H60.5951H64.7033H65.7303H69.8384H70.8655H74.9736V96.6995H74.075C73.5078 96.6995 73.0479 97.2905 73.0479 98.0196V99.9997H74.9736V100H76.7709V99.9997H78.6966V98.0196C78.6966 97.2905 78.2368 96.6995 77.6696 96.6995H76.7709V77.888H81.0075V77.8891H82.0345V77.888H86.1426V77.8891H87.1697V77.888H91.2778V77.8891H92.3048V77.888H96.413V77.8891H97.44V77.888H101.548V77.8891H102.575V77.888H106.683V77.8891H107.71V77.888H111.819V77.8891H112.846V77.888H116.954V77.8891H117.981V77.888H127.224V77.8891H128.251V77.888H129.278H153.413H153.542H154.569H163.812H164.839H168.947H169.974H174.083H175.11H179.218H180.245H184.353H185.38H189.488H190.515H194.623H195.65H199.758H200.785H204.894V96.6995H203.995C203.428 96.6995 202.968 97.2905 202.968 98.0196V99.9997H204.894V100H206.691V99.9997H208.617V98.0196C208.617 97.2905 208.157 96.6995 207.59 96.6995H206.691V77.888H210.927V77.8891H211.954V77.888H216.063V77.8891H217.09V77.888H221.198V77.8891H222.225V77.888H226.333V77.8891H227.36V77.888H231.468V77.8891H232.495V77.888H236.603V77.8891H237.63V77.888H241.738V77.8891H242.765V77.888H246.874V77.8891H247.901V77.888H257.144V77.8891H258.171V77.888H283.333V74.5877H277.221C268.09 74.1053 260.068 72.592 253.036 70.3075V70.2985H253.008C239.116 65.7796 229.089 58.2498 222.003 49.712C220.176 47.5117 218.544 45.2428 217.09 42.939V42.9063H217.069C215.026 39.6648 213.335 36.3546 211.954 33.0693V33.0056H211.928C208.17 24.0393 206.717 15.2631 206.691 8.58177L206.691 8.57849ZM128.251 73.4714C129.589 73.807 130.958 74.1165 132.359 74.3984V74.516C131.137 74.5582 129.895 74.5823 128.634 74.5877H128.251V73.4714ZM123.116 72.0086C124.451 72.4361 125.82 72.8361 127.224 73.2069V74.5877H123.116V72.0086ZM117.981 70.1646C119.312 70.6967 120.681 71.1998 122.089 71.672V74.5877H117.981V70.1646ZM112.846 67.8805C114.172 68.5333 115.541 69.1558 116.954 69.7452V74.5877H112.846V67.8805ZM107.71 65.0782C109.03 65.8734 110.399 66.6366 111.819 67.3644V74.5877H107.71V65.0782ZM102.575 61.6506C103.887 62.6178 105.255 63.5513 106.683 64.4469V74.5877H102.575V61.6506ZM97.44 57.4417C98.7397 58.6238 100.108 59.7712 101.548 60.8776V74.5877H97.44V57.4417ZM92.3048 52.2067C93.5865 53.6712 94.9544 55.1011 96.413 56.487V74.5877H92.3048V52.2067ZM91.2047 50.916L91.2778 51.0039V74.5877H87.1697V45.5116C88.3987 47.3459 89.7413 49.1529 91.2047 50.916ZM82.0345 36.3996C83.2151 38.9247 84.5785 41.4484 86.1426 43.931V74.5877H82.0345V36.3996ZM76.7709 20.4675C77.6531 24.8068 79.0273 29.4333 81.0075 34.0963V74.5877H76.7709V20.4675ZM17.6775 74.5877H18.4867V74.4384C18.2181 74.4892 17.9484 74.539 17.6775 74.5877ZM19.5137 74.2383V74.5877H23.6219V73.3135C22.284 73.6484 20.9148 73.9571 19.5137 74.2383ZM24.6489 73.0498V74.5877H28.757V71.8543C27.4223 72.2808 26.0532 72.6798 24.6489 73.0498ZM29.7841 71.5185V74.5877H33.8922V70.0149C32.5613 70.5456 31.1922 71.0475 29.7841 71.5185ZM34.9193 69.5965V74.5877H39.0274V67.7363C37.7013 68.3876 36.3323 69.0085 34.9193 69.5965ZM40.0544 67.2215V74.5877H44.1626V64.9409C42.8427 65.7342 41.4738 66.4955 40.0544 67.2215ZM45.1896 64.3111V74.5877H49.2977V61.5217C47.9862 62.4865 46.6175 63.4177 45.1896 64.3111ZM50.3248 60.7505V74.5877H54.4329V57.3231C53.1332 58.5023 51.7648 59.6468 50.3248 60.7505ZM55.46 56.3707V74.5877H59.5681V52.1008C58.2865 53.5617 56.9185 54.9882 55.46 56.3707ZM60.5951 50.9009V74.5877H64.7033V45.4219C63.474 47.2521 62.1313 49.0549 60.6676 50.8139L60.5951 50.9009ZM65.7303 43.8453V74.5877H69.8384V36.3321C68.6578 38.8511 67.2945 41.3687 65.7303 43.8453ZM70.8655 34.0344V74.5877H74.9736V21.0544C74.0886 25.2039 72.7521 29.6026 70.8655 34.0344ZM153.413 74.5877H153.542V73.3135C152.204 73.6484 150.835 73.9571 149.434 74.2383V74.5877H153.413ZM148.407 74.5877V74.4384C148.138 74.4892 147.868 74.539 147.597 74.5877H148.407ZM206.691 20.4674V74.5877H210.927V34.0963C208.947 29.4333 207.573 24.8068 206.691 20.4674ZM211.954 36.3996V74.5877H216.063V43.931C214.498 41.4484 213.135 38.9247 211.954 36.3996ZM217.09 45.5116V74.5877H221.198V51.0039L221.125 50.916C219.661 49.1529 218.319 47.3459 217.09 45.5116ZM222.225 52.2067V74.5877H226.333V56.487C224.874 55.1011 223.506 53.6712 222.225 52.2067ZM227.36 57.4417V74.5877H231.468V60.8775C230.028 59.7712 228.66 58.6238 227.36 57.4417ZM232.495 61.6506V74.5877H236.603V64.4469C235.175 63.5513 233.807 62.6178 232.495 61.6506ZM237.63 65.0782V74.5877H241.738V67.3644C240.319 66.6366 238.95 65.8734 237.63 65.0782ZM242.765 67.8805V74.5877H246.874V69.7451C245.461 69.1557 244.092 68.5333 242.765 67.8805ZM247.901 70.1646V74.5877H252.009V71.6719C250.601 71.1998 249.232 70.6966 247.901 70.1646ZM253.036 72.0086V74.5877H257.144V73.2069C255.74 72.8361 254.371 72.4361 253.036 72.0086ZM258.171 73.4714V74.5877H262.279V74.3984C260.878 74.1165 259.509 73.807 258.171 73.4714ZM204.894 74.5877V21.0544C204.009 25.2039 202.672 29.6027 200.785 34.0345V74.5877H204.894ZM199.758 74.5877V36.3322C198.578 38.8511 197.214 41.3687 195.65 43.8453V74.5877H199.758ZM190.588 50.8139C192.051 49.0549 193.394 47.2521 194.623 45.4219V74.5877H190.515V50.9009L190.588 50.8139ZM185.38 56.3707C186.838 54.9882 188.206 53.5617 189.488 52.1008V74.5877H185.38V56.3707ZM180.245 60.7505C181.685 59.6468 183.053 58.5023 184.353 57.3231V74.5877H180.245V60.7505ZM175.11 64.3111C176.537 63.4177 177.906 62.4865 179.218 61.5217V74.5877H175.11V64.3111ZM169.974 67.2215C171.394 66.4955 172.763 65.7342 174.083 64.9409V74.5877H169.974V67.2215ZM164.839 69.5965C166.252 69.0085 167.621 68.3876 168.947 67.7363V74.5877H164.839V69.5965ZM159.704 71.5185C161.112 71.0475 162.481 70.5456 163.812 70.0149V74.5877H159.704V71.5185ZM154.569 73.0498C155.973 72.6798 157.342 72.2808 158.677 71.8543V74.5877H154.569V73.0498Z" fill="black"/>
</svg>
