<svg width="263" height="40" viewBox="0 0 263 40" fill="none" xmlns="http://www.w3.org/2000/svg">
<path d="M0.303467 39.4546V2.74914L4.18376 1.85772V16.2777C6.24625 13.8656 9.0079 12.6596 12.4687 12.6596C14.4613 12.6596 16.2091 13.0965 17.7123 13.9705C19.2504 14.8095 20.439 15.9981 21.278 17.5362C22.152 19.0394 22.5889 20.8047 22.5889 22.8323V39.4546H18.7611V23.6188C18.7611 21.2766 18.0968 19.4413 16.7685 18.113C15.475 16.7496 13.6922 16.068 11.42 16.068C9.84689 16.068 8.44858 16.4176 7.22507 17.1167C6.00156 17.8158 4.98778 18.8121 4.18376 20.1056V39.4546H0.303467ZM37.3669 39.9265C35.4444 39.9265 33.7488 39.5945 32.2806 38.9302C30.8474 38.266 29.7112 37.3397 28.8722 36.1511C28.0683 34.9625 27.6662 33.5817 27.6662 32.0086C27.6662 29.5267 28.6101 27.569 30.4978 26.1358C32.3855 24.7025 34.9374 23.9859 38.1535 23.9859C40.9851 23.9859 43.5544 24.5801 45.8616 25.7687V22.3079C45.8616 20.2104 45.2674 18.6374 44.0788 17.5886C42.8903 16.5049 41.1599 15.9631 38.8876 15.9631C37.5943 15.9631 36.2833 16.1554 34.9549 16.5399C33.6615 16.8895 32.2282 17.4663 30.6551 18.2703L29.1869 15.2814C31.0746 14.3726 32.8225 13.7083 34.4305 13.2888C36.0386 12.8694 37.6467 12.6596 39.2547 12.6596C42.5757 12.6596 45.1275 13.4462 46.9104 15.0192C48.7282 16.5923 49.6371 18.8471 49.6371 21.7835V39.4546H45.8616V36.8852C44.6732 37.8989 43.3623 38.668 41.9289 39.1924C40.5307 39.6818 39.01 39.9265 37.3669 39.9265ZM31.3892 31.9038C31.3892 33.372 32.001 34.578 33.2245 35.5219C34.4829 36.4307 36.091 36.8852 38.0486 36.8852C39.6217 36.8852 41.0551 36.6405 42.3484 36.1511C43.6419 35.6617 44.8129 34.8926 45.8616 33.8439V28.9149C44.778 28.1808 43.6244 27.6564 42.4008 27.3418C41.1774 26.9922 39.7966 26.8174 38.2584 26.8174C36.1609 26.8174 34.4829 27.2894 33.2245 28.2332C32.001 29.1421 31.3892 30.3657 31.3892 31.9038ZM65.6814 39.979C63.4091 39.979 61.6613 39.4371 60.4378 38.3534C59.2142 37.2697 58.6025 35.6966 58.6025 33.6342V16.4875H52.9394V13.184H58.6025V6.52455L62.4304 5.52826V13.184H70.3483V16.4875H62.4304V32.6379C62.4304 34.0362 62.745 35.0499 63.3742 35.6792C64.0035 36.2734 65.0346 36.5706 66.468 36.5706C67.2021 36.5706 67.8488 36.5182 68.4081 36.4133C69.0024 36.3084 69.6316 36.1337 70.2958 35.8889V39.2973C69.6316 39.542 68.8801 39.7168 68.0411 39.8216C67.237 39.9265 66.4504 39.979 65.6814 39.979ZM86.3135 39.9265C83.7965 39.9265 81.5068 39.3323 79.4443 38.1437C77.4167 36.9202 75.7912 35.2771 74.5677 33.2147C73.3791 31.1522 72.7849 28.845 72.7849 26.2931C72.7849 23.7761 73.3617 21.5039 74.5153 19.4763C75.6689 17.4139 77.2244 15.7884 79.1821 14.5998C81.1397 13.3763 83.3246 12.7645 85.7367 12.7645C88.0788 12.7645 90.1762 13.3763 92.0291 14.5998C93.9168 15.7884 95.4024 17.4139 96.4862 19.4763C97.6048 21.5039 98.1641 23.7761 98.1641 26.2931V27.4991H76.6128C76.8225 29.2121 77.3643 30.7502 78.2383 32.1135C79.1471 33.4768 80.3182 34.5606 81.7515 35.3646C83.1847 36.1337 84.7578 36.5182 86.4708 36.5182C87.8342 36.5182 89.1625 36.3084 90.456 35.8889C91.7493 35.4694 92.833 34.8752 93.707 34.1061L96.1191 36.6755C94.6509 37.7592 93.1127 38.5806 91.5047 39.14C89.9316 39.6643 88.2012 39.9265 86.3135 39.9265ZM76.7176 24.4054H94.2838C94.0741 22.8323 93.5497 21.4339 92.7107 20.2104C91.9066 18.952 90.8929 17.9731 89.6694 17.274C88.4458 16.5399 87.1 16.1728 85.6318 16.1728C84.1286 16.1728 82.7478 16.5225 81.4893 17.2216C80.2309 17.9207 79.1821 18.8995 78.3432 20.158C77.5042 21.3815 76.9623 22.7973 76.7176 24.4054ZM115.806 39.979C113.324 39.979 111.052 39.3847 108.99 38.1961C106.962 36.9726 105.354 35.3296 104.166 33.2671C102.977 31.2046 102.383 28.8974 102.383 26.3455C102.383 23.7936 102.977 21.4864 104.166 19.4239C105.354 17.3614 106.962 15.7359 108.99 14.5473C111.052 13.3238 113.324 12.712 115.806 12.712C118.323 12.712 120.596 13.3238 122.623 14.5473C124.651 15.7359 126.258 17.3614 127.447 19.4239C128.636 21.4864 129.23 23.7936 129.23 26.3455C129.23 28.8974 128.636 31.2046 127.447 33.2671C126.258 35.3296 124.651 36.9726 122.623 38.1961C120.596 39.3847 118.323 39.979 115.806 39.979ZM115.806 36.5182C117.589 36.5182 119.197 36.0637 120.631 35.1548C122.099 34.246 123.252 33.0224 124.091 31.4843C124.965 29.9462 125.403 28.2332 125.403 26.3455C125.403 24.4228 124.965 22.71 124.091 21.2067C123.252 19.6686 122.099 18.445 120.631 17.5362C119.197 16.6273 117.589 16.1728 115.806 16.1728C114.024 16.1728 112.398 16.6273 110.93 17.5362C109.497 18.445 108.343 19.6686 107.469 21.2067C106.63 22.71 106.211 24.4228 106.211 26.3455C106.211 28.2332 106.63 29.9462 107.469 31.4843C108.343 33.0224 109.497 34.246 110.93 35.1548C112.398 36.0637 114.024 36.5182 115.806 36.5182ZM135.354 39.4546L140.074 17.1691H134.096L134.988 12.7645H141.07L142.015 8.15008C142.573 5.56326 143.674 3.58812 145.317 2.22477C146.996 0.826428 149.128 0.127319 151.715 0.127319C152.484 0.127319 153.271 0.197192 154.075 0.337064C154.878 0.441937 155.56 0.616682 156.119 0.861428L155.228 5.37095C154.669 5.16121 154.109 5.0039 153.551 4.89903C152.991 4.79416 152.362 4.74172 151.662 4.74172C150.334 4.74172 149.302 5.05634 148.569 5.68557C147.835 6.27981 147.328 7.24123 147.048 8.56957L146.209 12.7645H153.655L152.658 17.1691H145.213L140.494 39.4546H135.354ZM151.96 39.4546L159.773 2.74914L165.121 1.59554L157.099 39.4546H151.96ZM173.87 39.9265C171.738 39.9265 169.937 39.4372 168.469 38.4583C167.035 37.4794 166.022 36.1511 165.428 34.4731C164.869 32.7952 164.799 30.89 165.218 28.7576L168.626 12.7645H173.765L170.461 28.2332C170.007 30.4005 170.269 32.1485 171.248 33.4768C172.262 34.7703 173.783 35.417 175.811 35.417C177.138 35.417 178.379 35.1374 179.533 34.578C180.686 34.0186 181.717 33.2147 182.627 32.1659L186.717 12.7645H191.856L186.192 39.4546H181.054L181.579 37.095C179.271 38.9827 176.701 39.9265 173.87 39.9265ZM189.268 39.4546L202.535 25.6114L195.666 12.7645H201.434L206.206 21.9408L214.858 12.7645H220.992L208.355 25.8211L215.644 39.4546H209.929L204.789 29.5965L195.404 39.4546H189.268Z" fill="black"/>
<path fill-rule="evenodd" clip-rule="evenodd" d="M263 17.8182H224.818V12.7273H263V17.8182Z" fill="black"/>
<path fill-rule="evenodd" clip-rule="evenodd" d="M255.364 28.6364H224.818V23.5455H255.364V28.6364Z" fill="black"/>
<path fill-rule="evenodd" clip-rule="evenodd" d="M247.727 39.4546H224.818V34.3637H247.727V39.4546Z" fill="black"/>
</svg>
