<svg width="111" height="100" viewBox="0 0 111 100" fill="none" xmlns="http://www.w3.org/2000/svg">
<path d="M24.9179 49.4128H14.636V21.2625C14.636 20.4861 14.6471 19.5322 14.6693 18.4009C14.6915 17.2474 14.7248 16.0716 14.7691 14.8738C14.8135 13.6537 14.8579 12.5556 14.9022 11.5796C14.6582 11.868 14.1591 12.3671 13.4049 13.0769C12.6728 13.7646 11.9851 14.3857 11.3418 14.9403L5.7517 19.4324L0.793779 13.2433L16.4661 0.765317H24.9179V49.4128Z" fill="black"/>
<path d="M72.2344 25.0891C72.2344 29.0155 71.9238 32.5204 71.3027 35.6039C70.7038 38.6873 69.7277 41.3049 68.3745 43.4567C67.0436 45.6084 65.2911 47.25 63.1172 48.3813C60.9432 49.5127 58.3034 50.0783 55.1978 50.0783C51.2936 50.0783 48.0881 49.0912 45.5814 47.1169C43.0747 45.1204 41.2225 42.2588 40.0246 38.532C38.8267 34.7831 38.2277 30.3021 38.2277 25.0891C38.2277 19.8317 38.7712 15.3396 39.8582 11.6128C40.9674 7.86391 42.7642 4.9912 45.2487 2.99472C47.7332 0.998239 51.0496 0 55.1978 0C59.0798 0 62.2742 0.998239 64.7809 2.99472C67.3098 4.96901 69.1842 7.83063 70.4043 11.5796C71.6244 15.3063 72.2344 19.8095 72.2344 25.0891ZM48.4431 25.0891C48.4431 28.7937 48.6427 31.8882 49.042 34.3727C49.4635 36.835 50.1622 38.6873 51.1383 39.9296C52.1144 41.1718 53.4675 41.7929 55.1978 41.7929C56.9059 41.7929 58.248 41.1829 59.224 39.9628C60.2223 38.7206 60.9321 36.8683 61.3536 34.406C61.7751 31.9215 61.9858 28.8158 61.9858 25.0891C61.9858 21.3845 61.7751 18.29 61.3536 15.8055C60.9321 13.3209 60.2223 11.4576 59.224 10.2153C58.248 8.95088 56.9059 8.31866 55.1978 8.31866C53.4675 8.31866 52.1144 8.95088 51.1383 10.2153C50.1622 11.4576 49.4635 13.3209 49.042 15.8055C48.6427 18.29 48.4431 21.3845 48.4431 25.0891Z" fill="black"/>
<path d="M97.8559 21.7616H110.733V29.0488H97.8559V41.8595H90.5687V29.0488H77.6915V21.7616H90.5687V8.7845H97.8559V21.7616Z" fill="black"/>
<path d="M3.68166 100C2.87692 100 2.17278 99.9531 1.56923 99.8592C0.952269 99.7787 0.429192 99.6781 0 99.5574V94.3669C0.429192 94.4607 0.891914 94.5479 1.38817 94.6284C1.87101 94.7223 2.38738 94.7692 2.93728 94.7692C3.66154 94.7692 4.31203 94.6284 4.88876 94.3467C5.46549 94.0785 5.9215 93.5621 6.25681 92.7976C6.59211 92.0331 6.75977 90.9333 6.75977 89.4982V61.9361H12.9965V89.458C12.9965 91.9795 12.6008 94.0114 11.8095 95.5538C11.0316 97.1097 9.93847 98.2363 8.53018 98.9337C7.13531 99.6446 5.51913 100 3.68166 100Z" fill="black"/>
<path d="M29.1314 68.3941C32.1491 68.3941 34.4627 69.0513 36.0722 70.3657C37.6817 71.6801 38.4864 73.6785 38.4864 76.3609V91.3491H34.2012L33.0142 88.2911H32.8533C32.2095 89.0959 31.5523 89.7531 30.8817 90.2627C30.2111 90.7724 29.4399 91.1479 28.5681 91.3893C27.6963 91.6308 26.6367 91.7515 25.3894 91.7515C24.0616 91.7515 22.8679 91.4966 21.8083 90.987C20.7621 90.4773 19.9373 89.6994 19.3337 88.6533C18.7302 87.5937 18.4284 86.2525 18.4284 84.6296C18.4284 82.2422 19.2667 80.4852 20.9432 79.3586C22.6197 78.2185 25.1345 77.5882 28.4876 77.4674L32.3905 77.3467V76.3609C32.3905 75.1807 32.0821 74.3156 31.4651 73.7657C30.8481 73.2158 29.9898 72.9408 28.89 72.9408C27.8036 72.9408 26.7373 73.0951 25.6911 73.4035C24.645 73.712 23.5988 74.101 22.5527 74.5704L20.5207 70.426C21.7144 69.7956 23.0489 69.2994 24.5243 68.9373C26.013 68.5751 27.5487 68.3941 29.1314 68.3941ZM32.3905 80.9278L30.0166 81.0083C28.0316 81.0619 26.6501 81.4174 25.8722 82.0745C25.1077 82.7318 24.7255 83.5968 24.7255 84.6698C24.7255 85.6087 25.0004 86.2793 25.5503 86.6817C26.1002 87.0706 26.8178 87.2651 27.703 87.2651C29.0174 87.2651 30.1239 86.8761 31.0225 86.0982C31.9345 85.3203 32.3905 84.2138 32.3905 82.7787V80.9278Z" fill="black"/>
<path d="M50.9598 60.045V66.4225C50.9598 67.5357 50.9196 68.5953 50.8391 69.6012C50.772 70.6071 50.7184 71.3179 50.6781 71.7337H51C51.4829 70.9558 52.0529 70.3254 52.7101 69.8426C53.3807 69.3597 54.1184 69.0043 54.9231 68.7763C55.7278 68.5483 56.5929 68.4343 57.5184 68.4343C59.1413 68.4343 60.5562 68.7227 61.7633 69.2994C62.9704 69.8627 63.9093 70.7546 64.5799 71.9751C65.2505 73.1822 65.5858 74.7515 65.5858 76.6828V91.3491H59.4497V78.2118C59.4497 76.6024 59.1547 75.3885 58.5645 74.5704C57.9744 73.7523 57.0624 73.3432 55.8284 73.3432C54.5945 73.3432 53.6221 73.6315 52.9113 74.2083C52.2004 74.7716 51.6975 75.6099 51.4024 76.7231C51.1073 77.8229 50.9598 79.1708 50.9598 80.7669V91.3491H44.8237V60.045H50.9598Z" fill="black"/>
<path d="M84.4569 68.4343C84.7653 68.4343 85.1208 68.4544 85.5231 68.4947C85.9389 68.5215 86.2742 68.5617 86.529 68.6154L86.0663 74.3692C85.8651 74.3022 85.5768 74.2552 85.2012 74.2284C84.8391 74.1882 84.5239 74.168 84.2557 74.168C83.4643 74.168 82.6931 74.2686 81.9421 74.4698C81.2044 74.671 80.5405 74.9996 79.9503 75.4556C79.3602 75.8982 78.8908 76.4884 78.5421 77.226C78.2067 77.9503 78.0391 78.8422 78.0391 79.9018V91.3491H71.903V68.8568H76.5503L77.4557 72.639H77.7574C78.2 71.8745 78.7499 71.1771 79.4071 70.5467C80.0778 69.9029 80.8355 69.3933 81.6805 69.0177C82.5389 68.6288 83.4643 68.4343 84.4569 68.4343Z" fill="black"/>
<path d="M99.8876 68.4343C101.967 68.4343 103.757 68.8367 105.259 69.6414C106.761 70.4327 107.922 71.5862 108.74 73.1018C109.558 74.6173 109.967 76.4682 109.967 78.6544V81.6319H95.4616C95.5286 83.3621 96.045 84.7235 97.0107 85.716C97.9898 86.6951 99.3444 87.1846 101.075 87.1846C102.51 87.1846 103.824 87.0371 105.018 86.742C106.211 86.4469 107.439 86.0043 108.699 85.4142V90.1621C107.586 90.712 106.419 91.1144 105.199 91.3692C103.992 91.6241 102.523 91.7515 100.793 91.7515C98.5397 91.7515 96.5413 91.3357 94.7977 90.5041C93.0675 89.6726 91.7062 88.4051 90.7137 86.7018C89.7346 84.9984 89.245 82.8525 89.245 80.2639C89.245 77.6351 89.6876 75.4489 90.5728 73.7053C91.4714 71.9483 92.7188 70.6339 94.3148 69.7621C95.9109 68.8769 97.7685 68.4343 99.8876 68.4343ZM99.9279 72.8C98.7342 72.8 97.7417 73.1822 96.9503 73.9467C96.1724 74.7112 95.7231 75.9116 95.6024 77.5479H104.213C104.2 76.6359 104.032 75.8244 103.71 75.1136C103.402 74.4028 102.932 73.8394 102.302 73.4237C101.685 73.0079 100.894 72.8 99.9279 72.8Z" fill="black"/>
</svg>
