<svg width="282" height="125" viewBox="0 0 282 125" fill="none" xmlns="http://www.w3.org/2000/svg">
<path d="M10.6087 99.0654L8.89917 94.6586H3.33363L1.63357 99.0654H0L5.43258 85.1231H6.8857L12.2803 99.0654H10.6087ZM8.4148 93.2245L6.79072 88.8461C6.75273 88.7321 6.68942 88.5454 6.60077 88.2858C6.51846 88.0262 6.43298 87.7571 6.34434 87.4785C6.2557 87.1999 6.18288 86.9751 6.1259 86.8041C6.06258 87.0637 5.99293 87.3233 5.91695 87.5829C5.8473 87.8362 5.77766 88.0736 5.70801 88.2953C5.63836 88.5105 5.57821 88.6942 5.52755 88.8461L3.87499 93.2245H8.4148Z" fill="black"/>
<path d="M18.7006 88.4662C18.9096 88.4662 19.128 88.4789 19.3559 88.5042C19.5839 88.5232 19.7865 88.5517 19.9638 88.5897L19.7643 90.0523C19.5934 90.008 19.4034 89.9732 19.1945 89.9478C18.9855 89.9225 18.7893 89.9098 18.6056 89.9098C18.1877 89.9098 17.792 89.9953 17.4184 90.1663C17.0512 90.3309 16.7283 90.5715 16.4497 90.8881C16.1711 91.1983 15.9527 91.5751 15.7944 92.0183C15.6361 92.4552 15.5569 92.9427 15.5569 93.4809V99.0654H13.9708V88.6562H15.2815L15.4525 90.5747H15.5189C15.7342 90.1884 15.9938 89.837 16.2977 89.5204C16.6017 89.1975 16.9531 88.9411 17.352 88.7511C17.7572 88.5612 18.2067 88.4662 18.7006 88.4662Z" fill="black"/>
<path d="M26.0992 99.2554C25.1621 99.2554 24.3358 99.0623 23.6203 98.676C22.9048 98.2898 22.3477 97.701 21.9488 96.9095C21.5499 96.118 21.3504 95.1208 21.3504 93.9178C21.3504 92.6578 21.5594 91.6289 21.9773 90.8311C22.4015 90.027 22.984 89.4318 23.7248 89.0456C24.4656 88.6593 25.3077 88.4662 26.2511 88.4662C26.7703 88.4662 27.2705 88.52 27.7517 88.6277C28.2393 88.729 28.6382 88.8588 28.9484 89.0171L28.4736 90.3372C28.157 90.2106 27.7897 90.0966 27.3718 89.9953C26.9603 89.894 26.5741 89.8434 26.2131 89.8434C25.4913 89.8434 24.8898 89.9985 24.4086 90.3087C23.9337 90.619 23.576 91.0749 23.3354 91.6764C23.1011 92.2779 22.984 93.0187 22.984 93.8988C22.984 94.7409 23.098 95.4595 23.3259 96.0547C23.5602 96.6499 23.9053 97.1058 24.3611 97.4224C24.8233 97.7326 25.3995 97.8877 26.0897 97.8877C26.6405 97.8877 27.1376 97.8308 27.5808 97.7168C28.024 97.5965 28.4261 97.4572 28.787 97.2989V98.7045C28.4387 98.8818 28.0493 99.018 27.6188 99.1129C27.1946 99.2079 26.688 99.2554 26.0992 99.2554Z" fill="black"/>
<path d="M32.8329 84.2873V88.7037C32.8329 88.9569 32.8266 89.2133 32.8139 89.4729C32.8013 89.7262 32.7791 89.9605 32.7474 90.1758H32.8519C33.0672 89.8085 33.3395 89.5014 33.6687 89.2545C34.0043 89.0012 34.3842 88.8113 34.8084 88.6847C35.2326 88.5517 35.6822 88.4852 36.157 88.4852C36.9928 88.4852 37.6893 88.6182 38.2465 88.8841C38.81 89.15 39.2311 89.5616 39.5097 90.1188C39.7946 90.676 39.9371 91.3978 39.9371 92.2842V99.0654H38.3795V92.3887C38.3795 91.5212 38.18 90.8722 37.7811 90.4417C37.3886 90.0111 36.7839 89.7959 35.9671 89.7959C35.1946 89.7959 34.5773 89.9447 34.1151 90.2422C33.6592 90.5335 33.33 90.9641 33.1273 91.5339C32.9311 92.1038 32.8329 92.8002 32.8329 93.6234V99.0654H31.2563V84.2873H32.8329Z" fill="black"/>
<path d="M44.7618 88.6562V99.0654H43.1852V88.6562H44.7618ZM43.9925 84.7622C44.2521 84.7622 44.4737 84.8477 44.6573 85.0186C44.8473 85.1832 44.9422 85.4428 44.9422 85.7974C44.9422 86.1457 44.8473 86.4053 44.6573 86.5762C44.4737 86.7472 44.2521 86.8326 43.9925 86.8326C43.7202 86.8326 43.4923 86.7472 43.3087 86.5762C43.1314 86.4053 43.0427 86.1457 43.0427 85.7974C43.0427 85.4428 43.1314 85.1832 43.3087 85.0186C43.4923 84.8477 43.7202 84.7622 43.9925 84.7622Z" fill="black"/>
<path d="M51.467 97.9637C51.7266 97.9637 51.9926 97.9416 52.2648 97.8972C52.5371 97.8529 52.7587 97.7991 52.9297 97.7358V98.961C52.746 99.0433 52.4896 99.1129 52.1604 99.1699C51.8374 99.2269 51.5209 99.2554 51.2106 99.2554C50.6598 99.2554 50.1596 99.1604 49.71 98.9705C49.2605 98.7742 48.8995 98.4449 48.6273 97.9827C48.3614 97.5205 48.2284 96.881 48.2284 96.0642V89.8908H46.7468V89.1215L48.2379 88.5042L48.8647 86.2438H49.8145V88.6562H52.8632V89.8908H49.8145V96.0167C49.8145 96.6689 49.9633 97.1564 50.2609 97.4794C50.5648 97.8023 50.9668 97.9637 51.467 97.9637Z" fill="black"/>
<path d="M59.0461 88.4662C59.9325 88.4662 60.6923 88.6625 61.3255 89.0551C61.9586 89.4476 62.443 89.9985 62.7786 90.7076C63.1142 91.4104 63.282 92.2336 63.282 93.177V94.1552H56.0923C56.1113 95.3772 56.4153 96.308 57.0041 96.9475C57.5929 97.587 58.4224 97.9067 59.4924 97.9067C60.1509 97.9067 60.7335 97.8466 61.24 97.7263C61.7465 97.606 62.2721 97.4287 62.8166 97.1944V98.5811C62.291 98.8153 61.7687 98.9863 61.2495 99.0939C60.7366 99.2016 60.1288 99.2554 59.426 99.2554C58.4256 99.2554 57.5518 99.0528 56.8046 98.6476C56.0638 98.236 55.4877 97.6345 55.0761 96.843C54.6645 96.0516 54.4588 95.0828 54.4588 93.9368C54.4588 92.8161 54.6455 91.8473 55.0191 91.0305C55.399 90.2074 55.9309 89.5743 56.6147 89.131C57.3049 88.6878 58.1153 88.4662 59.0461 88.4662ZM59.0271 89.7579C58.185 89.7579 57.5138 90.0333 57.0136 90.5842C56.5134 91.135 56.2158 91.9043 56.1208 92.8921H61.6294C61.6231 92.2716 61.5249 91.727 61.335 91.2585C61.1513 90.7836 60.8696 90.4164 60.4897 90.1568C60.1098 89.8908 59.6222 89.7579 59.0271 89.7579Z" fill="black"/>
<path d="M70.1297 99.2554C69.1926 99.2554 68.3663 99.0623 67.6508 98.676C66.9353 98.2898 66.3781 97.701 65.9792 96.9095C65.5804 96.118 65.3809 95.1208 65.3809 93.9178C65.3809 92.6578 65.5899 91.6289 66.0077 90.8311C66.432 90.027 67.0145 89.4318 67.7553 89.0456C68.4961 88.6593 69.3382 88.4662 70.2816 88.4662C70.8008 88.4662 71.301 88.52 71.7822 88.6277C72.2698 88.729 72.6687 88.8588 72.9789 89.0171L72.504 90.3372C72.1875 90.2106 71.8202 90.0966 71.4023 89.9953C70.9908 89.894 70.6045 89.8434 70.2436 89.8434C69.5218 89.8434 68.9203 89.9985 68.4391 90.3087C67.9642 90.619 67.6065 91.0749 67.3659 91.6764C67.1316 92.2779 67.0145 93.0187 67.0145 93.8988C67.0145 94.7409 67.1284 95.4595 67.3564 96.0547C67.5907 96.6499 67.9357 97.1058 68.3916 97.4224C68.8538 97.7326 69.43 97.8877 70.1202 97.8877C70.671 97.8877 71.1681 97.8308 71.6113 97.7168C72.0545 97.5965 72.4566 97.4572 72.8175 97.2989V98.7045C72.4692 98.8818 72.0798 99.018 71.6493 99.1129C71.225 99.2079 70.7185 99.2554 70.1297 99.2554Z" fill="black"/>
<path d="M78.6489 97.9637C78.9085 97.9637 79.1745 97.9416 79.4467 97.8972C79.719 97.8529 79.9406 97.7991 80.1116 97.7358V98.961C79.9279 99.0433 79.6715 99.1129 79.3423 99.1699C79.0193 99.2269 78.7028 99.2554 78.3925 99.2554C77.8417 99.2554 77.3414 99.1604 76.8919 98.9705C76.4424 98.7742 76.0814 98.4449 75.8092 97.9827C75.5433 97.5205 75.4103 96.881 75.4103 96.0642V89.8908H73.9287V89.1215L75.4198 88.5042L76.0466 86.2438H76.9964V88.6562H80.0451V89.8908H76.9964V96.0167C76.9964 96.6689 77.1452 97.1564 77.4428 97.4794C77.7467 97.8023 78.1487 97.9637 78.6489 97.9637Z" fill="black"/>
<path d="M103.206 0.892767H107.138C108.873 0.892767 110.178 1.15237 111.051 1.67156C111.925 2.19076 112.362 3.07403 112.362 4.32137C112.362 4.85956 112.257 5.34394 112.049 5.77449C111.846 6.19871 111.548 6.55012 111.156 6.82872C110.763 7.10731 110.279 7.30043 109.703 7.40806V7.50304C110.31 7.59801 110.849 7.77214 111.317 8.0254C111.786 8.27867 112.153 8.63324 112.419 9.08912C112.685 9.545 112.818 10.1244 112.818 10.8272C112.818 11.6819 112.618 12.4038 112.219 12.9926C111.827 13.5815 111.27 14.0278 110.548 14.3318C109.826 14.6293 108.971 14.7781 107.984 14.7781H103.206V0.892767ZM104.821 6.84771H107.48C108.69 6.84771 109.525 6.64826 109.988 6.24937C110.456 5.85047 110.69 5.26796 110.69 4.50182C110.69 3.71036 110.412 3.14051 109.855 2.79227C109.304 2.44403 108.424 2.26991 107.214 2.26991H104.821V6.84771ZM104.821 8.20586V13.401H107.708C108.943 13.401 109.817 13.1604 110.329 12.6792C110.842 12.1916 111.099 11.5363 111.099 10.7132C111.099 10.1877 110.982 9.73812 110.747 9.36455C110.519 8.99098 110.146 8.70606 109.627 8.50978C109.114 8.30716 108.427 8.20586 107.566 8.20586H104.821Z" fill="black"/>
<path d="M119.438 4.1979C120.679 4.1979 121.6 4.4765 122.201 5.03368C122.803 5.59087 123.104 6.48047 123.104 7.70249V14.7781H121.954L121.651 13.2395H121.575C121.283 13.6194 120.979 13.9392 120.663 14.1988C120.346 14.4521 119.979 14.6452 119.561 14.7781C119.15 14.9048 118.643 14.9681 118.041 14.9681C117.408 14.9681 116.845 14.8573 116.351 14.6357C115.863 14.4141 115.477 14.0785 115.192 13.6289C114.914 13.1794 114.774 12.6095 114.774 11.9194C114.774 10.881 115.186 10.0832 116.009 9.52601C116.832 8.96882 118.086 8.6649 119.77 8.61425L121.565 8.53827V7.90193C121.565 7.00284 121.372 6.37283 120.986 6.01193C120.599 5.65102 120.055 5.47057 119.352 5.47057C118.808 5.47057 118.288 5.54972 117.795 5.70801C117.301 5.8663 116.832 6.05308 116.389 6.26836L115.905 5.07167C116.373 4.83107 116.911 4.62529 117.519 4.45434C118.127 4.28338 118.766 4.1979 119.438 4.1979ZM121.546 9.64948L119.96 9.71596C118.662 9.76661 117.747 9.97873 117.215 10.3523C116.683 10.7259 116.417 11.2546 116.417 11.9384C116.417 12.5336 116.598 12.9736 116.959 13.2585C117.32 13.5435 117.798 13.6859 118.393 13.6859C119.317 13.6859 120.074 13.4295 120.663 12.9166C121.252 12.4038 121.546 11.6345 121.546 10.6087V9.64948Z" fill="black"/>
<path d="M130.521 14.9681C129.584 14.9681 128.758 14.775 128.042 14.3887C127.327 14.0025 126.77 13.4137 126.371 12.6222C125.972 11.8307 125.772 10.8335 125.772 9.63048C125.772 8.37048 125.981 7.34158 126.399 6.54379C126.824 5.73967 127.406 5.14449 128.147 4.75826C128.888 4.37202 129.73 4.17891 130.673 4.17891C131.192 4.17891 131.693 4.23273 132.174 4.34037C132.661 4.44167 133.06 4.57147 133.37 4.72976L132.896 6.04992C132.579 5.92329 132.212 5.80932 131.794 5.70801C131.382 5.6067 130.996 5.55605 130.635 5.55605C129.913 5.55605 129.312 5.71117 128.831 6.02143C128.356 6.33168 127.998 6.78756 127.757 7.38907C127.523 7.99058 127.406 8.73138 127.406 9.61149C127.406 10.4536 127.52 11.1722 127.748 11.7674C127.982 12.3626 128.327 12.8185 128.783 13.1351C129.245 13.4453 129.822 13.6004 130.512 13.6004C131.063 13.6004 131.56 13.5435 132.003 13.4295C132.446 13.3092 132.848 13.1699 133.209 13.0116V14.4172C132.861 14.5945 132.471 14.7306 132.041 14.8256C131.617 14.9206 131.11 14.9681 130.521 14.9681Z" fill="black"/>
<path d="M137.245 0V7.67399C137.245 7.92726 137.236 8.23751 137.217 8.60475C137.198 8.96566 137.182 9.28541 137.169 9.564H137.236C137.369 9.39938 137.562 9.15561 137.815 8.83269C138.075 8.50978 138.293 8.25018 138.471 8.05389L141.928 4.36886H143.78L139.591 8.8137L144.084 14.7781H142.184L138.509 9.84893L137.245 11.0076V14.7781H135.678V0H137.245Z" fill="black"/>
<path d="M149.906 4.17891C150.792 4.17891 151.552 4.37519 152.185 4.76775C152.818 5.16032 153.303 5.71117 153.638 6.42032C153.974 7.12314 154.142 7.94626 154.142 8.88968V9.86792H146.952C146.971 11.0899 147.275 12.0207 147.864 12.6602C148.453 13.2997 149.282 13.6194 150.352 13.6194C151.011 13.6194 151.593 13.5593 152.1 13.439C152.606 13.3187 153.132 13.1414 153.676 12.9071V14.2938C153.151 14.528 152.628 14.699 152.109 14.8066C151.596 14.9143 150.988 14.9681 150.286 14.9681C149.285 14.9681 148.411 14.7655 147.664 14.3602C146.923 13.9487 146.347 13.3472 145.936 12.5557C145.524 11.7643 145.318 10.7955 145.318 9.64948C145.318 8.52877 145.505 7.56002 145.879 6.74324C146.259 5.92012 146.79 5.28695 147.474 4.84373C148.164 4.40052 148.975 4.17891 149.906 4.17891ZM149.887 5.47057C149.045 5.47057 148.373 5.746 147.873 6.29685C147.373 6.84771 147.075 7.61701 146.98 8.60475H152.489C152.483 7.98425 152.384 7.43972 152.195 6.97118C152.011 6.4963 151.729 6.12906 151.349 5.86947C150.969 5.60354 150.482 5.47057 149.887 5.47057Z" fill="black"/>
<path d="M161.749 4.17891C162.984 4.17891 163.918 4.48283 164.551 5.09067C165.184 5.69218 165.501 6.66093 165.501 7.99691V14.7781H163.943V8.10138C163.943 7.23394 163.744 6.58495 163.345 6.15439C162.952 5.72384 162.347 5.50856 161.531 5.50856C160.378 5.50856 159.568 5.83464 159.099 6.4868C158.631 7.13897 158.396 8.08555 158.396 9.32656V14.7781H156.82V4.36886H158.092L158.33 5.86947H158.415C158.637 5.50223 158.919 5.19514 159.261 4.94821C159.603 4.69494 159.986 4.50499 160.41 4.37836C160.834 4.24539 161.281 4.17891 161.749 4.17891Z" fill="black"/>
<path d="M172.453 14.9681C171.136 14.9681 170.091 14.5185 169.319 13.6194C168.552 12.7203 168.169 11.3844 168.169 9.61149C168.169 7.81962 168.562 6.46781 169.347 5.55605C170.132 4.63795 171.177 4.17891 172.481 4.17891C173.032 4.17891 173.513 4.25172 173.925 4.39735C174.336 4.54298 174.691 4.73926 174.989 4.9862C175.286 5.2268 175.536 5.50223 175.739 5.81248H175.853C175.828 5.6162 175.802 5.3471 175.777 5.00519C175.752 4.66328 175.739 4.38469 175.739 4.16941V0H177.315V14.7781H176.043L175.805 13.2965H175.739C175.543 13.6068 175.293 13.8885 174.989 14.1418C174.691 14.3951 174.333 14.5977 173.915 14.7496C173.504 14.8953 173.016 14.9681 172.453 14.9681ZM172.7 13.6574C173.814 13.6574 174.602 13.3408 175.065 12.7077C175.527 12.0745 175.758 11.1343 175.758 9.88692V9.60199C175.758 8.27867 175.536 7.26244 175.093 6.55329C174.656 5.84414 173.858 5.48957 172.7 5.48957C171.731 5.48957 171.006 5.86313 170.525 6.61027C170.044 7.35108 169.803 8.36415 169.803 9.64948C169.803 10.9285 170.04 11.9162 170.515 12.6127C170.996 13.3092 171.725 13.6574 172.7 13.6574Z" fill="black"/>
<path d="M202.886 99.0654H201.271V85.1801H209.002V86.6047H202.886V91.6954H208.632V93.1105H202.886V99.0654Z" fill="black"/>
<path d="M215.812 88.4662C216.021 88.4662 216.239 88.4789 216.467 88.5042C216.695 88.5232 216.898 88.5517 217.075 88.5897L216.876 90.0523C216.705 90.008 216.515 89.9732 216.306 89.9478C216.097 89.9225 215.901 89.9098 215.717 89.9098C215.299 89.9098 214.903 89.9953 214.53 90.1663C214.163 90.3309 213.84 90.5715 213.561 90.8881C213.283 91.1983 213.064 91.5751 212.906 92.0183C212.748 92.4552 212.668 92.9427 212.668 93.4809V99.0654H211.082V88.6562H212.393L212.564 90.5747H212.63C212.846 90.1884 213.105 89.837 213.409 89.5204C213.713 89.1975 214.065 88.9411 214.463 88.7511C214.869 88.5612 215.318 88.4662 215.812 88.4662Z" fill="black"/>
<path d="M228.016 93.8418C228.016 94.6966 227.906 95.4595 227.684 96.1307C227.462 96.8019 227.143 97.3686 226.725 97.8308C226.307 98.293 225.8 98.6476 225.205 98.8945C224.616 99.1351 223.948 99.2554 223.201 99.2554C222.505 99.2554 221.865 99.1351 221.283 98.8945C220.706 98.6476 220.206 98.293 219.782 97.8308C219.364 97.3686 219.038 96.8019 218.804 96.1307C218.576 95.4595 218.462 94.6966 218.462 93.8418C218.462 92.7021 218.655 91.7334 219.041 90.9356C219.427 90.1314 219.978 89.5204 220.694 89.1025C221.416 88.6783 222.274 88.4662 223.268 88.4662C224.217 88.4662 225.047 88.6783 225.756 89.1025C226.471 89.5268 227.025 90.1409 227.418 90.9451C227.817 91.7429 228.016 92.7084 228.016 93.8418ZM220.095 93.8418C220.095 94.6776 220.206 95.4026 220.428 96.0167C220.649 96.6309 220.991 97.1058 221.454 97.4414C221.916 97.7769 222.511 97.9447 223.239 97.9447C223.961 97.9447 224.553 97.7769 225.015 97.4414C225.484 97.1058 225.829 96.6309 226.05 96.0167C226.272 95.4026 226.383 94.6776 226.383 93.8418C226.383 93.0124 226.272 92.2969 226.05 91.6954C225.829 91.0875 225.487 90.619 225.025 90.2897C224.562 89.9605 223.964 89.7959 223.23 89.7959C222.147 89.7959 221.352 90.1536 220.846 90.8691C220.346 91.5846 220.095 92.5755 220.095 93.8418Z" fill="black"/>
<path d="M235.671 88.4662C236.906 88.4662 237.84 88.7701 238.473 89.378C239.106 89.9795 239.423 90.9482 239.423 92.2842V99.0654H237.865V92.3887C237.865 91.5212 237.666 90.8722 237.267 90.4417C236.874 90.0111 236.27 89.7959 235.453 89.7959C234.301 89.7959 233.49 90.1219 233.022 90.7741C232.553 91.4263 232.319 92.3729 232.319 93.6139V99.0654H230.742V88.6562H232.015L232.252 90.1568H232.338C232.559 89.7895 232.841 89.4824 233.183 89.2355C233.525 88.9822 233.908 88.7923 234.332 88.6657C234.756 88.5327 235.203 88.4662 235.671 88.4662Z" fill="black"/>
<path d="M246.033 97.9637C246.293 97.9637 246.559 97.9416 246.831 97.8972C247.103 97.8529 247.325 97.7991 247.496 97.7358V98.961C247.312 99.0433 247.056 99.1129 246.727 99.1699C246.404 99.2269 246.087 99.2554 245.777 99.2554C245.226 99.2554 244.726 99.1604 244.276 98.9705C243.827 98.7742 243.466 98.4449 243.193 97.9827C242.927 97.5205 242.795 96.881 242.795 96.0642V89.8908H241.313V89.1215L242.804 88.5042L243.431 86.2438H244.381V88.6562H247.429V89.8908H244.381V96.0167C244.381 96.6689 244.529 97.1564 244.827 97.4794C245.131 97.8023 245.533 97.9637 246.033 97.9637Z" fill="black"/>
<path d="M253.612 88.4662C254.499 88.4662 255.258 88.6625 255.892 89.0551C256.525 89.4476 257.009 89.9985 257.345 90.7076C257.68 91.4104 257.848 92.2336 257.848 93.177V94.1552H250.658C250.677 95.3772 250.981 96.308 251.57 96.9475C252.159 97.587 252.989 97.9067 254.059 97.9067C254.717 97.9067 255.3 97.8466 255.806 97.7263C256.313 97.606 256.838 97.4287 257.383 97.1944V98.5811C256.857 98.8153 256.335 98.9863 255.816 99.0939C255.303 99.2016 254.695 99.2554 253.992 99.2554C252.992 99.2554 252.118 99.0528 251.371 98.6476C250.63 98.236 250.054 97.6345 249.642 96.843C249.231 96.0516 249.025 95.0828 249.025 93.9368C249.025 92.8161 249.212 91.8473 249.585 91.0305C249.965 90.2074 250.497 89.5743 251.181 89.131C251.871 88.6878 252.681 88.4662 253.612 88.4662ZM253.593 89.7579C252.751 89.7579 252.08 90.0333 251.58 90.5842C251.08 91.135 250.782 91.9043 250.687 92.8921H256.196C256.189 92.2716 256.091 91.727 255.901 91.2585C255.717 90.7836 255.436 90.4164 255.056 90.1568C254.676 89.8908 254.188 89.7579 253.593 89.7579Z" fill="black"/>
<path d="M265.456 88.4662C266.69 88.4662 267.624 88.7701 268.257 89.378C268.891 89.9795 269.207 90.9482 269.207 92.2842V99.0654H267.65V92.3887C267.65 91.5212 267.45 90.8722 267.051 90.4417C266.659 90.0111 266.054 89.7959 265.237 89.7959C264.085 89.7959 263.274 90.1219 262.806 90.7741C262.337 91.4263 262.103 92.3729 262.103 93.6139V99.0654H260.526V88.6562H261.799L262.036 90.1568H262.122C262.344 89.7895 262.625 89.4824 262.967 89.2355C263.309 88.9822 263.692 88.7923 264.116 88.6657C264.541 88.5327 264.987 88.4662 265.456 88.4662Z" fill="black"/>
<path d="M276.159 99.2554C274.842 99.2554 273.798 98.8058 273.025 97.9067C272.259 97.0076 271.876 95.6717 271.876 93.8988C271.876 92.1069 272.268 90.7551 273.054 89.8434C273.839 88.9253 274.883 88.4662 276.188 88.4662C276.739 88.4662 277.22 88.539 277.631 88.6847C278.043 88.8303 278.398 89.0266 278.695 89.2735C278.993 89.5141 279.243 89.7895 279.445 90.0998H279.559C279.534 89.9035 279.509 89.6344 279.483 89.2925C279.458 88.9506 279.445 88.672 279.445 88.4567V84.2873H281.022V99.0654H279.749L279.512 97.5838H279.445C279.249 97.8941 278.999 98.1758 278.695 98.4291C278.398 98.6824 278.04 98.885 277.622 99.0369C277.21 99.1826 276.723 99.2554 276.159 99.2554ZM276.406 97.9447C277.521 97.9447 278.309 97.6282 278.771 96.995C279.233 96.3618 279.464 95.4216 279.464 94.1742V93.8893C279.464 92.566 279.243 91.5497 278.8 90.8406C278.363 90.1314 277.565 89.7769 276.406 89.7769C275.438 89.7769 274.713 90.1504 274.231 90.8976C273.75 91.6384 273.509 92.6515 273.509 93.9368C273.509 95.2158 273.747 96.2035 274.222 96.9C274.703 97.5965 275.431 97.9447 276.406 97.9447Z" fill="black"/>
<path fill-rule="evenodd" clip-rule="evenodd" d="M124.061 123.886C141.385 123.886 155.428 109.843 155.428 92.5199C155.428 75.1967 141.385 61.1535 124.061 61.1535C106.738 61.1535 92.695 75.1967 92.695 92.5199C92.695 109.843 106.738 123.886 124.061 123.886ZM124.061 125C142 125 156.542 110.458 156.542 92.5199C156.542 74.5817 142 60.0399 124.061 60.0399C106.123 60.0399 91.5814 74.5817 91.5814 92.5199C91.5814 110.458 106.123 125 124.061 125Z" fill="black"/>
<path fill-rule="evenodd" clip-rule="evenodd" d="M156.727 123.515C174.05 123.515 188.094 109.472 188.094 92.1487C188.094 74.8255 174.05 60.7823 156.727 60.7823C139.404 60.7823 125.361 74.8255 125.361 92.1487C125.361 109.472 139.404 123.515 156.727 123.515ZM156.727 124.629C174.665 124.629 189.207 110.087 189.207 92.1487C189.207 74.2105 174.665 59.6687 156.727 59.6687C138.789 59.6687 124.247 74.2105 124.247 92.1487C124.247 110.087 138.789 124.629 156.727 124.629Z" fill="black"/>
<path fill-rule="evenodd" clip-rule="evenodd" d="M140.394 91.5919C157.717 91.5919 171.761 77.5487 171.761 60.2255C171.761 42.9023 157.717 28.859 140.394 28.859C123.071 28.859 109.028 42.9023 109.028 60.2255C109.028 77.5487 123.071 91.5919 140.394 91.5919ZM140.394 92.7055C158.333 92.7055 172.874 78.1637 172.874 60.2255C172.874 42.2872 158.333 27.7454 140.394 27.7454C122.456 27.7454 107.914 42.2872 107.914 60.2255C107.914 78.1637 122.456 92.7055 140.394 92.7055Z" fill="black"/>
<path fill-rule="evenodd" clip-rule="evenodd" d="M134.626 68.4827C134.935 68.1934 135.25 67.9101 135.57 67.6329L141.278 64.9711C141.403 65.0488 141.527 65.1273 141.651 65.2066L134.626 68.4827ZM132.446 70.7278C132.658 70.4878 132.873 70.2509 133.091 70.0173L142.379 65.6866C142.497 65.7673 142.615 65.8487 142.733 65.9309L132.446 70.7278ZM130.832 72.7091C130.994 72.4939 131.158 72.2807 131.325 72.0697L143.424 66.4276C143.537 66.511 143.65 66.5952 143.762 66.68L130.832 72.7091ZM129.557 74.5324C129.687 74.3329 129.818 74.135 129.952 73.9386L144.419 67.1924C144.527 67.2784 144.634 67.365 144.74 67.4523L129.557 74.5324ZM128.518 76.2457C128.624 76.0576 128.732 75.8706 128.842 75.6849L145.366 67.9795C145.469 68.0679 145.571 68.157 145.672 68.2466L128.518 76.2457ZM127.657 77.8759C127.745 77.6965 127.835 77.518 127.927 77.3405L146.268 68.7877C146.366 68.8785 146.463 68.9698 146.559 69.0617L127.657 77.8759ZM126.938 79.4397C127.012 79.2674 127.087 79.0958 127.164 78.925L147.127 69.6162C147.219 69.7091 147.312 69.8026 147.403 69.8966L126.938 79.4397ZM126.337 80.9487C126.399 80.7822 126.462 80.6164 126.526 80.4513L147.944 70.4639C148.032 70.559 148.12 70.6545 148.207 70.7507L126.337 80.9487ZM125.837 82.4108C125.888 82.2494 125.94 82.0885 125.993 81.9282L148.721 71.3303C148.805 71.4274 148.888 71.525 148.971 71.6231L125.837 82.4108ZM125.424 83.8322C125.465 83.6752 125.508 83.5187 125.552 83.3626L149.459 72.2147C149.539 72.3138 149.618 72.4134 149.697 72.5134L125.424 83.8322ZM125.088 85.2175C125.121 85.0644 125.156 84.9117 125.192 84.7595L150.16 73.1166C150.236 73.2177 150.311 73.3192 150.385 73.4211L125.088 85.2175ZM124.822 86.5704C124.848 86.4209 124.875 86.2717 124.903 86.1228L150.824 74.0358C150.896 74.1387 150.967 74.2421 151.037 74.3459L124.822 86.5704ZM124.618 87.8939C124.638 87.7476 124.658 87.6016 124.679 87.4558L151.452 74.9717C151.519 75.0765 151.587 75.1817 151.653 75.2874L124.618 87.8939ZM125.106 88.8952C124.971 88.8224 124.836 88.7487 124.702 88.674L152.044 75.9242C152.108 76.0309 152.171 76.1379 152.234 76.2454L125.106 88.8952ZM126.149 89.4328C126.007 89.363 125.866 89.2923 125.726 89.2205L152.511 76.7305C152.571 76.8387 152.631 76.9473 152.691 77.0562L126.149 89.4328ZM127.468 90.0462C127.318 89.9805 127.169 89.9137 127.02 89.8458L153.039 77.7131C153.095 77.8231 153.151 77.9334 153.207 78.0442L127.468 90.0462ZM128.87 90.6212C128.711 90.56 128.552 90.4977 128.393 90.4341L153.532 78.7118C153.585 78.8236 153.637 78.9358 153.689 79.0483L128.87 90.6212ZM130.367 91.1522C130.196 91.0963 130.026 91.0391 129.857 90.9805L153.99 79.7268C154.039 79.8404 154.088 79.9544 154.135 80.0687L130.367 91.1522ZM131.972 91.6322C131.789 91.5825 131.606 91.5312 131.424 91.4784L154.414 80.758C154.459 80.8734 154.503 80.9892 154.547 81.1053L131.972 91.6322ZM133.709 92.0511C133.51 92.0089 133.312 91.9648 133.114 91.919L154.802 81.8055C154.844 81.9229 154.884 82.0405 154.924 82.1584L133.709 92.0511ZM135.607 92.3949C135.388 92.362 135.171 92.327 134.954 92.2898L155.155 82.8696C155.193 82.9888 155.229 83.1083 155.265 83.228L135.607 92.3949ZM137.712 92.6419C137.468 92.6213 137.225 92.598 136.983 92.5721L155.473 83.9504C155.506 84.0715 155.538 84.1928 155.57 84.3144L137.712 92.6419ZM140.102 92.7562C139.823 92.753 139.544 92.7463 139.267 92.7361L155.754 85.0482C155.783 85.1712 155.811 85.2944 155.839 85.4179L140.102 92.7562ZM142.927 92.6678C142.593 92.6926 142.258 92.7124 141.921 92.7271L155.997 86.1632C156.022 86.2882 156.047 86.4134 156.07 86.5388L142.927 92.6678ZM146.602 92.1828C146.147 92.2696 145.688 92.3468 145.227 92.4144L156.203 87.296C156.224 87.4229 156.244 87.5501 156.263 87.6776L146.602 92.1828ZM156.37 88.4469C156.377 88.4989 156.383 88.551 156.389 88.6031C154.532 89.6486 152.561 90.5167 150.5 91.1842L156.37 88.4469ZM140.512 64.5091L138.177 65.5979C138.822 65.1449 139.485 64.7148 140.164 64.3087C140.28 64.3748 140.396 64.4416 140.512 64.5091Z" fill="black"/>
</svg>
